<?xml version="1.0" encoding="iso-8859-1"?>
<!-- Generator: Adobe Illustrator 24.0.2, SVG Export Plug-In . SVG Version: 6.00 Build 0)  -->
<!DOCTYPE svg PUBLIC "-//W3C//DTD SVG 1.0//EN" "http://www.w3.org/TR/2001/REC-SVG-20010904/DTD/svg10.dtd" [
	<!ENTITY ns_extend "http://ns.adobe.com/Extensibility/1.0/">
	<!ENTITY ns_ai "http://ns.adobe.com/AdobeIllustrator/10.0/">
	<!ENTITY ns_graphs "http://ns.adobe.com/Graphs/1.0/">
	<!ENTITY ns_vars "http://ns.adobe.com/Variables/1.0/">
	<!ENTITY ns_imrep "http://ns.adobe.com/ImageReplacement/1.0/">
	<!ENTITY ns_sfw "http://ns.adobe.com/SaveForWeb/1.0/">
	<!ENTITY ns_custom "http://ns.adobe.com/GenericCustomNamespace/1.0/">
	<!ENTITY ns_adobe_xpath "http://ns.adobe.com/XPath/1.0/">
]>
<svg version="1.0" id="&#xD1;&#xEB;&#xEE;&#xE9;_1" xmlns:x="&ns_extend;" xmlns:i="&ns_ai;" xmlns:graph="&ns_graphs;"
	 xmlns="http://www.w3.org/2000/svg" xmlns:xlink="http://www.w3.org/1999/xlink" x="0px" y="0px" viewBox="0 0 328.1 273.3"
	 enable-background="new 0 0 328.1 273.3" xml:space="preserve">
<metadata>
	<sfw  xmlns="&ns_sfw;">
		<slices></slices>
		<sliceSourceBounds  bottomLeftOrigin="true" height="247.5" width="293.4" x="-327.3" y="-4597.1"></sliceSourceBounds>
	</sfw>
</metadata>
<g>
	
		<rect x="262.1" y="228.7" transform="matrix(0.2483 0.9687 -0.9687 0.2483 421.9873 -80.8175)" fill="#5793CE" width="1.9" height="5.5"/>
	
		<rect x="259.4" y="231.4" transform="matrix(0.2482 0.9687 -0.9687 0.2482 422.5363 -76.1452)" fill="#5793CE" width="1.9" height="5.5"/>
	
		<rect x="256.6" y="234.1" transform="matrix(0.2482 0.9687 -0.9687 0.2482 423.0614 -71.4853)" fill="#5793CE" width="1.9" height="5.5"/>
	
		<rect x="253.9" y="236.7" transform="matrix(0.2483 0.9687 -0.9687 0.2483 423.5791 -66.8296)" fill="#5793CE" width="1.9" height="5.5"/>
</g>
<g>
	<path fill="#C4D9E8" d="M147.2,65L96.8,94.6C84,90.7,67.7,91.9,57,98.2c-13.1,7.7-13,20,0.2,27.4c3,1.7,6.3,3,9.9,3.9
		c2.5,0.6,5.2,1.1,7.9,1.4c10.5,1,21.7-0.8,29.7-5.6c9.8-5.7,12.2-14,7.3-21l7-4.1l-0.2-4.4l7.3-0.1l-0.2-4.1l7.3-0.1l-0.2-4.1
		l7.3-0.1l-0.2-4.1l7.3-0.1l-0.2-4.1l7.8-0.1l2.4-1.4l2.6-10.9L147.2,65z M76.3,121.6c-3.4,2-8.9,2-12.4,0.1
		c-3.4-1.9-3.5-5.1-0.1-7.1c3.4-2,8.9-2,12.4-0.1C79.6,116.4,79.7,119.6,76.3,121.6z"/>
	<path fill="#C4D9E8" d="M174.7,252l-68-39.1c-4.6-2.6-4-7.3,1.3-10.3l66-38.1c5.3-3.1,13.3-3.4,17.9-0.7l68,39.1
		c4.6,2.6,4,7.3-1.3,10.3l-66,38.1C187.3,254.4,179.3,254.7,174.7,252z"/>
	<g>
		<g>
			<path fill="#5793CE" d="M254.4,163.4l-11.8-6.8l43.3-25c2-1.2,2-3.1,0-4.3l-44.3-25.6c-2-1.2-5.4-1.2-7.4,0l-43.3,25l-11.8-6.8
				l43.3-25c8.5-4.9,22.4-4.9,30.9,0l44.3,25.6c8.5,4.9,8.5,12.9,0,17.9L254.4,163.4z"/>
		</g>
		<g>
			<path fill="#D4ECFF" d="M273.4,166.4c0-6.3-3.8-13.6-8.5-16.3l-78.5-45.3c-2.1-1.2-4-1.3-5.5-0.5l0,0l-93.7,54.5l90.6,68.3
				l92.3-53.6c0.3-0.1,0.6-0.3,0.8-0.5l0,0l0,0C272.4,171.9,273.4,169.6,273.4,166.4z"/>
			<path fill="#173D7A" d="M177.7,227.1l92.3-53.6c0.3-0.1,0.6-0.3,0.8-0.5l0,0l0,0c1.5-1.2,2.5-3.5,2.5-6.6c0-3-0.9-6.2-2.3-9.1
				l-105.3,60.8L177.7,227.1z"/>
			<path fill="#5793CE" d="M171.8,226.9l-78.5-45.3c-4.7-2.7-8.5-10-8.5-16.3l0,0c0-6.3,3.8-9.2,8.5-6.4l78.5,45.3
				c4.7,2.7,8.5,10,8.5,16.3l0,0C180.4,226.7,176.5,229.6,171.8,226.9z"/>
		</g>
		<path fill="#FFFFFF" d="M160.1,211.6l-9.4-5.4c-0.9-0.5-1.7-2-1.7-3.2l0,0c0-1.3,0.8-1.8,1.7-1.3l9.4,5.4c0.9,0.5,1.7,2,1.7,3.2
			l0,0C161.8,211.5,161,212.1,160.1,211.6z"/>
	</g>
	<g>
		<g>
			<polygon fill="#396CAA" points="89.2,52 105.3,61.1 121.8,51.5 121.8,47.3 121.6,47.4 121.6,47.1 128.9,47 128.9,42.9 
				136.1,42.8 136,38.7 143.2,38.7 143.1,34.5 150.3,34.5 150.3,30.3 157.9,30.3 160.3,28.9 163,18 162.9,13.8 161.7,17.9 150,16.3 
							"/>
			<g>
				<g>
					<g>
						<g>
							<g>
								<polygon fill="#D4ECFF" points="105.3,56.9 121.8,47.3 121.6,42.9 128.9,42.8 128.7,38.7 136,38.6 135.8,34.5 143.1,34.5 
									143,30.3 150.3,30.3 150.1,26.1 157.9,26.1 160.3,24.7 162.9,13.8 150,12.1 89.2,47.8 								"/>
							</g>
						</g>
						<g>
							<g>
								<path fill="#396CAA" d="M116.3,50.5c-1.7-2.4-4.1-4.6-7.5-6.4c-2.3-1.3-5-2.4-7.7-3.3l-11.9,7l16.1,9.2L116.3,50.5z"/>
							</g>
						</g>
						<g>
							<g>
								<polygon fill="#5793CE" points="162.5,15.6 162.9,13.8 160.8,13.5 109.4,43.7 112.1,45.2 								"/>
							</g>
						</g>
						<g>
							<g>
								<polygon fill="#D3D0CF" points="50.2,65.2 50.1,59.3 52,63.3 								"/>
							</g>
						</g>
						<path fill="#396CAA" d="M60.2,78.7c13.2,7.5,34.5,7.3,47.5-0.3c6.6-3.8,9.8-8.8,9.7-13.8l0,0l-0.2-6.3l-1.1,1.2
							c-1.5-3.1-4.4-6.1-8.7-8.5C94.3,43.4,73,43.6,60,51.2C46.9,58.9,47,71.2,60.2,78.7z M79.2,67.5c3.4,1.9,3.5,5.1,0.1,7.1
							c-3.4,2-8.9,2-12.4,0.1c-3.4-1.9-3.5-5.1,0-7.1C70.2,65.6,75.8,65.6,79.2,67.5z"/>
						<g>
							<g>
								<path fill="#F2F2F2" d="M60,72.7c13.2,7.5,34.5,7.3,47.5-0.3c13.1-7.7,13-20-0.2-27.4c-13.2-7.5-34.5-7.3-47.5,0.3
									C46.7,52.9,46.8,65.2,60,72.7z M79,61.5c3.4,1.9,3.5,5.1,0.1,7.1c-3.4,2-8.9,2-12.4,0.1c-3.4-1.9-3.5-5.1-0.1-7.1
									C70.1,59.6,75.6,59.6,79,61.5z"/>
							</g>
						</g>
						<path fill="#5793CE" d="M75.3,76c-2.9,0.5-6.1,0.1-8.4-1.2c-2.5-1.4-3.2-3.4-2.1-5.2l-6-4.7c0,0-3.1-3.5-6.2-7
							c-4.8,7-2.3,15.3,7.6,20.9c4.3,2.5,9.2,3.9,14.7,4.7L75.3,76z"/>
						<g>
							<g>
								<path fill="#D4ECFF" d="M60,72.7c3,1.7,6.3,3,9.9,3.9c2.5,0.6,5.2,1.1,7.9,1.4c10.5,1,21.7-0.8,29.7-5.6
									c13.1-7.7,13-20-0.2-27.4c-13.2-7.5-34.5-7.3-47.5,0.3C46.7,52.9,46.8,65.2,60,72.7z M79,61.5c3.4,1.9,3.5,5.1,0.1,7.1
									c-3.4,2-8.9,2-12.4,0.1c-3.4-1.9-3.5-5.1-0.1-7.1C70.1,59.6,75.6,59.6,79,61.5z"/>
							</g>
						</g>
						<g>
							<g>
								<g>
									<path fill="#396CAA" d="M53.8,59.1c0.6-3.8,3.5-7.6,8.5-10.5c11.6-6.8,30.6-7,42.3-0.3c5.8,3.3,8.8,7.7,8.8,12.1
										c0.8-5-2.1-10.1-8.7-13.9c-11.7-6.7-30.7-6.5-42.3,0.3C56.6,50.2,53.7,54.7,53.8,59.1z"/>
								</g>
							</g>
						</g>
					</g>
					<g>
						<g>
							<g>
								<g>
									<path fill="#396CAA" d="M45.8,113.4c-2.4,0-4.6-0.6-6.6-1.7c-4.7-2.7-7.3-8.1-7.4-15.2c-0.1-12.9,8.9-28.8,20.1-35.4
										c6.1-3.6,12.1-4.1,16.8-1.4c2,1.1,3.7,2.8,4.9,4.9c1.6,2.8,2.5,6.2,2.5,10.3c0.1,12.9-8.9,28.8-20.1,35.4
										C52.5,112.4,49.1,113.4,45.8,113.4z M62.1,62.8c-2.4,0-5,0.8-7.8,2.5c-9.9,5.8-17.8,19.8-17.7,31.2c0,5.3,1.8,9.3,5,11.1
										c3.2,1.8,7.5,1.3,12.1-1.4c9.9-5.8,17.8-19.8,17.7-31.2c0-3.1-0.7-5.9-1.9-7.9l0,0c-0.8-1.4-1.9-2.4-3.1-3.2
										C65.1,63.2,63.7,62.8,62.1,62.8z"/>
								</g>
							</g>
						</g>
					</g>
				</g>
			</g>
		</g>
		<path fill="#D4ECFF" d="M68.3,73.3l9.4,2.3l1.3-7c-3.4,2-8.9,2-12.4,0.1L68.3,73.3z"/>
		<path fill="#D4ECFF" d="M60,72.7c3,1.7,6.3,3,9.9,3.9c2.5,0.6,5.2,1.1,7.9,1.4c10.5,1,21.7-0.8,29.7-5.6l-38.2-0.9L60,72.7z"/>
		<path fill="#396CAA" d="M74.1,77.5c0,0-4.1-0.7-8.3-2.1v5.9c2,0.7,5.3,1.7,8.2,2.1C82.8,84.5,74.1,77.5,74.1,77.5z"/>
	</g>
	<path fill="#5793CE" d="M68,76.1c-1.7-0.5-3.6-1.2-5.4-2c-5.1-2.4,1.4,6.5,1.4,6.5s1.7,0.7,4.1,1.4V76.1z"/>
</g>
<polygon fill="#5793CE" points="163.9,179.1 147.1,189.9 139,188.5 158.9,178.9 "/>
<g>
	<g>
		<path fill="#173D7A" d="M143.6,233.5c0,0-4.8-2.4-7.8,1.2c-3,3.6-7.2,12.2-7.3,17.9c-0.1,5.8,4.6,5.4,7.4,4
			c2.8-1.4,10.9-13.2,11.4-15.5c0.5-2.3-0.6-5.5-1.4-6.1C145.2,234.4,143.6,233.5,143.6,233.5z"/>
		<path fill="#5793CE" d="M144.7,232.3l0.2,5c0,1.1-0.5,2.1-1.4,2.6c-0.8,0.5-2.1,0.8-3.7,0.6c-3.6-0.6-4-1.6-4.2-6.6
			C135.3,228.9,144.7,232.3,144.7,232.3z"/>
		<g>
			<path fill="#173D7A" d="M126,223.9c0,0-4.8-2.4-7.8,1.2c-3,3.6-7.2,12.2-7.3,17.9c-0.1,5.8,4.6,5.4,7.4,4
				c2.8-1.4,10.9-13.2,11.4-15.5c0.5-2.3-0.6-5.5-1.4-6.1C127.6,224.8,126,223.9,126,223.9z"/>
			<path fill="#5793CE" d="M127.1,222.7l0.2,5c0,1.1-0.5,2.1-1.4,2.6c-0.8,0.5-2.1,0.8-3.7,0.6c-3.6-0.6-4-1.6-4.2-6.6
				C117.7,219.3,127.1,222.7,127.1,222.7z"/>
			<path fill="#D4ECFF" d="M170,131.2c-1.4-23.2-25.1,3.4-25.1,3.4l-16.2,15.9l-14.6,16c-2.9,3.1-4.2,7.4-3.6,11.6l5.9,45
				c0.3,2.2,2.2,3.9,4.4,3.8c0.6,0,1.4-0.1,2.2-0.2c5.3-0.8,4.9-5.8,4.9-5.8l-1.1-42.1l30.7-18.5C157.5,160.3,171.5,154.4,170,131.2
				z"/>
		</g>
		<path fill="#5793CE" d="M138.5,170.8l-4.4-1.6c-0.1,0-7.4,7.1-7.4,9.5l3.3,1.1l8.2-8L138.5,170.8z"/>
		<path fill="#5793CE" d="M163.9,179.1c0,0,18.2-10.4,20.4-14.8c0.9-1.7,2.2-3.5-3.1-6.1l-24.3,17.3l1.1,6L163.9,179.1z"/>
		<path fill="#D4ECFF" d="M187.7,140.1c-1.5-23.2-25.1,3.4-25.1,3.4l-16.2,15.9l-14.6,16c-2.9,3.1-4.2,7.4-3.6,11.6l5.9,45
			c0.3,2.2,2.2,3.9,4.4,3.8c0.6,0,1.4-0.1,2.2-0.2c5.3-0.8,4.9-5.8,4.9-5.8l-1.1-42.1l30.7-18.5C175.1,169.3,189,161.3,187.7,140.1z
			"/>
		<path fill="#5793CE" d="M173.6,65.6c18,7.4,17.6,18.1,17.6,18.1s-3.5,38.9-2.3,64.9c0.5,10.9-57.7,11.7-49-17.3
			c10.2-34.2,6.4-61.8,11.2-66C155.9,61.1,169,63.6,173.6,65.6z"/>
		<path fill="#FFC2B0" d="M179.4,75c-0.9,3.6-5.7,5.6-10.7,4.3c-5-1.3-8.2-5.3-7.3-8.9s5.7-5.6,10.7-4.3
			C177.1,67.4,180.4,71.3,179.4,75z"/>
		<path fill="#FFFFFF" d="M171.8,80.5c-1.1,0-2.1-0.1-3.2-0.4c-2.6-0.7-4.8-2-6.3-3.9c-1.5-1.9-2.1-4.1-1.6-6.1
			c1.1-4.1,6.3-6.3,11.7-4.9c2.6,0.7,4.8,2,6.3,3.9c1.6,1.9,2.1,4.1,1.6,6.1C179.4,78.5,175.9,80.5,171.8,80.5z M169.1,66.5
			c-3.3,0-6.1,1.6-6.8,4c-0.4,1.5,0.1,3.1,1.3,4.6c1.3,1.5,3.2,2.7,5.4,3.3c4.5,1.2,8.8-0.5,9.6-3.7c0.4-1.5-0.1-3.1-1.3-4.6
			c-1.3-1.5-3.2-2.7-5.4-3.3C171,66.7,170,66.5,169.1,66.5z"/>
		<path fill="#FFC2B0" d="M166.4,64.8c0,0,0.2,0.7-0.2,6.4c-0.1,1.8,6.2,3.5,7.8,1.8c1.6-1.6,1-3.3,1.4-9.4
			C175.8,57.5,166.4,64.8,166.4,64.8z"/>
		<path fill="#EA9C92" d="M175.4,63.6c0,0-1.5,5.6-9.1,7.8l0.1-5.1L175.4,63.6z"/>
		<path fill="#FFC2B0" d="M180.3,49.3c1.9,7.4-2.5,14.9-9.9,16.8c-7.4,1.9-14.9-2.5-16.8-9.9c-1.9-7.4,2.5-14.9,9.9-16.8
			C170.8,37.5,178.3,41.9,180.3,49.3z"/>
		<path fill="#EA9C92" d="M170,53.3c0,0-7.6,3.3-12.9,3.3c-5.3,0-4.1-4.4-4.1-4.4l15.6-2.3L170,53.3z"/>
		<path fill="#FF2C9C" d="M155.6,54.1c0,0,6.6-2.8,12.4-1.6c1.4,0.3,2.6,1,3.5,2.1c0.3,0.4,0.7,0.7,1.1,0.8c1,0.2,2.7-4,4.7-4.1
			c2-0.1,3.3,1.3,1.7,4c-1.6,2.6-1.1,5.6-0.3,6c0.8,0.4,8.8-5.7,1.7-19.7c-7.1-14-25-6.5-27.8-3.6c0,0-2.9,2.6-5.3,0.3
			C147.2,38.1,144.5,58.2,155.6,54.1z"/>
		<path fill="#FFC2B0" d="M181.2,112.1v10.5c0,1.2-0.5,2.4-1.4,3.2l-21.6,19.7l2.5,3.8l28.5-20.7c1.3-1,2.2-2.5,2.4-4.1l1.9-18.3
			L181.2,112.1z"/>
		<path fill="#5793CE" d="M189.7,78.4c0,0,6.6,9.9,9,35.8c0,0-11.2,3.6-17.5,1.6C174.8,113.7,189.7,78.4,189.7,78.4z"/>
		<path fill="#396CAA" d="M180,90.8c0,0-2.6,13.7-2.7,20.2c0,1.8,1,3.4,2.7,4l0,0V90.8z"/>
	</g>
	<g>
		<path fill="#173D7A" d="M174.4,159.1l-4.8-0.6l-30.8-17.8c-1-0.6-2.7-0.5-3.9,0.2l-21.8,12.6l-2.9-0.4v2.9l0,0
			c0,0.4,0.2,0.7,0.7,1l34.9,20.2c1,0.6,2.7,0.5,3.9-0.2l23.8-13.7c0.6-0.4,1-0.8,0.9-1.3h0V159.1z"/>
		<path fill="#396CAA" d="M151.2,147.9l-2.2-1.3H125l-11.9,6.8l-2.9-0.4v2.9l0,0c0,0.4,0.2,0.7,0.7,1l34.9,20.2
			c0.5,0.3,1.3,0.4,2,0.4L151.2,147.9z"/>
		<path fill="#5793CE" d="M111.5,153.2l-1.3-0.2v2.9l0,0c0,0.4,0.2,0.7,0.7,1l0.6,0.4V153.2z"/>
		<path fill="#274F89" d="M146.1,177.3c0.9,0.4,2.3,0.3,3.3-0.2v-4.9h-3.3V177.3z"/>
		<path fill="#FFFFFF" d="M145.8,174.2l-34.9-20.2c-1-0.6-0.9-1.6,0.3-2.2l23.8-13.7c1.1-0.7,2.9-0.7,3.9-0.2l34.9,20.2
			c1,0.6,0.9,1.6-0.3,2.2l-23.8,13.7C148.5,174.7,146.8,174.8,145.8,174.2z"/>
		<path fill="#D4ECFF" d="M145.2,171.2l-29-16.8c-0.8-0.5-0.7-1.3,0.2-1.9l12.7-7.2c0.9-0.5,2.4-0.6,3.2-0.1l29,16.8
			c0.8,0.5,0.7,1.3-0.2,1.9l-12.7,7.2C147.5,171.6,146,171.7,145.2,171.2z"/>
	</g>
	<path fill="#FFC2B0" d="M136.3,137.5l-0.4,2.4c-0.3,2.1-0.3,4.1,0.2,6.2l0.4,2.1c0.2,1.2,1.2,2.1,2.4,2.3l0,0
		c0.9,0.2,1.8-0.5,1.9-1.4l0.6-5.2c0,0,1.3,1.7,2,1.7c0.6,0-0.7-5.2-2.2-8.1C139.8,134.7,136.3,137.5,136.3,137.5z"/>
	<path fill="#FFC2B0" d="M148.1,99.2l-3.7,7.4c-0.9,1.8-1.4,3.7-1.5,5.6l-1.6,25.4l-4.9-0.1L134,109c-0.1-0.9,0-1.8,0.1-2.6
		l2.6-14.4L148.1,99.2z"/>
	<g>
		<path fill="#173D7A" d="M144.6,176.2l-2.9-3.8l-30.8-17.8c-1-0.6-1.8-2.1-1.8-3.4l0-25.2l-1.8-2.3l1.7-1l0,0
			c0.3-0.2,0.7-0.2,1.2,0.1l34.9,20.2c1,0.6,1.8,2.1,1.8,3.4l0,27.5c0,0.7-0.3,1.3-0.7,1.5h0L144.6,176.2z"/>
		<path fill="#396CAA" d="M123.3,161.7l-2.2-1.3l-12-20.9l0-13.7l-1.8-2.3l1.7-1l0,0c0.3-0.2,0.7-0.2,1.2,0.1l34.9,20.2
			c0.5,0.3,1,0.9,1.3,1.5L123.3,161.7z"/>
		<path fill="#5793CE" d="M108.1,124.6l-0.8-1l1.7-1l0,0c0.3-0.2,0.7-0.2,1.2,0.1l0.6,0.4L108.1,124.6z"/>
		<path fill="#274F89" d="M145.4,143.1c0.8,0.6,1.4,1.8,1.5,2.9l-3.4,2l-1.6-2.8L145.4,143.1z"/>
		<path fill="#5793CE" d="M143.5,143.9l-34.9-20.2c-1-0.6-1.8,0-1.8,1.4l0,27.5c0,1.3,0.8,2.8,1.8,3.4l34.9,20.2
			c1,0.6,1.8,0,1.8-1.4l0-27.5C145.3,146,144.5,144.4,143.5,143.9z"/>
	</g>
	<path fill="#FFC2B0" d="M160.6,149.2l-0.6,1.2c-0.6,1.3-1.7,2.5-2.9,3.2l-3.5,2.1c-1.1,0.7-2.4,0.7-3.5,0.1c0,0-0.1,0-0.1-0.1
		c-1.1-0.7-1.2-2.3-0.3-3.2l3.6-3.7c0,0-2,1.6-2.6,0.9c-0.4-0.5,2-2.7,3.8-2.8c1.8-0.1,3.6-1.5,3.6-1.5L160.6,149.2z"/>
	<path fill="#5793CE" d="M151.4,65.2c0,0-13.3,14.5-18.6,27.7c0,0,4.5,8.2,15.7,11.4C159.6,107.5,151.4,65.2,151.4,65.2z"/>
	<path fill="#396CAA" d="M146,103.4l2.2-20.8l-5.1,19.5C143.9,102.6,144.9,103,146,103.4z"/>
	<path fill="#FFFFFF" d="M161.4,62.3l-3.6-1c0,0,1.7,2.7,4.2,3.4c2.5,0.7,2.9-1.4,2.9-1.4L161.4,62.3z"/>
</g>
<path fill="#D4ECFF" d="M93.7,30.3c-5.5,0-10-4.5-10-10c0-5.5,4.5-10,10-10c5.5,0,10,4.5,10,10C103.7,25.8,99.2,30.3,93.7,30.3z
	 M93.7,12.5c-4.3,0-7.8,3.5-7.8,7.8c0,4.3,3.5,7.8,7.8,7.8c4.3,0,7.8-3.5,7.8-7.8C101.5,16,98,12.5,93.7,12.5z"/>
<path fill="#5793CE" d="M295.7,102.3c-3.9,0-7.1-3.2-7.1-7.1c0-3.9,3.2-7.1,7.1-7.1s7.1,3.2,7.1,7.1
	C302.8,99.2,299.6,102.3,295.7,102.3z M295.7,90.4c-2.7,0-4.9,2.2-4.9,4.9c0,2.7,2.2,4.9,4.9,4.9c2.7,0,4.9-2.2,4.9-4.9
	C300.6,92.6,298.4,90.4,295.7,90.4z"/>
<path fill="#5793CE" d="M63.3,230.4l-4.8-9.8l9.8-4.8l4.8,9.8L63.3,230.4z M61.4,221.6l2.9,5.9l5.9-2.9l-2.9-5.9L61.4,221.6z"/>
<path fill="#5793CE" d="M205.4,78.7l-4.8-9.8l9.8-4.8l4.8,9.8L205.4,78.7z M203.5,69.9l2.9,5.9l5.9-2.9l-2.9-5.9L203.5,69.9z"/>
<rect x="46.5" y="171.6" transform="matrix(0.8974 -0.4412 0.4412 0.8974 -71.7759 39.4963)" fill="#5793CE" width="5" height="5"/>
<g>
	<g>
		<path fill="#D3008D" d="M226.5,25.6l-26.7-15.4c-0.5-0.3-1-0.3-1.4-0.1c0,0,0,0,0,0l-2.6,1.5c0,0,1.1,0.4,1.8,0.7v19.5
			c0,1.6,1,3.4,2.2,4.1l25.6,14.8v2.3l2.6-1.5l0,0c0.4-0.3,0.7-0.9,0.7-1.7V29.7C228.7,28.2,227.7,26.3,226.5,25.6z"/>
		<path fill="#FF2C9C" d="M223.9,52.8l-26.7-15.4c-1.2-0.7-2.2-2.5-2.2-4.1V13.3c0-1.6,1-2.3,2.2-1.6l26.7,15.4
			c1.2,0.7,2.2,2.5,2.2,4.1v19.9C226,52.7,225,53.5,223.9,52.8z"/>
	</g>
	<g>
		<path fill="#FFFFFF" d="M206.1,30.5c0,1.2-0.8,1.6-1.8,1c-1-0.6-1.8-2-1.8-3.1c0-1.2,0.8-1.6,1.8-1
			C205.3,27.9,206.1,29.3,206.1,30.5z"/>
		<path fill="#FFFFFF" d="M211.6,33.6c0,1.2-0.8,1.6-1.8,1c-1-0.6-1.8-2-1.8-3.1c0-1.2,0.8-1.6,1.8-1
			C210.8,31.1,211.6,32.5,211.6,33.6z"/>
		<path fill="#FFFFFF" d="M217,36.8c0,1.2-0.8,1.6-1.8,1c-1-0.6-1.8-2-1.8-3.1c0-1.2,0.8-1.6,1.8-1C216.2,34.2,217,35.6,217,36.8z"
			/>
	</g>
</g>
<g>
	<g>
		<path fill="#5793CE" d="M41.7,194.8l-26.2-15.1c-0.5-0.3-1-0.3-1.4-0.1c0,0,0,0,0,0l-2.5,1.5c0,0,1.1,0.4,1.8,0.7v19.1
			c0,1.6,0.9,3.4,2.1,4l25.1,14.5v2.2l2.6-1.5l0,0c0.4-0.3,0.7-0.8,0.7-1.7v-19.5C43.8,197.3,42.8,195.5,41.7,194.8z"/>
		<path fill="#D4ECFF" d="M39.1,221.4l-26.2-15.1c-1.2-0.7-2.1-2.5-2.1-4v-19.5c0-1.6,0.9-2.3,2.1-1.6l26.2,15.1
			c1.2,0.7,2.1,2.5,2.1,4v19.5C41.2,221.4,40.2,222.1,39.1,221.4z"/>
	</g>
	<g>
		<path fill="#FFFFFF" d="M21.7,199.5c0,1.1-0.8,1.6-1.8,1c-1-0.6-1.8-1.9-1.8-3.1c0-1.1,0.8-1.6,1.8-1
			C20.9,197,21.7,198.4,21.7,199.5z"/>
		<path fill="#FFFFFF" d="M27,202.6c0,1.1-0.8,1.6-1.8,1c-1-0.6-1.8-1.9-1.8-3.1c0-1.1,0.8-1.6,1.8-1C26.2,200.1,27,201.5,27,202.6z
			"/>
		<path fill="#FFFFFF" d="M32.4,205.7c0,1.1-0.8,1.6-1.8,1c-1-0.6-1.8-1.9-1.8-3.1c0-1.1,0.8-1.6,1.8-1
			C31.6,203.2,32.4,204.6,32.4,205.7z"/>
	</g>
</g>
</svg>
