<?xml version="1.0" encoding="utf-8"?>
<!-- Generator: Adobe Illustrator 24.0.2, SVG Export Plug-In . SVG Version: 6.00 Build 0)  -->
<!DOCTYPE svg PUBLIC "-//W3C//DTD SVG 1.1//EN" "http://www.w3.org/Graphics/SVG/1.1/DTD/svg11.dtd" [
	<!ENTITY ns_extend "http://ns.adobe.com/Extensibility/1.0/">
	<!ENTITY ns_ai "http://ns.adobe.com/AdobeIllustrator/10.0/">
	<!ENTITY ns_graphs "http://ns.adobe.com/Graphs/1.0/">
	<!ENTITY ns_vars "http://ns.adobe.com/Variables/1.0/">
	<!ENTITY ns_imrep "http://ns.adobe.com/ImageReplacement/1.0/">
	<!ENTITY ns_sfw "http://ns.adobe.com/SaveForWeb/1.0/">
	<!ENTITY ns_custom "http://ns.adobe.com/GenericCustomNamespace/1.0/">
	<!ENTITY ns_adobe_xpath "http://ns.adobe.com/XPath/1.0/">
]>
<svg version="1.1" id="Capa_1" xmlns:x="&ns_extend;" xmlns:i="&ns_ai;" xmlns:graph="&ns_graphs;"
	 xmlns="http://www.w3.org/2000/svg" xmlns:xlink="http://www.w3.org/1999/xlink" x="0px" y="0px" viewBox="0 0 500 395.2"
	 style="enable-background:new 0 0 500 395.2;" xml:space="preserve">
<style type="text/css">
	.st0{fill:#EBEBEB;}
	.st1{fill:#E0E0E0;}
	.st2{fill:#F0F0F0;}
	.st3{display:none;}
	.st4{display:inline;}
	.st5{fill:#407BFF;}
	.st6{opacity:0.9;fill:#FFFFFF;enable-background:new    ;}
	.st7{fill:#F5F5F5;}
	.st8{fill:#263238;}
	.st9{opacity:0.3;fill:#407BFF;enable-background:new    ;}
	.st10{fill:#FFFFFF;}
	.st11{opacity:0.3;fill:#FFFFFF;enable-background:new    ;}
	.st12{opacity:0.2;enable-background:new    ;}
</style>
<metadata>
	<sfw  xmlns="&ns_sfw;">
		<slices></slices>
		<sliceSourceBounds  bottomLeftOrigin="true" height="372.5" width="500" x="0" y="72.5"></sliceSourceBounds>
		<optimizationSettings>
			<targetSettings  fileFormat="JPEGFormat" targetSettingsID="0">
				
					<JPEGFormat  blurAmount="0" embedICCProfile="false" matteColor="#FFFFFF" noMatteColor="false" optimized="true" progressive="true" quality="81">
					</JPEGFormat>
			</targetSettings>
		</optimizationSettings>
	</sfw>
</metadata>
<g id="Background_Complete">
	<g>
		<rect y="338.5" class="st0" width="500" height="0.3"/>
		<rect x="428.2" y="354.6" class="st0" width="21.7" height="0.3"/>
		<rect x="310.6" y="349.4" class="st0" width="34.1" height="0.3"/>
		<rect x="396.6" y="345.3" class="st0" width="44.5" height="0.3"/>
		<rect x="161.9" y="350.4" class="st0" width="11.1" height="0.3"/>
		<rect x="114.6" y="350.4" class="st0" width="38.4" height="0.3"/>
		<rect x="66.3" y="346.1" class="st0" width="27.7" height="0.3"/>
		<path class="st0" d="M237,293.9H43.9c-3.1,0-5.7-2.6-5.7-5.7V16.8c0-3.1,2.6-5.7,5.7-5.7H237c3.1,0,5.7,2.6,5.7,5.7v271.4
			C242.7,291.3,240.2,293.9,237,293.9z M43.9,11.3c-3,0-5.5,2.4-5.5,5.5v271.4c0,3,2.4,5.5,5.5,5.5H237c3,0,5.5-2.4,5.5-5.5V16.8
			c0-3-2.4-5.5-5.5-5.5H43.9z"/>
		<path class="st0" d="M453.3,293.9H260.2c-3.1,0-5.7-2.6-5.7-5.7V16.8c0-3.1,2.6-5.7,5.7-5.7h193.1c3.1,0,5.7,2.6,5.7,5.7v271.4
			C459,291.3,456.5,293.9,453.3,293.9z M260.2,11.3c-3,0-5.5,2.4-5.5,5.5v271.4c0,3,2.4,5.5,5.5,5.5h193.1c3,0,5.5-2.4,5.5-5.5V16.8
			c0-3-2.4-5.5-5.5-5.5H260.2z"/>
	</g>
	<g>
		<g>
			<path class="st0" d="M216.1,157l0.5-13.1l-8.1-2.6c-0.3-4.5-1.1-8.9-2.2-13.2l6.8-5l-4.6-12.3l-8.5,0.7c-2-4-4.4-7.8-7-11.4
				l4.4-7.3l-9-9.6l-7.6,3.9c-3.4-2.9-7-5.5-10.8-7.8l1.2-8.4l-12-5.4l-5.5,6.4c-4.2-1.4-8.5-2.4-13-3l-2-8.2l-13.2-0.5l-2.6,8.1
				c-4.5,0.4-8.9,1.1-13.2,2.2l-5.1-6.8l-12.3,4.6l0.7,8.5c-4,2-7.8,4.4-11.4,7.1l-7.3-4.4l-9.6,9l3.9,7.6c-2.9,3.4-5.5,7-7.8,10.8
				l-8.4-1.3l-5.5,12l6.5,5.5c-1.4,4.2-2.4,8.6-3,13l-8.3,2.1l-0.5,13.1l8.1,2.6c0.3,4.5,1.1,8.9,2.2,13.2l-6.8,5l4.6,12.3l8.5-0.7
				c2,4,4.4,7.8,7,11.4l-4.4,7.3l9,9.6l7.6-3.9c3.4,2.9,7,5.5,10.8,7.8l-1.3,8.4l12,5.4l5.5-6.4c4.2,1.4,8.5,2.4,13,3l2,8.2
				l13.2,0.5l2.6-8.1c4.5-0.4,8.9-1.1,13.2-2.2l5,6.8l12.3-4.6l-0.6-8.5c4-2,7.8-4.4,11.4-7.1l7.3,4.4l9.6-9l-3.9-7.6
				c2.9-3.4,5.5-7,7.8-10.8l8.4,1.3l5.5-12l-6.5-5.5c1.4-4.2,2.4-8.5,3-13L216.1,157z M127.3,199.5c-28.8-1-51.3-25.1-50.3-53.9
				s25.1-51.3,53.9-50.4c28.8,1,51.3,25.1,50.3,53.9C180.2,178,156.1,200.5,127.3,199.5z"/>
		</g>
		<g>
			<path class="st0" d="M441,113.5l3.3-3.1l-1.3-2.6c1-1.2,1.9-2.4,2.7-3.7l2.9,0.4l1.9-4.1l-2.2-1.9c0.5-1.5,0.8-3,1.1-4.5l2.9-0.7
				l0.1-4.5l-2.8-0.9c-0.1-1.5-0.4-3.1-0.7-4.6l2.3-1.7l-1.6-4.3l-2.9,0.2c-0.7-1.4-1.5-2.7-2.4-3.9l1.5-2.5l-3.1-3.3l-2.6,1.3
				c-1.2-1-2.4-1.9-3.7-2.7l0.4-2.9l-4.1-1.9l-1.9,2.2c-1.5-0.5-3-0.8-4.5-1l-0.7-2.8l-4.5-0.2l-0.9,2.8c-1.5,0.1-3.1,0.4-4.5,0.7
				l-1.7-2.4l-4.3,1.6l0.2,2.9c-1.4,0.7-2.7,1.5-3.9,2.4l-2.5-1.5l-3.3,3.1l1.3,2.6c-1,1.2-1.9,2.4-2.7,3.7l-2.9-0.4l-1.9,4.1
				l2.2,1.9c-0.5,1.5-0.8,3-1.1,4.5l-2.9,0.7l-0.1,4.5l2.8,0.9c0.1,1.5,0.4,3.1,0.7,4.6l-2.4,1.7l1.6,4.3l2.9-0.2
				c0.7,1.4,1.5,2.7,2.4,3.9l-1.5,2.5l3.1,3.3l2.6-1.3c1.2,1,2.4,1.9,3.7,2.7l-0.4,2.9l4.1,1.9l1.9-2.2c1.5,0.5,3,0.8,4.5,1l0.7,2.8
				l4.5,0.2l0.9-2.8c1.5-0.1,3.1-0.4,4.5-0.7l1.7,2.4l4.3-1.6l-0.2-2.9c1.4-0.7,2.7-1.5,3.9-2.4L441,113.5z M417.3,94.4
				c-2.4-2.6-2.3-6.7,0.3-9.1c2.6-2.4,6.7-2.3,9.1,0.3s2.3,6.7-0.3,9.1C423.9,97.1,419.8,97,417.3,94.4z"/>
		</g>
		<path class="st0" d="M320,248.4l-10.3-7.1l0,0c-1-3.8-2.4-7.4-4.2-10.8l2.6-10.4l-15-16.1l-10.6,1.9c-3.3-2-6.8-3.6-10.5-4.9l0,0
			l-6.4-10.8l-22-0.8l-7.1,10.3l0,0c-3.8,1-7.4,2.4-10.8,4.2l-10.4-2.6l-16.1,15l1.9,10.5l0,0c-2,3.3-3.6,6.8-4.9,10.5l-10.8,6.4
			l-0.8,22l10.4,7.1c1,3.8,2.4,7.4,4.1,10.8l0,0l-2.6,10.4l15,16.1l10.5-1.9c3.3,2,6.8,3.6,10.5,4.9l0,0l6.4,10.8l22,0.8l7.1-10.3
			c3.8-1,7.4-2.4,10.9-4.2l0,0l10.3,2.6l16.1-15l-1.9-10.5c2-3.3,3.6-6.8,4.9-10.5l0,0l10.8-6.4L320,248.4z M251.5,281.8
			c-13.7-0.5-24.3-11.9-23.9-25.5c0.5-13.7,11.9-24.3,25.5-23.9c13.7,0.5,24.3,11.9,23.9,25.5C276.6,271.6,265.2,282.3,251.5,281.8z
			"/>
		<path class="st0" d="M343.5,186.1L343.5,186.1l-17.4-0.6c-0.7,0-1.4-0.4-1.7-1l-4.7-7.9c-2.5-0.9-4.9-2-7.3-3.4l-7.5,1.4
			c-0.7,0.1-1.4-0.1-1.9-0.6l-11.8-12.7c-0.5-0.5-0.7-1.3-0.5-2l1.9-7.4c-1.1-2.3-2.1-4.9-2.9-7.5l-7.5-5.2
			c-0.6-0.4-0.9-1.1-0.9-1.8l0.6-17.3c0-0.7,0.4-1.4,1-1.7l7.9-4.7c0.9-2.6,2.1-5,3.4-7.2l-1.4-7.5c-0.1-0.7,0.1-1.4,0.6-1.9
			l12.7-11.8c0.5-0.5,1.3-0.7,2-0.5l7.4,1.9c2.4-1.2,4.9-2.1,7.4-2.9l5.2-7.5c0.4-0.6,1.1-1,1.8-0.9l17.3,0.6c0.7,0,1.4,0.4,1.7,1
			l4.7,7.9c2.5,0.9,4.9,2,7.2,3.4l7.6-1.4c0.7-0.1,1.4,0.1,1.9,0.6l11.8,12.7c0.5,0.5,0.7,1.3,0.5,2l-1.9,7.4
			c1.2,2.4,2.1,4.9,2.9,7.4l7.5,5.2c0.6,0.4,0.9,1.1,0.9,1.8l-0.6,17.3c0,0.7-0.4,1.4-1,1.7l-7.9,4.7c-0.9,2.6-2.1,5-3.4,7.2
			l1.4,7.5c0.1,0.7-0.1,1.4-0.6,1.9l-12.6,11.8c-0.5,0.5-1.3,0.7-2,0.5l-7.4-1.9c-2.4,1.2-5,2.1-7.5,2.9l-5.2,7.5
			C344.9,185.7,344.2,186.1,343.5,186.1z M327.5,181.3l15,0.5l5-7.2c0.3-0.4,0.7-0.7,1.2-0.8c2.8-0.7,5.5-1.8,8.2-3.1l0,0
			c0.4-0.2,1-0.3,1.5-0.2l7,1.8l11-10.2l-1.3-7.2c-0.1-0.5,0-1,0.3-1.5c1.4-2.4,2.7-5,3.7-7.8c0.2-0.5,0.5-0.9,0.9-1.2l7.5-4.5
			l0.5-15l-7.2-5c-0.4-0.3-0.7-0.6-0.8-1.1c0-0.1,0-0.1,0-0.2c-0.8-2.8-1.8-5.5-3.1-8.1c-0.2-0.5-0.3-1-0.2-1.5l1.8-7.1l-10.3-11
			l-7.2,1.3c-0.5,0.1-1,0-1.5-0.3c-2.5-1.5-5.1-2.7-7.8-3.7c-0.2-0.1-0.3-0.1-0.4-0.2c-0.3-0.2-0.5-0.4-0.7-0.7l-4.5-7.5l-15-0.5
			l-5,7.2c-0.3,0.4-0.7,0.7-1.2,0.9c-2.8,0.8-5.5,1.8-8.1,3.1c-0.5,0.2-1,0.3-1.5,0.2l-7.1-1.8l-11,10.3l1.3,7.2
			c0.1,0.5,0,0.9-0.2,1.3c0,0.1-0.1,0.1-0.1,0.2c-1.5,2.4-2.7,5.1-3.7,7.9c-0.2,0.5-0.5,0.9-0.9,1.1l-7.5,4.5l-0.5,15l7.2,5
			c0.4,0.3,0.7,0.7,0.8,1.2c0.8,2.9,1.8,5.6,3.1,8.1c0.1,0.1,0.1,0.3,0.2,0.5c0.1,0.3,0.1,0.7,0,1l-1.8,7.1l10.3,11l7.1-1.3
			c0.5-0.1,1,0,1.5,0.3c2.5,1.5,5.2,2.7,7.9,3.7c0.5,0.2,0.9,0.5,1.2,0.9L327.5,181.3z M352.2,86.5L352.2,86.5L352.2,86.5z
			 M336.7,162.3c-0.4,0-0.7,0-1.1,0c-17.4-0.6-31.2-15.3-30.6-32.7s15.3-31.1,32.7-30.6c17.4,0.6,31.2,15.3,30.6,32.7
			c-0.3,8.4-3.9,16.3-10,22C352.4,159.3,344.8,162.3,336.7,162.3z M336.7,103.2c-14.7,0-26.9,11.7-27.4,26.5
			c-0.5,15.1,11.4,27.8,26.5,28.4c7.3,0.2,14.3-2.4,19.7-7.4c5.4-5,8.4-11.8,8.7-19.1c0.5-15.1-11.4-27.8-26.5-28.4
			C337.3,103.2,337,103.2,336.7,103.2z"/>
		<g>
			<polygon class="st1" points="383.4,61.4 376.3,59.5 374.3,52.3 377.1,49.5 380.1,55.7 386.2,58.6 			"/>
			<path class="st1" d="M383.9,56.6c1.3-1.3,1.3-3.4,0-4.7c-1.3-1.3-3.4-1.3-4.7,0l3.6-5.4l4.8,2.4l1,5L383.9,56.6z"/>
			<path class="st2" d="M376.6,50.1l5.3-5.3l7.2,1.9l1.9,7.2l-5.3,5.3l-7.2-1.9L376.6,50.1z M386.1,54.4c1.3-1.3,1.3-3.4,0-4.7
				c-1.3-1.3-3.4-1.3-4.7,0c-1.3,1.3-1.3,3.4,0,4.7C382.7,55.7,384.8,55.7,386.1,54.4z"/>
		</g>
		<g>
			<polygon class="st1" points="90.2,252.8 94.1,251.8 95.1,247.9 93.6,246.4 92,249.7 88.7,251.3 			"/>
			<path class="st1" d="M90,250.2c-0.7-0.7-0.7-1.8,0-2.5s1.8-0.7,2.5,0l-1.9-2.9l-2.6,1.3l-0.6,2.7L90,250.2z"/>
			<path class="st2" d="M93.9,246.7l-2.8-2.8l-3.8,1l-1,3.8l2.8,2.8l3.8-1L93.9,246.7z M88.8,249c-0.7-0.7-0.7-1.8,0-2.5
				s1.8-0.7,2.5,0s0.7,1.8,0,2.5C90.6,249.7,89.5,249.7,88.8,249z"/>
		</g>
		<g>
			<path class="st2" d="M76.4,41.8l3.2,3.2c0.8,0.8,2.2,0.8,3,0l0,0c0.8-0.8,0.8-2.2,0-3l-3.2-3.2c-0.8-0.8-2.2-0.8-3,0l0,0
				C75.5,39.6,75.5,40.9,76.4,41.8z"/>
			<path class="st1" d="M74.1,33.8c2.5-0.9,5.1,0.3,6,2.6c0.8,2.3-0.5,4.9-3,5.8s-5.1-0.3-6-2.6C70.3,37.3,71.6,34.7,74.1,33.8z"/>
			
				<rect x="70.5" y="37.4" transform="matrix(0.9411 -0.338 0.338 0.9411 -8.4128 27.7878)" class="st2" width="10.1" height="1.4"/>
		</g>
	</g>
</g>
<g id="Background_Simple" class="st3">
	<g class="st4">
		<path class="st5" d="M418.9,81.5c39.3,31.8,35.5,75.6,1.8,100.5c-16.1,12-48.7,9.6-67.2,18.1c-24.1,11-36.4,31.4-54.9,47.7
			c-46,40.5-61,20.5-113.3,21c-36.8,0.4-71.8,31.4-108.7,10.1c-45.1-26-17.2-78.2,19.6-98.3c42.3-23.1,15.7-77.5,76.5-117.5
			C232.6,23.6,360.6,32.9,418.9,81.5z"/>
		<path class="st6" d="M418.9,81.5c39.3,31.8,35.5,75.6,1.8,100.5c-16.1,12-48.7,9.6-67.2,18.1c-24.1,11-36.4,31.4-54.9,47.7
			c-46,40.5-61,20.5-113.3,21c-36.8,0.4-71.8,31.4-108.7,10.1c-45.1-26-17.2-78.2,19.6-98.3c42.3-23.1,15.7-77.5,76.5-117.5
			C232.6,23.6,360.6,32.9,418.9,81.5z"/>
	</g>
</g>
<g id="Shadow_1_">
	<ellipse id="_x3C_Path_x3E__373_" class="st7" cx="250" cy="372.3" rx="193.9" ry="11.3"/>
</g>
<g id="Oops_x21_">
	<g>
		<path class="st8" d="M86.7,76.7c-1-4.4-0.6-8.1,1.3-11.1c1.9-3,5-5,9.4-6c4.5-1,8.2-0.6,11.2,1.3s5,5,5.9,9.3
			c0.7,3.2,0.8,5.9,0.2,8.1c-0.6,2.3-1.8,4.2-3.5,5.8c-1.8,1.6-4.1,2.7-7.1,3.4s-5.7,0.8-7.9,0.3c-2.2-0.5-4.2-1.7-5.9-3.5
			C88.6,82.4,87.4,79.9,86.7,76.7z M95.1,74.9c0.6,2.7,1.6,4.6,2.9,5.5c1.3,1,2.8,1.2,4.5,0.8c1.8-0.4,3-1.3,3.8-2.7s0.7-3.6,0-6.6
			c-0.6-2.5-1.5-4.3-2.8-5.2c-1.3-0.9-2.8-1.2-4.6-0.8c-1.7,0.4-2.9,1.3-3.6,2.7C94.5,70.1,94.4,72.1,95.1,74.9z"/>
		<path class="st8" d="M118.6,73.4c-0.7-3-0.2-5.7,1.3-8.1c1.6-2.4,4.1-4,7.5-4.8c3.9-0.9,7.1-0.4,9.6,1.4c2,1.5,3.3,3.5,3.9,6.2
			c0.7,3,0.2,5.7-1.3,8.1c-1.6,2.4-4.1,4-7.6,4.8c-3.1,0.7-5.9,0.5-8.2-0.7C121.1,79,119.3,76.6,118.6,73.4z M126.1,71.7
			c0.4,1.7,1,2.9,1.9,3.6c0.9,0.7,1.9,0.9,2.9,0.6c1.1-0.2,1.9-0.9,2.4-1.8c0.5-1,0.6-2.4,0.1-4.2c-0.4-1.7-1-2.9-1.9-3.5
			c-0.9-0.7-1.8-0.9-2.9-0.7c-1.1,0.2-1.9,0.9-2.4,1.9C125.8,68.6,125.7,70,126.1,71.7z"/>
		<path class="st8" d="M148.6,84.7l-6.1-27l7-1.6l0.7,2.9c0.7-1.4,1.4-2.5,2.1-3.1c1-0.8,2.1-1.4,3.4-1.7c2.6-0.6,4.9-0.1,6.7,1.6
			c1.9,1.7,3.2,4,3.8,6.9c0.7,3.3,0.5,5.9-0.6,8c-1.2,2.1-2.9,3.4-5.3,3.9c-1.2,0.3-2.2,0.3-3.3,0.1c-1-0.2-2-0.6-2.9-1.2l2.1,9.3
			L148.6,84.7z M152.2,65.8c0.4,1.5,0.9,2.6,1.8,3.2c0.8,0.6,1.7,0.8,2.7,0.6c0.9-0.2,1.5-0.7,1.9-1.6s0.4-2.1,0.1-3.9
			c-0.4-1.6-0.9-2.7-1.7-3.3c-0.8-0.6-1.6-0.8-2.5-0.6c-1,0.2-1.7,0.8-2.1,1.7C151.9,62.8,151.8,64.1,152.2,65.8z"/>
		<path class="st8" d="M169.4,66.4l7.3-2.4c0.5,0.8,1.1,1.3,1.7,1.6c0.6,0.3,1.4,0.3,2.3,0.1c1-0.2,1.7-0.6,2.2-1.2
			c0.4-0.4,0.5-0.9,0.4-1.3c-0.1-0.5-0.5-0.9-1.1-1.1c-0.5-0.1-1.6-0.1-3.4,0c-2.7,0.1-4.6,0.1-5.7,0c-1.1-0.2-2.1-0.6-3-1.4
			s-1.5-1.7-1.8-2.9c-0.3-1.3-0.2-2.5,0.4-3.6c0.5-1.1,1.4-2,2.6-2.8c1.2-0.8,2.9-1.4,5.1-1.9c2.3-0.5,4.1-0.7,5.3-0.6
			s2.2,0.4,3.2,1c0.9,0.6,1.8,1.5,2.5,2.6l-6.9,2.3c-0.3-0.6-0.7-1-1.2-1.2c-0.7-0.3-1.4-0.3-2.3-0.1c-0.8,0.2-1.4,0.5-1.7,0.9
			s-0.4,0.8-0.3,1.2c0.1,0.5,0.4,0.8,1,0.9c0.5,0.1,1.7,0.1,3.4-0.1c2.6-0.3,4.5-0.3,5.8-0.1c1.3,0.2,2.4,0.7,3.3,1.5
			c0.9,0.8,1.4,1.7,1.7,2.9c0.3,1.1,0.2,2.3-0.3,3.5c-0.4,1.2-1.3,2.3-2.6,3.3s-3.2,1.7-5.8,2.3c-3.6,0.8-6.2,0.9-8,0.2
			C171.6,69.4,170.3,68.2,169.4,66.4z"/>
		<path class="st8" d="M193.8,41.7h8.2V48l-1.5,12.7h-5.1L193.8,48L193.8,41.7z M194.2,62.6h7.7v6.8h-7.7V62.6z"/>
	</g>
</g>
<g id="_x34_04">
	<g>
		<g>
			<path class="st8" d="M128.7,127.7c-0.1,0-0.1,0-0.2,0c-4.5-1.7-7.2-3.4-8.6-5.5c-1,0.2-2.2,0.1-3.2-0.4s-2.1-1.4-2.8-2.6
				c-0.7,0.5-1.5,0.7-2.4,0.4c-1-0.3-2.1-1.2-3-2.4c-0.6,0.4-1.1,0.5-1.6,0.4c-3-0.2-7-6.2-7.3-12.5c0-0.3,0.2-0.5,0.5-0.5
				s0.5,0.2,0.5,0.5c0.3,6,4.1,11.3,6.4,11.5c0.4,0,0.7-0.1,0.9-0.3c-1.4-2.4-2.1-5.8-1-9.4c0.9-3,1.6-4.2,2.5-4
				c1.7,0.4,1.5,7,0.6,11.3c-0.2,1-0.5,1.7-0.8,2.2c0.8,1.2,1.7,1.9,2.5,2.2c0.7,0.2,1.3,0,1.7-0.3c-0.8-1.9-0.9-4.6,0.1-7.9
				c1.4-4.4,2-4.5,2.3-4.6c0.2-0.1,0.5,0,0.6,0.2c0.9,1-0.2,7.9-1.3,11.3c-0.2,0.4-0.3,0.8-0.6,1.2c0.6,1.2,1.5,2,2.5,2.5
				c0.8,0.4,1.6,0.5,2.3,0.4c-0.1-0.2-0.2-0.4-0.2-0.6c-0.8-2.1-0.4-4.6,1.2-7.6c1.1-2,1.9-2.9,2.7-2.9l0,0c0.2,0,0.7,0.1,1,0.7
				c0.9,1.6,0.2,6.9-1.5,9.6c-0.4,0.6-1,1.1-1.6,1.4c1.3,1.8,3.9,3.3,7.9,4.9c0.3,0.1,0.4,0.4,0.3,0.6
				C129.1,127.6,128.9,127.7,128.7,127.7z M123,111.2c0,0-0.6,0-1.8,2.3c-1.4,2.7-1.8,4.9-1.1,6.8c0.1,0.2,0.2,0.5,0.3,0.7
				c0.5-0.2,1-0.6,1.3-1.1c1.4-2.1,2.1-6.5,1.5-8.3C123.1,111.3,123,111.2,123,111.2z M115.9,107c-0.3,0.5-0.7,1.5-1.3,3.5
				c-0.9,2.7-0.9,4.9-0.4,6.5c0-0.1,0.1-0.2,0.1-0.3C115.4,113.4,116,108.6,115.9,107z M109.3,103.8c-0.2,0.2-0.7,0.8-1.4,3.2
				c-0.9,3.2-0.4,6.1,0.7,8.2c0.2-0.4,0.4-0.9,0.5-1.4C110.1,109,109.8,104.6,109.3,103.8z"/>
			<path class="st8" d="M166.7,180.1c-1.5,0-3.1-0.3-4.6-1.2c-0.2-0.1-0.3-0.4-0.2-0.7c0.1-0.2,0.4-0.3,0.7-0.2
				c3.6,2.1,8.2,0.6,9.1-0.9c0.1-0.2,0.2-0.4,0.1-0.7c-1.4,0.1-3.1-0.2-5.1-1.5c-2.5-1.6-2.7-2.1-2.7-2.4c0-0.2,0.1-0.4,0.3-0.5
				c1-0.5,5.5,1.6,7.4,2.8c0.2,0.2,0.5,0.3,0.6,0.5c0.8-0.2,1.5-0.6,1.9-1.1c0.3-0.4,0.5-0.7,0.6-1.1c-0.1,0-0.1,0-0.2,0
				c-1.6,0.2-3.2-0.5-4.9-2.1c-1.2-1.1-1.6-1.8-1.5-2.4c0-0.2,0.2-0.5,0.7-0.7c1.4-0.3,4.8,1.1,6.2,2.6c0.3,0.3,0.5,0.7,0.6,1.2
				c1.3-0.6,2.7-2,4.3-4.3c0.2-0.2,0.5-0.3,0.7-0.1s0.3,0.5,0.1,0.7c-1.9,2.6-3.5,4.1-5,4.7c-0.1,0.7-0.4,1.4-0.9,2
				s-1.2,1.1-2.2,1.4c0.1,0.5,0,0.9-0.3,1.4C171.8,179,169.4,180.1,166.7,180.1z M165.8,173.2c0.3,0.2,0.8,0.6,1.5,1
				c1.4,0.8,2.6,1.2,3.6,1.3C169.3,174.5,167.1,173.6,165.8,173.2z M169.3,168.9c0.1,0.2,0.3,0.6,1.2,1.4c1.5,1.4,2.8,2,4.1,1.8
				c0.1,0,0.2,0,0.3,0c-0.1-0.3-0.2-0.6-0.4-0.8C173.1,169.7,170,168.8,169.3,168.9z"/>
			<path class="st5" d="M179.9,178.7l-15.6,2.8l-14.1-77.2l-30.1,5.5l-49,87l5.3,28.7l62.8-11.4l4.3,23.5l30.1-5.5l-4.3-23.5
				l15.6-2.8L179.9,178.7z M101.1,193l26-45.6l7.2,39.5L101.1,193z"/>
		</g>
		<g>
			<path class="st5" d="M305.4,99.1c-0.6-5.3-1.6-10.1-3.2-14.2c-1.5-4.1-3.9-8.2-7-12.2s-7.3-7.4-12.7-10.4
				c-5.4-2.9-12.4-5-21.2-6.1c-18.3-2.4-32.6,0.9-42.8,9.7c-10.2,8.9-17,25.9-20.2,51c-1.3,10.2-1.6,19.7-1,28.3
				c0.7,8.7,2.3,15.7,4.8,20.9c3.5,7.4,8.3,13.3,14.6,17.8c6.3,4.4,15,7.4,25.9,8.8c19.6,2.6,34.1-1.2,43.6-11.3
				c9.4-10.1,15.7-27.1,18.8-51.1C306.5,119.7,306.6,109.3,305.4,99.1z"/>
			<path class="st8" d="M251.8,182.5c-2.4-0.1-5-0.3-7.6-0.6c-9.2-1.2-16.2-3.5-21.1-6.9c-4.8-3.3-8.3-7.7-11-13.4v-0.1
				c-1.9-4-3.2-9.8-3.7-17c-0.6-7.9-0.3-16.7,0.9-26.1c3.6-27.7,10.9-39.3,16.5-44.1c6.5-5.6,15.2-8.2,26.7-7.8
				c2.4,0.1,4.9,0.3,7.4,0.6c7.4,1,13.2,2.6,17.4,4.9c4,2.2,7.1,4.7,9.3,7.5c2.4,3.1,4.2,6.2,5.4,9.3c1.2,3.3,2.1,7.2,2.6,11.6
				c1.1,9.3,1,19-0.3,28.7c-2.8,21.5-8.1,36.7-15.9,45C272.5,180.2,263.8,182.9,251.8,182.5L251.8,182.5z"/>
			<g>
				<path class="st5" d="M271.3,99.4l0.1-3.8l-2.3-0.8c-0.1-1.3-0.3-2.6-0.6-3.8l2-1.5l-1.3-3.6l-2.4,0.2c-0.6-1.2-1.3-2.2-2-3.3
					l1.3-2.1l-2.6-2.8l-2.2,1.1c-1-0.8-2-1.6-3.1-2.3l0.4-2.4l-3.5-1.6l-1.6,1.9c-1.2-0.4-2.5-0.7-3.8-0.9l-0.6-2.4l-3.8-0.1
					l-0.8,2.3c-1.3,0.1-2.6,0.3-3.8,0.6l-1.5-2l-3.6,1.3l0.2,2.4c-1.2,0.6-2.2,1.3-3.3,2l-2.1-1.3l-2.8,2.6l1.1,2.2
					c-0.8,1-1.6,2-2.2,3.1l-2.4-0.4l-1.6,3.5l1.9,1.6c-0.4,1.2-0.7,2.5-0.9,3.8l-2.4,0.6l-0.1,3.8l2.3,0.8c0.1,1.3,0.3,2.6,0.6,3.8
					l-2,1.5l1.3,3.6l2.4-0.2c0.6,1.2,1.3,2.2,2,3.3l-1.3,2.1l2.6,2.8l2.2-1.1c1,0.8,2,1.6,3.1,2.3l-0.4,2.4l3.5,1.6l1.6-1.9
					c1.2,0.4,2.5,0.7,3.8,0.9l0.6,2.4l3.8,0.1l0.8-2.3c1.3-0.1,2.6-0.3,3.8-0.6l1.5,2l3.6-1.3l-0.2-2.4c1.2-0.6,2.2-1.3,3.3-2
					l2.1,1.3l2.8-2.6l-1.1-2.2c0.8-1,1.6-2,2.2-3.1l2.4,0.4l1.6-3.5l-1.9-1.6c0.4-1.2,0.7-2.5,0.9-3.8L271.3,99.4z M245.7,111.7
					c-8.3-0.3-14.8-7.2-14.5-15.5s7.2-14.8,15.5-14.5s14.8,7.2,14.5,15.5C261,105.4,254,111.9,245.7,111.7z"/>
			</g>
			<g>
				<path class="st9" d="M287.1,169l0.3-2.6l-1.5-0.6c0-0.9-0.1-1.7-0.2-2.6l1.4-0.9l-0.7-2.5h-1.7c-0.3-0.8-0.7-1.6-1.2-2.3
					l0.9-1.4l-1.6-2l-1.5,0.6c-0.6-0.6-1.3-1.2-2-1.7l0.4-1.6l-2.3-1.2l-1.2,1.2c-0.8-0.3-1.6-0.6-2.5-0.8l-0.3-1.6l-2.6-0.3
					l-0.6,1.5c-0.9,0-1.7,0.1-2.6,0.2l-0.9-1.4l-2.5,0.7v1.7c-0.8,0.3-1.6,0.7-2.3,1.2l-1.4-1l-2,1.6l0.6,1.5
					c-0.6,0.6-1.2,1.3-1.7,2l-1.6-0.4l-1.2,2.3l1.2,1.2c-0.3,0.8-0.6,1.6-0.8,2.5l-1.6,0.3l-0.3,2.6l1.5,0.6c0,0.9,0.1,1.7,0.2,2.6
					l-1.4,0.9l0.7,2.5h1.7c0.3,0.8,0.7,1.6,1.2,2.3l-1,1.4l1.6,2l1.5-0.6c0.6,0.6,1.3,1.2,2,1.7l-0.1,1.5l2.3,1.2l1.2-1.2
					c0.8,0.3,1.6,0.6,2.5,0.8l0.3,1.6l2.6,0.3l0.6-1.5c0.9,0,1.7-0.1,2.6-0.2l0.9,1.4l2.5-0.7v-1.7c0.8-0.3,1.6-0.7,2.3-1.2l1.3,1
					l2-1.6l-0.6-1.5c0.6-0.6,1.2-1.3,1.7-2l1.6,0.4l1.2-2.3l-1.2-1.2c0.3-0.8,0.6-1.6,0.8-2.5L287.1,169z M274.2,168
					c-1.2,2.2-3.9,3-6.1,1.8s-2.9-3.9-1.8-6.1c1.2-2.2,3.9-2.9,6.1-1.8C274.6,163.1,275.4,165.8,274.2,168z"/>
			</g>
			<path class="st10" d="M301.3,125.7l-3-2.1l0,0c-0.3-1.1-0.7-2.1-1.2-3.1l0.8-3l-4.3-4.6l-3,0.6c-0.9-0.6-2-1-3-1.4l0,0l-1.9-3.1
				l-6.3-0.2l-2.1,3l0,0c-1.1,0.3-2.1,0.7-3.1,1.2l-3-0.8l-4.6,4.3l0.6,3l0,0c-0.6,1-1,2-1.4,3l-3.1,1.8l-0.2,6.3l3,2.1
				c0.3,1.1,0.7,2.1,1.2,3.1l0,0l-0.8,3l4.3,4.6l3-0.6c1,0.6,2,1,3,1.4l0,0l1.8,3.1l6.3,0.2l2.1-3c1.1-0.3,2.1-0.7,3.1-1.2l0,0
				l3,0.8l4.6-4.3l-0.6-3c0.6-1,1-2,1.4-3l0,0l3.1-1.9L301.3,125.7z M281.6,135.4c-3.9-0.1-7-3.4-6.9-7.4c0.1-3.9,3.4-7,7.4-6.9
				c3.9,0.1,7,3.4,6.9,7.4C288.8,132.4,285.5,135.5,281.6,135.4z"/>
			<path class="st5" d="M323,75.2l0.5-1.3l0,0c0.4-0.2,0.7-0.4,1-0.7h1.2l1.4-2l-0.4-1.1c0.1-0.4,0.2-0.8,0.3-1.2l0,0l1-0.9
				l-0.4-2.3l-1.3-0.5l0,0c-0.2-0.4-0.4-0.7-0.7-1V63l-2-1.4l-1.1,0.4l0,0c-0.4-0.1-0.8-0.2-1.2-0.3l-0.9-1l-2.3,0.4l-0.5,1.3
				c-0.4,0.2-0.7,0.4-1.1,0.7l0,0h-1.2l-1.4,2l0.4,1.1c-0.1,0.4-0.2,0.8-0.3,1.2l0,0l-1,0.9l0.4,2.3l1.3,0.5
				c0.2,0.4,0.4,0.7,0.7,1.1l0,0v1.2l2,1.4l1.1-0.4c0.4,0.1,0.8,0.2,1.2,0.3l0,0l0.9,1L323,75.2z M318,68.7
				c-0.3-1.5,0.7-2.8,2.2-3.1c1.5-0.3,2.8,0.7,3.1,2.2s-0.7,2.8-2.2,3.1C319.6,71.2,318.2,70.2,318,68.7z"/>
			<path class="st5" d="M295.6,68.6l-0.8-0.6c1.3-1.6,3.2-3.6,6-5l0.5,0.9C298.3,65.4,296.4,67.6,295.6,68.6z"/>
			<path class="st5" d="M303.6,62.9l-0.4-0.9c3.8-1.6,7.7-2.3,11.7-1.9l-0.1,1C311,60.7,307.2,61.3,303.6,62.9z"/>
			<path class="st5" d="M301.7,69.8l-0.8-0.6c2.1-3,6.1-5.6,9.9-6.4l0.2,1C307.4,64.5,303.6,67,301.7,69.8z"/>
			<path class="st10" d="M235.3,166.1c-0.1,0-0.3-0.1-0.4-0.2l-2.1-2.2c-1.1-0.1-2.1-0.3-3.1-0.6l-3.3,1.4c-0.2,0.1-0.3,0.1-0.5,0
				l-5.5-3.6c-0.1-0.1-0.2-0.3-0.2-0.4l0.1-3.6c-0.7-0.8-1.3-1.7-1.8-2.7l-2.8-1.1c-0.2-0.1-0.3-0.2-0.3-0.4l-1.3-6.4
				c0-0.2,0-0.3,0.1-0.5l2.2-2.1c0.1-1.1,0.3-2.1,0.6-3.1l-1.4-3.3c-0.1-0.2-0.1-0.3,0-0.5l3.6-5.5c0.1-0.1,0.2-0.2,0.4-0.2l3.6,0.1
				c0.8-0.7,1.7-1.3,2.7-1.8l1.1-2.8c0.1-0.2,0.2-0.3,0.4-0.3l6.4-1.3c0.2,0,0.3,0,0.5,0.1l2.1,2.2c1.1,0.1,2.1,0.3,3.2,0.6l3.3-1.4
				c0.2-0.1,0.3-0.1,0.5,0l5.5,3.6c0.1,0.1,0.2,0.3,0.2,0.4l-0.1,3.6c0.7,0.8,1.3,1.7,1.8,2.7l2.8,1.1c0.2,0.1,0.3,0.2,0.3,0.4
				l1.3,6.4c0,0.2,0,0.3-0.1,0.5l-2.2,2.1c-0.1,1.1-0.3,2.1-0.6,3.1l1.4,3.3c0.1,0.2,0.1,0.3,0,0.5l-3.6,5.5
				c-0.1,0.1-0.2,0.2-0.4,0.2l-3.6-0.1c-0.8,0.7-1.7,1.3-2.7,1.8l-1.1,2.8c-0.1,0.2-0.2,0.3-0.4,0.3L235.3,166.1
				C235.4,166.1,235.4,166.1,235.3,166.1z M229.7,162.1h0.1c1.1,0.3,2.2,0.5,3.3,0.6c0.1,0,0.2,0.1,0.3,0.2l2,2.1l5.9-1.2l1.1-2.7
				c0-0.1,0.1-0.2,0.2-0.3c1-0.5,2-1.1,2.8-1.9c0.1-0.1,0.2-0.1,0.3-0.1l3.5,0.1l3.3-5l-1.4-3.2c0-0.1-0.1-0.2,0-0.3
				c0.3-1.1,0.5-2.2,0.6-3.3c0-0.1,0.1-0.2,0.1-0.3l2.1-2l-1.2-5.9l-2.7-1.1c-0.1,0-0.2-0.1-0.3-0.2c-0.5-1-1.1-1.9-1.9-2.8
				c-0.1-0.1-0.1-0.2-0.1-0.3l0.1-3.5l-5-3.3l-3.2,1.4c-0.1,0-0.2,0.1-0.3,0c-1.1-0.3-2.2-0.5-3.3-0.6c-0.1,0-0.2-0.1-0.3-0.1
				l-2-2.1l-5.9,1.2l-1.1,2.7c0,0.1-0.1,0.2-0.2,0.3c-1,0.5-1.9,1.1-2.8,1.9c-0.1,0.1-0.2,0.1-0.3,0.1l-3.5-0.1l-3.3,5l1.4,3.2
				c0.1,0.1,0.1,0.3,0,0.4c-0.3,1-0.5,2.1-0.6,3.2c0,0.1-0.1,0.2-0.1,0.3l-2.1,2l1.2,5.9l2.7,1.1c0.1,0,0.2,0.1,0.3,0.3
				c0.5,1,1.1,1.9,1.8,2.8c0.1,0.1,0.1,0.2,0.1,0.3l-0.1,3.5l5,3.3l3.2-1.4C229.6,162.1,229.6,162.1,229.7,162.1z M234.6,158.9
				c-2.5,0-5.1-0.7-7.3-2.2c-3-2-5-5-5.7-8.5s0-7,1.9-10l0,0c4.1-6.1,12.4-7.8,18.5-3.8c6.1,4.1,7.8,12.3,3.7,18.5
				C243.2,156.8,238.9,158.9,234.6,158.9z M224.4,138.8c-1.8,2.7-2.5,6-1.8,9.3c0.7,3.2,2.5,6,5.3,7.8c5.7,3.8,13.3,2.2,17.1-3.5
				s2.2-13.3-3.5-17.1S228.1,133.1,224.4,138.8L224.4,138.8z"/>
		</g>
		<g>
			<path class="st5" d="M425.8,187.7l-15.7-2.1l10.4-77.8l-30.3-4.1l-73.5,67.6l-3.9,28.9l63.3,8.5l-3.2,23.7l30.3,4.1l3.2-23.7
				l15.7,2.1L425.8,187.7z M346.4,177l38.8-35.3l-5.3,39.8L346.4,177z"/>
			<path class="st8" d="M394.1,235.8L394.1,235.8c-0.4-0.1-0.5-0.3-0.5-0.6L417,107.3c0-0.3,0.3-0.4,0.6-0.4c0.3,0,0.5,0.3,0.4,0.6
				l-23.3,127.9C394.6,235.7,394.4,235.8,394.1,235.8z"/>
			<g>
				<path class="st8" d="M414.8,109.5c0,0.5-0.4,0.8-0.8,0.8c-0.5,0-0.8-0.4-0.8-0.8s0.4-0.8,0.8-0.8
					C414.5,108.6,414.8,109,414.8,109.5z"/>
				<path class="st8" d="M411.5,126.8c0,0.5-0.4,0.8-0.8,0.8s-0.8-0.4-0.8-0.8s0.4-0.8,0.8-0.8C411.2,125.9,411.5,126.3,411.5,126.8
					z"/>
				<path class="st8" d="M408.2,144.1c0,0.5-0.4,0.8-0.8,0.8s-0.8-0.4-0.8-0.8s0.4-0.8,0.8-0.8C407.8,143.2,408.2,143.6,408.2,144.1
					z"/>
				<path class="st8" d="M401.6,162.1c0,0.5-0.4,0.8-0.8,0.8c-0.5,0-0.8-0.4-0.8-0.8s0.4-0.8,0.8-0.8S401.6,161.6,401.6,162.1z"/>
				<path class="st8" d="M401.5,178.7c0,0.5-0.4,0.8-0.8,0.8c-0.5,0-0.8-0.4-0.8-0.8s0.4-0.8,0.8-0.8
					C401.2,177.8,401.5,178.2,401.5,178.7z"/>
				<path class="st8" d="M398.2,196c0,0.5-0.4,0.8-0.8,0.8s-0.8-0.4-0.8-0.8c0-0.5,0.4-0.8,0.8-0.8S398.2,195.5,398.2,196z"/>
				<path class="st8" d="M394.8,213.3c0,0.5-0.4,0.8-0.8,0.8c-0.5,0-0.8-0.4-0.8-0.8c0-0.5,0.4-0.8,0.8-0.8
					C394.5,212.4,394.9,212.8,394.8,213.3z"/>
				<path class="st8" d="M391.5,230.6c0,0.5-0.4,0.8-0.8,0.8s-0.8-0.4-0.8-0.8s0.4-0.8,0.8-0.8S391.5,230.1,391.5,230.6z"/>
			</g>
			<path class="st8" d="M400.8,162.6c-0.2,0-0.4-0.2-0.5-0.4c-0.1-0.3,0.1-0.5,0.4-0.6l2.5-0.5c0.3-0.1,0.5,0.1,0.6,0.4
				c0.1,0.3-0.1,0.5-0.4,0.6l-2.5,0.5H400.8z"/>
			<g>
				<path class="st8" d="M409.1,153.3c0,0-2.2,5.8-3,9.4c-0.8,3.5-0.8,11.4-0.8,11.4"/>
				<path class="st8" d="M405.3,174.6L405.3,174.6c-0.3,0-0.5-0.2-0.5-0.5s0.1-8,0.8-11.5c0.8-3.5,2.9-9.2,3-9.4
					c0.1-0.3,0.4-0.4,0.6-0.3c0.3,0.1,0.4,0.4,0.3,0.6c0,0.1-2.2,5.8-3,9.3c-0.7,3.4-0.8,11.2-0.8,11.3
					C405.8,174.4,405.6,174.6,405.3,174.6z"/>
			</g>
		</g>
	</g>
</g>
<g id="Character_1_">
	<g>
		<path class="st8" d="M222.5,260.9c1.4-22.4-1.2-63.1,40.9-57.7c45.1,5.8,32.2,58.6,32.2,58.6L222.5,260.9z"/>
		<g>
			<circle class="st10" cx="251.5" cy="229.1" r="18.4"/>
			<path class="st8" d="M253.9,210.8c-8.7-1.5-18,4.9-18.9,11.4l34.5,3.2C268.3,217.9,260.8,211.9,253.9,210.8z"/>
			<path class="st8" d="M265.6,228.6c-0.2,4.8-2.9,8.6-5.8,8.4s-5.2-4.2-5-9s2.9-8.6,5.8-8.4C263.6,219.8,265.8,223.8,265.6,228.6z"
				/>
			<path class="st5" d="M251.5,248.5c-10.7,0-19.4-8.7-19.4-19.4s8.7-19.4,19.4-19.4c10.7,0,19.4,8.7,19.4,19.4
				S262.2,248.5,251.5,248.5z M251.5,211.7c-9.6,0-17.4,7.8-17.4,17.4s7.8,17.4,17.4,17.4c9.6,0,17.4-7.8,17.4-17.4
				S261.1,211.7,251.5,211.7z"/>
		</g>
		<path class="st11" d="M290.5,260.4h-0.1c-0.3-0.1-0.4-0.3-0.4-0.6c0-0.1,3.2-13.7-0.1-27.4c-0.1-0.3,0.1-0.5,0.4-0.6
			s0.5,0.1,0.6,0.4c3.4,14,0.1,27.7,0.1,27.9C290.9,260.2,290.7,260.4,290.5,260.4z"/>
		<path class="st11" d="M287.7,224.9c-0.2,0-0.4-0.1-0.5-0.3c-1.3-2.8-2.9-5.4-4.7-7.7c-0.2-0.2-0.1-0.5,0.1-0.7s0.5-0.1,0.7,0.1
			c1.9,2.3,3.6,5,4.9,7.9c0.1,0.3,0,0.5-0.2,0.7C287.8,224.8,287.8,224.9,287.7,224.9z"/>
		<path class="st8" d="M128.7,366c-0.1,0-0.2,0-0.4,0c-2.8-0.1-4.9-2.4-4.9-5.1c0.1-2.8,2.3-4.9,5.1-4.9h0.1
			c2.9,0,9.8-3.5,24.4-26.4c0.8-1.2,2.1-2.1,3.5-2.3c1.4-0.2,2.9,0.2,4,1.2c17.9,15.6,37,25.4,37.1,25.5c2.5,1.3,3.4,4.3,2.2,6.7
			c-1.3,2.5-4.3,3.4-6.7,2.2c-0.8-0.4-17.4-8.9-34.8-23.1C146.3,358.1,137.2,366,128.7,366z"/>
		<path class="st8" d="M159.7,327.6c-0.1,0-0.3,0-0.4,0c-1.6-0.2-2.8-1.8-2.5-3.4c0.7-5-0.2-23.6-6.5-38.1c-0.6-1.3-0.1-2.9,1.1-3.7
			c13.7-9.3,42.9-10.5,44.1-10.5c1.6,0,3,1.2,3.1,2.9c0.1,1.7-1.2,3-2.9,3.1c-0.3,0-25.8,1-38.9,8.2c5.6,14.4,6.8,32.4,5.9,38.9
			C162.4,326.5,161.1,327.6,159.7,327.6z"/>
		<path class="st5" d="M164.7,323.7c-2-4.7-11-4.2-16.3-0.1c-2.8,2.2-6.6,8.6-7,11s1.2,4.5,4,4.2c3.4-0.3,8.2-5.3,8.2-5.3
			c-3.1,3.1,0.9,5.3,7,0.8C163.9,331.8,166.9,329,164.7,323.7z"/>
		<path class="st8" d="M336.7,262.3h-0.1c-0.3-0.1-0.4-0.4-0.3-0.6c1.3-4.6,2.8-7.5,4.7-9.1c-0.3-1-0.3-2.1,0.2-3.3
			c0.4-1.1,1.2-2.2,2.4-3c-0.6-0.6-0.8-1.4-0.6-2.4c0.2-1,1-2.2,2.1-3.2c-0.5-0.5-0.6-1.1-0.6-1.5c0-3,5.5-7.5,11.8-8.4
			c0.3-0.1,0.5,0.2,0.6,0.4c0,0.3-0.2,0.5-0.4,0.6c-5.9,0.8-10.9,5.1-10.9,7.4c0,0.4,0.1,0.7,0.4,0.9c2.3-1.6,5.6-2.6,9.3-1.9
			c3.1,0.6,4.3,1.2,4.2,2.2c-0.3,1.8-6.8,2.1-11.2,1.6c-1-0.1-1.7-0.4-2.3-0.6c-1.1,0.9-1.8,1.9-2,2.7c-0.2,0.7,0.1,1.3,0.5,1.6
			c1.9-1,4.5-1.4,7.9-0.6c4.5,1,4.7,1.6,4.8,1.9c0.1,0.2,0,0.5-0.2,0.7c-1,1-7.9,0.5-11.4-0.3c-0.5-0.1-0.9-0.3-1.2-0.5
			c-1.2,0.7-1.9,1.7-2.3,2.7c-0.3,0.8-0.4,1.6-0.2,2.3c0.2-0.1,0.4-0.2,0.6-0.3c2.1-1,4.6-0.8,7.7,0.5c2,0.9,3,1.7,3.1,2.4
			c0,0.2,0,0.7-0.6,1c-1.5,1-6.9,0.9-9.6-0.6c-0.7-0.3-1.2-0.9-1.5-1.5c-1.6,1.5-3,4.2-4.2,8.4C337.1,262.1,336.9,262.3,336.7,262.3
			z M342.1,252.9c0.3,0.5,0.7,0.9,1.2,1.2c2.3,1.2,6.7,1.5,8.4,0.8c0.3-0.1,0.4-0.3,0.4-0.3s-0.1-0.6-2.5-1.6
			c-2.8-1.2-5-1.4-6.8-0.5C342.6,252.7,342.3,252.8,342.1,252.9z M345.5,246.4c0.1,0,0.2,0,0.3,0.1c3.5,0.9,8.3,1,9.9,0.7
			c-0.5-0.2-1.5-0.6-3.6-1C349.2,245.5,347.1,245.7,345.5,246.4z M346.7,240.7c0.5,0.2,1,0.3,1.4,0.3c5,0.6,9.4-0.1,10-0.7
			c-0.2-0.2-0.8-0.6-3.3-1.1C351.6,238.7,348.7,239.5,346.7,240.7z"/>
		<path class="st8" d="M206.5,364.3c0.7-0.2,0.4-0.8-0.3-0.8h-13.5c-25.8-2.7-43.8,0.9-32.4,1.8s-0.8,0.7-9.1,3.8
			c-8.3,3.1,61.7,3.9,68,0C225,365.5,197.4,367.3,206.5,364.3z"/>
		<polygon class="st5" points="303.5,368.3 185.7,364.4 180.8,250.2 319.9,253.3 		"/>
		<path class="st8" d="M222.5,366.2c-0.3,0-0.5-0.2-0.5-0.5L212.6,251c0-0.3,0.2-0.5,0.5-0.5s0.5,0.2,0.5,0.5l9.4,114.7
			C223,365.9,222.8,366.1,222.5,366.2L222.5,366.2z"/>
		<g>
			<polygon class="st5" points="303.5,368.3 335.1,363.5 345.1,257.3 319.9,253.3 			"/>
			<polygon class="st12" points="303.5,368.3 335.1,363.5 345.1,257.3 319.9,253.3 			"/>
		</g>
		<path class="st8" d="M195.7,342.4l-2.9-67.9c-0.3-7.1,5.4-12.9,12.5-12.8l88.1,2c7.4,0.2,12.9,6.7,11.9,14l-9.8,68.4
			c-0.9,6.2-6.3,10.7-12.6,10.5l-75.4-2.5C201.2,353.9,196,348.8,195.7,342.4z"/>
		<g>
			<path class="st10" d="M205.2,282.6l13.6,0.4l-0.1,3.5l-8.5-0.3l-0.1,2.6l7.9,0.3l-0.1,3.4l-7.9-0.3l-0.1,3.2l8.8,0.3l-0.1,3.7
				l-13.9-0.4L205.2,282.6z"/>
			<path class="st10" d="M221.4,299.6l0.5-16.5l8.5,0.3c1.6,0,2.8,0.2,3.6,0.5s1.5,0.8,2,1.6c0.5,0.7,0.7,1.6,0.7,2.7
				c0,0.9-0.2,1.7-0.7,2.3c-0.4,0.6-1,1.2-1.7,1.6c-0.4,0.2-1,0.4-1.8,0.6c0.6,0.2,1,0.4,1.3,0.6c0.2,0.1,0.4,0.4,0.8,0.9
				c0.3,0.5,0.6,0.8,0.7,1l2.3,4.8l-5.7-0.2l-2.6-5.1c-0.3-0.7-0.6-1.1-0.9-1.3c-0.4-0.3-0.8-0.4-1.2-0.4h-0.4l-0.2,6.7L221.4,299.6
				z M226.8,289.9l2.1,0.1c0.2,0,0.7-0.1,1.4-0.2c0.3-0.1,0.6-0.2,0.8-0.5s0.3-0.6,0.4-0.9c0-0.5-0.1-0.9-0.5-1.2
				c-0.3-0.3-1-0.5-1.9-0.5l-2.2-0.1L226.8,289.9z"/>
			<path class="st10" d="M239.3,300.1l0.5-16.5l8.5,0.3c1.6,0,2.8,0.2,3.6,0.5s1.5,0.8,2,1.6c0.5,0.7,0.7,1.6,0.7,2.7
				c0,0.9-0.2,1.7-0.7,2.3c-0.4,0.6-1,1.2-1.7,1.6c-0.4,0.2-1,0.4-1.8,0.6c0.6,0.2,1,0.4,1.3,0.6c0.2,0.1,0.4,0.4,0.8,0.9
				c0.3,0.5,0.6,0.8,0.7,1l2.3,4.8l-5.7-0.2l-2.6-5.1c-0.3-0.7-0.6-1.1-0.9-1.3c-0.4-0.3-0.8-0.4-1.2-0.4h-0.4l-0.2,6.7L239.3,300.1
				z M244.7,290.5l2.1,0.1c0.2,0,0.7-0.1,1.4-0.2c0.3-0.1,0.6-0.2,0.8-0.5s0.3-0.6,0.4-0.9c0-0.5-0.1-0.9-0.5-1.2
				c-0.3-0.3-1-0.5-1.9-0.5l-2.2-0.1L244.7,290.5z"/>
			<path class="st10" d="M256.3,292.5c0.1-2.7,0.9-4.8,2.4-6.2c1.5-1.4,3.7-2.1,6.3-2c2.7,0.1,4.8,0.9,6.3,2.4
				c1.4,1.5,2.1,3.6,2,6.2c-0.1,1.9-0.4,3.5-1.1,4.7s-1.7,2.1-2.9,2.8c-1.2,0.6-2.8,0.9-4.6,0.9c-1.9-0.1-3.4-0.4-4.6-1
				s-2.2-1.6-2.9-2.9C256.6,296,256.3,294.4,256.3,292.5z M261.4,292.6c-0.1,1.7,0.2,2.9,0.8,3.6c0.6,0.7,1.4,1.1,2.5,1.2
				c1.1,0,1.9-0.3,2.6-1c0.6-0.7,1-2,1-3.8c0-1.5-0.2-2.7-0.8-3.4c-0.6-0.7-1.4-1.1-2.5-1.2c-1,0-1.9,0.3-2.5,1
				C261.8,289.8,261.5,291,261.4,292.6z"/>
			<path class="st10" d="M275.9,301.3l0.5-16.5l8.5,0.3c1.6,0.1,2.8,0.2,3.6,0.5c0.8,0.3,1.5,0.8,2,1.6c0.5,0.7,0.7,1.6,0.7,2.7
				c0,0.9-0.2,1.7-0.7,2.3c-0.4,0.6-1,1.2-1.7,1.6c-0.4,0.2-1,0.4-1.8,0.6c0.6,0.2,1,0.4,1.3,0.6c0.2,0.1,0.4,0.4,0.8,0.9
				c0.3,0.5,0.6,0.8,0.7,1l2.3,4.8l-5.7-0.2l-2.6-5.1c-0.3-0.7-0.6-1.1-0.9-1.3c-0.4-0.3-0.8-0.4-1.2-0.4h-0.4l-0.2,6.7L275.9,301.3
				z M281.3,291.7l2.1,0.1c0.2,0,0.7-0.1,1.4-0.2c0.3-0.1,0.6-0.2,0.8-0.5c0.2-0.3,0.3-0.6,0.4-0.9c0-0.5-0.1-0.9-0.5-1.2
				c-0.3-0.3-1-0.5-1.9-0.5l-2.2-0.1L281.3,291.7z"/>
		</g>
		<path class="st10" d="M284,329.3c-0.4,0-0.7-0.1-1-0.4l-8.6-9.4l-9.2,8.4c-0.5,0.5-1.4,0.5-1.9-0.1l-8.6-9.4l-9.2,8.4
			c-0.5,0.5-1.4,0.5-1.9-0.1l-8.6-9.4l-9.2,8.4c-0.3,0.2-0.6,0.4-0.9,0.3c-0.3,0-0.7-0.2-0.9-0.4l-8.6-9.4l-9.2,8.4
			c-0.5,0.5-1.4,0.5-1.9-0.1c-0.5-0.5-0.5-1.4,0.1-1.9l10.2-9.3c0.5-0.5,1.4-0.5,1.9,0.1l8.6,9.4l9.2-8.4c0.3-0.2,0.6-0.4,0.9-0.3
			c0.3,0,0.7,0.2,0.9,0.4l8.6,9.4l9.2-8.4c0.5-0.5,1.4-0.5,1.9,0.1l8.6,9.4l9.2-8.4c0.5-0.5,1.4-0.5,1.9,0.1l9.5,10.4
			c0.5,0.5,0.5,1.4-0.1,1.9C284.6,329.1,284.3,329.3,284,329.3z"/>
		<g>
			<polygon class="st5" points="125.8,370.8 119.5,367.8 113.9,340.6 116.9,337.3 			"/>
			<g>
				<polygon class="st5" points="125.8,370.8 134.1,365.9 126.9,343.5 116.9,337.3 				"/>
				<polygon class="st12" points="125.8,370.8 134.1,365.9 126.9,343.5 116.9,337.3 				"/>
			</g>
		</g>
		<path class="st8" d="M261.9,375.7c-0.2,0-0.5,0-0.7,0c-2.8-0.1-4.9-2.4-4.9-5.1c0.1-2.8,2.4-4.9,5.1-4.9c7.7,0.3,24-4.5,33.3-13.5
			c0.6-0.6,1.3-1,2-1.2c15.8-4.7,21.7,4.8,21.9,5.2l-8.6,5.1c0,0,0,0.1,0.1,0.2c-0.1-0.1-2.3-3-9.5-1.2
			C289.2,370.9,271.2,375.7,261.9,375.7z"/>
		<g>
			<polygon class="st5" points="261.4,382.4 243.2,381.2 241.7,347.6 266.2,348.5 			"/>
			<g>
				<polygon class="st5" points="261.4,382.4 265.7,378.1 268.3,357.2 266.2,348.5 				"/>
				<polygon class="st12" points="261.4,382.4 265.7,378.1 268.3,357.2 266.2,348.5 				"/>
			</g>
		</g>
		<path class="st8" d="M366.9,369.6c-0.6,0-1.3-0.2-1.8-0.6c-10.4-7.9-24.4-21.9-29.8-35.5c-0.1-0.2-0.1-0.4-0.2-0.6
			c-2.6-15.6-5.1-48.5-5.2-49.9c-0.1-1.7,1.1-3.1,2.8-3.2c1.6-0.1,3.1,1.1,3.2,2.8c0,0.3,2.6,33.6,5.1,49.1
			c5.4,13.2,20,26.7,27.8,32.6c1.3,1,1.6,2.9,0.6,4.2C368.7,369.2,367.8,369.6,366.9,369.6z"/>
		<path class="st8" d="M380.8,371.2c-2.3,0-4.9-1.1-7.8-3.1c-1.3-1-1.6-2.8-0.7-4.2c1-1.3,2.8-1.6,4.2-0.7c2.5,1.8,3.8,2,4.3,2
			c1.7,0,3,1.3,3,3C383.8,369.8,382.4,371.2,380.8,371.2z"/>
		<path class="st5" d="M373.8,367.9c3.2-9.5,16.4-7.7,20.9-6.2c4.5,1.4,8.6,3.2,11.1,4.8c2.5,1.6,2.5,4.3-0.8,5.8
			c-4,1.9-14.2,0.2-14.2,0.2c5.2,2.3,0,6-9.2,2.4C378.6,373.7,372.7,371.4,373.8,367.9z"/>
		<path class="st8" d="M341.9,287.1c-1.2,8.1-7.9,14.1-13.4,13.3c-5.5-0.8-5.7-8-4.5-16.1s3.3-14,8.8-13.2
			C338.3,271.9,343.1,279,341.9,287.1z"/>
		<circle class="st8" cx="209.9" cy="254" r="0.8"/>
		<path class="st8" d="M218.2,259.9c0,0.5-0.4,0.8-0.8,0.8s-0.8-0.4-0.8-0.8c0-0.5,0.4-0.8,0.8-0.8S218.2,259.4,218.2,259.9z"/>
		<path class="st8" d="M219.1,356.8c0,0.5-0.4,0.8-0.8,0.8c-0.5,0-0.8-0.4-0.8-0.8c0-0.5,0.4-0.8,0.8-0.8
			C218.8,356,219.1,356.3,219.1,356.8z"/>
		<path class="st8" d="M226.6,362.7c0,0.5-0.4,0.8-0.8,0.8c-0.5,0-0.8-0.4-0.8-0.8c0-0.5,0.4-0.8,0.8-0.8
			C226.3,361.9,226.6,362.2,226.6,362.7z"/>
	</g>
</g>
<g id="Robot_Parts">
	<g>
		<path class="st8" d="M82.5,372.5c-2.4,0-5.6-1.4-7.3-3.9c-0.2-0.2-0.1-0.5,0.1-0.7s0.5-0.1,0.7,0.1c1.9,2.7,6,4.1,7.8,3.3
			c0.2-0.1,0.3-0.2,0.5-0.3c-1.6-0.8-3.1-2.2-3.5-4.5c-0.2-1.3-0.4-3,0.6-3.2c1.4-0.3,3.3,3.1,4,5.8c0.1,0.5,0.2,0.9,0.1,1.3
			c0.6,0.2,1.3,0.2,1.8,0.1c0.4-0.1,1-0.2,1.4-0.7c-1.2-0.8-2-2.3-2.3-4.2c-0.4-2.7-0.1-3.2,0.2-3.4c0.2-0.2,0.4-0.2,0.7-0.1
			c1.1,0.5,2.4,4.3,2.6,6.5c0,0.2,0,0.5,0,0.7c0.4,0.2,0.9,0.3,1.3,0.3c0.9,0,1.7-0.2,2.4-0.6c-0.1-0.1-0.3-0.2-0.4-0.3
			c-1-0.9-1.5-2.3-1.3-4.3c0.1-1.6,0.5-2.4,1.1-2.7c0.2-0.1,0.7-0.2,1.2,0.2c1.1,0.9,2.1,3.6,1.7,5.6c-0.1,0.4-0.3,0.8-0.5,1.2
			c1.8,0.3,4.4-0.2,6.6-0.7c0.3-0.1,0.5,0.1,0.6,0.4s-0.1,0.5-0.4,0.6c-2.7,0.7-5.6,1.2-7.7,0.6c-0.9,0.7-2.2,1.2-3.5,1.2
			c-0.6,0-1.1-0.1-1.6-0.3c-0.4,0.7-1.1,1.1-2.1,1.3c-0.7,0.1-1.4,0-2.2-0.2c-0.2,0.4-0.6,0.7-1,0.9
			C83.7,372.4,83.2,372.5,82.5,372.5z M81.6,364.2c-0.1,0.2-0.2,0.7,0.1,2c0.3,1.8,1.5,3.1,2.8,3.7c0-0.2,0-0.4-0.1-0.7
			C83.7,366.4,82.2,364.5,81.6,364.2z M87.2,363.4c0,0.4,0,1,0.2,2.1c0.2,1.4,0.7,2.5,1.5,3.2C88.7,366.6,87.8,364.3,87.2,363.4z
			 M93.5,362.5L93.5,362.5c0,0-0.4,0.2-0.5,1.9c-0.1,1.7,0.2,2.8,0.9,3.5c0.2,0.2,0.4,0.3,0.6,0.4c0.3-0.3,0.5-0.7,0.5-1
			c0.3-1.4-0.4-3.6-1.2-4.4C93.7,362.5,93.5,362.5,93.5,362.5z"/>
		<g>
			<polygon class="st8" points="228.9,380.1 231.6,375.4 228.9,370.7 226,370.7 227.6,375.4 226,380.1 			"/>
			<path class="st8" d="M226.2,377.8c-1.3,0-2.4-1.1-2.4-2.5c0-1.3,1.1-2.4,2.4-2.4l-4.6-0.9l-1.2,3.7l2.1,3.1L226.2,377.8z"/>
			<path class="st5" d="M226.6,370.7h-5.4l-2.7,4.7l2.7,4.7h5.4l2.7-4.7L226.6,370.7z M223.8,377.8c-1.3,0-2.4-1.1-2.4-2.5
				c0-1.3,1.1-2.4,2.4-2.4c1.4,0,2.4,1.1,2.4,2.4C226.3,376.7,225.2,377.8,223.8,377.8z"/>
		</g>
		<g>
			<polygon class="st5" points="417.9,370.4 415.9,366.9 417.9,363.4 420,363.4 418.8,366.9 420,370.4 			"/>
			<path class="st5" d="M419.9,368.7c1,0,1.8-0.8,1.8-1.8s-0.8-1.8-1.8-1.8l3.4-0.7l0.9,2.8l-1.5,2.3L419.9,368.7z"/>
			<path class="st8" d="M419.6,363.4h4l2,3.5l-2,3.5h-4l-2-3.5L419.6,363.4z M421.6,368.7c1,0,1.8-0.8,1.8-1.8s-0.8-1.8-1.8-1.8
				s-1.8,0.8-1.8,1.8C419.8,367.9,420.6,368.7,421.6,368.7z"/>
		</g>
		<g>
			<path class="st8" d="M342.9,375h4.5c1.2,0,2.1-1,2.1-2.1l0,0c0-1.2-1-2.1-2.1-2.1h-4.5c-1.2,0-2.1,1-2.1,2.1l0,0
				C340.8,374,341.8,375,342.9,375z"/>
			<path class="st5" d="M335.7,371c1.1-2.4,3.8-3.4,6-2.4s3.1,3.8,2,6.2s-3.8,3.4-6,2.4C335.5,376.1,334.6,373.3,335.7,371z"/>
			
				<rect x="334.7" y="372.2" transform="matrix(0.4265 -0.9045 0.9045 0.4265 -142.4147 521.1184)" class="st8" width="10.1" height="1.4"/>
		</g>
	</g>
</g>
</svg>
