<?xml version="1.0" encoding="utf-8"?>
<!-- Generator: Adobe Illustrator 24.0.2, SVG Export Plug-In . SVG Version: 6.00 Build 0)  -->
<svg version="1.1" id="Layer_1" xmlns="http://www.w3.org/2000/svg" xmlns:xlink="http://www.w3.org/1999/xlink" x="0px" y="0px"
	 viewBox="0 0 2760 2000" style="enable-background:new 0 0 2760 2000;" xml:space="preserve">
<style type="text/css">
	.st0{opacity:0.2;fill:#9BC1F9;}
	.st1{fill:#F7CC7F;}
	.st2{fill:#F7A491;}
	.st3{fill:#184655;}
	.st4{fill:#13375B;}
	.st5{fill:#3C8F7C;}
	.st6{fill:#50BFA5;}
	.st7{fill:#CAE1F9;}
	.st8{fill:#9BC1F9;}
	.st9{fill:#B75742;}
	.st10{fill:#FFFFFF;}
	.st11{fill:#215E4B;}
	.st12{fill:#327F6B;}
	.st13{fill:#F47458;}
	.st14{fill:#466EB6;}
	.st15{fill:#F8A492;}
	.st16{fill:#96D9C9;}
</style>
<g>
	<path class="st0" d="M406,1829.1h2089c173.2-141.2,84-566.1-60.6-652.2c-155.7-92.7,91.5-413.3-148.3-517.4
		c-156.6-68-405.6,6.1-372.1-175.7c46.4-252.1-496.5-316.7-896.5-248.7C585.1,308.5,980,669.7,504.4,742.5
		c-244.5,37.4-197.3,357.6-174.5,423.8c19.9,57.6,151.2,149-31.4,274.9C30.8,1625.8,399.6,1825.7,406,1829.1z"/>
	<path class="st1" d="M1654.2,835c-29.4-35.4-36.7-80.5-65.1-117c-10.5-13.5-31.1-29.4-46.4-37.2c-67.7-34.7-132.5,16.7-143.5,88.3
		c-5.9,38.2-5,86.4,6,136.2c10.7,0.1,21-0.2,30.9-0.6l5.1-32.3l6.7,31.3c58.8-5.6,120.1-21,154.8-37.6l-6.3-30.4l18.3,24.4
		C1630.4,851.8,1643.4,843.2,1654.2,835z"/>
	<path class="st2" d="M1291.4,1069.4l173.3-42.1c0,0,61.3-82.2,120.3-153c18.2,17.2,28.6,44.1,46.9,61.2L1502,1085.2
		c-4.7,5.4-11.4,8.6-18.6,8.7l-184.5,4.4L1291.4,1069.4z"/>
	<path class="st3" d="M1565.3,1021.7c0,0,82.4-67.8,100.1-98.5c17.7-30.7,4.6-82.1-25.9-90.2c-30.4-8.1-129.8,130.9-129.8,130.9
		L1565.3,1021.7z"/>
	<g>
		<path class="st2" d="M1240.7,1075.3c-1.8-2.8,2.7-7.5,6.2-11.1c3.8-3.9,26.7-13.9,30.6-15c3.9-1.2,37.3,3.5,50.1,7.7
			c12.8,4.2,21.2,2.5,21.2,2.5c3.4-0.7,8.4-1.6,12.3-2.4l8,29.8c-30-0.4-61.4,1.9-64.3,1.8c-9-0.2-25.6-9.7-29.4-11.1
			c-3.8-1.4-11.6-0.3-16.8,2.2c-5.2,2.4-20.4,8.3-23,6.9C1233.1,1085.2,1240.7,1075.3,1240.7,1075.3z"/>
	</g>
	<path class="st2" d="M1555.9,806.1c0,0,14.8-9.4,15.4-9.8c0.7-0.4,9.4,10.4,10.3,12.3c0.9,1.9,3.4,18.9,1.3,19.8
		c-2,0.9-13,6.5-14,5.4C1568,832.5,1555.9,806.1,1555.9,806.1z"/>
	<path class="st2" d="M1568.8,1773.8c1.6-14.7,1.5-37.1,0.4-62.9l51.1-1.7c-4.1,36.8-7.3,65.4-7.3,65.4l1.6,11.5l1.2,34.2
		l-111.7,3.7c0,0,23.4-11.4,55.9-33.5C1562.2,1788.8,1567.7,1783.7,1568.8,1773.8z"/>
	<path class="st4" d="M1617.1,1828.7l-116.2,3.8c-4.3-0.2-5.5-3.7-4.1-5.9c2.9-4.6,16.4-8.3,31.4-15.9c26.8,1.9,82.3-18.3,86.3-24.7
		C1617.4,1798.4,1619.5,1828.1,1617.1,1828.7z"/>
	<path class="st2" d="M1384,1757.1c6-13.4,12.9-34.8,19.9-59.7l49.1,14.3c-15.3,33.7-27.3,59.9-27.3,59.9l-2,11.5l-9.5,32.8
		l-107.3-31.3c0,0,25.8-3.6,63.5-14.5C1373.1,1769.4,1379.9,1766.2,1384,1757.1z"/>
	<path class="st4" d="M1412.9,1824.4l-111.6-32.5c-4-1.6-4-5.2-2-6.9c4.2-3.4,18.1-2.8,34.7-5.3c24.9,10.2,83.9,8.1,89.7,3.4
		C1422.6,1795.6,1415.3,1824.6,1412.9,1824.4z"/>
	<path class="st5" d="M1822.8,1206.4c0,0-206.9,19.7-277.6,43s-98.5,58.2-109.3,112.8c-10.7,54.6-54.6,344.8-54.6,344.8l71.6,9
		l74.3-195.2c0,0,65.4-220.3,69-220.3S1778,1270,1778,1270L1822.8,1206.4z"/>
	<path class="st6" d="M1982.2,1222.5c-18.9-89.5-193.4-10.7-193.4-10.7s-208.7-2.7-273.1,59.1c-64.5,61.8,45.7,464.8,45.7,464.8
		l63.6-5.2l4-184.1c0.3-15.2-0.8-30.5-3.4-45.5l-25.6-147.6c0,0,268.7,26,303.6,19.7C1938.3,1366.7,2001.1,1312,1982.2,1222.5z"/>
	<path class="st2" d="M1628.7,833c0,0-53.2-7.9-74.5-30.6l-19,47c0,0,32.3,26.1,35.3,42.9c2.9,16.8,5,73.2,5,73.2l28.4-15.4
		c0,0,32.5-71.2,31.5-79.6C1634.3,862,1628.7,833,1628.7,833z"/>
	<path class="st7" d="M1297.1,431.1l31.3,42.3c2.5,1.2,4.7-0.2,10.2-3.6c9.9-6.1,19.7-12.2,29.8-17.9c1.6-0.9,4.7-0.7,6.3,0.3
		c9.8,5.8,19.2,12.1,29,17.8c3,1.8,4.3,3.1,4,6.8c-1.2,14.8-2,29.6-2.9,44.2c12.4,5.4,45.3,10.7,56.9,9c3.4-13.7,7.1-27.6,10.2-41.7
		c1-4.4,2.5-5.8,7.2-6.6c10.8-1.8,21.4-4.6,32-7.6c4.3-1.2,7.1-1.5,10.3,2.4c8.3,9.9,17.2,19.3,25.7,29c2.3,2.6,4.4,3.4,7.2,1.3
		c13.3-9.7,26.7-19.4,40-29.2c3.3-2.4,1.1-4.8-0.2-6.9c-6.3-10.8-12.6-21.7-19.3-32.3c-2.5-4-2.3-6.7,0.4-10.6
		c7.2-10.4,13.8-21.2,21.2-32.6c14.6,0.9,30.7,1.8,47.2,2.8c6.1-18.3,8.7-36.9,8.4-56.6c-15.6-3.9-31.2-7.9-45-11.3
		c-3.9-14.6-7.2-28.2-11.3-41.5c-1.2-3.9-0.5-5.7,2.3-8.1c9.6-8.3,19-17,28.6-25.4c2.1-1.8,3.3-3.3,1.8-6.2
		c-7.7-14.5-16.6-28.1-28.4-39.7c-2.6-2.6-4.6-2.4-7.4-0.7c-11.3,6.7-22.6,13.2-33.9,20c-2.7,1.6-4.5,1.9-7.5-0.1
		c-10.5-6.7-21.3-13-32.3-18.9c-2.8-1.5-3.2-3.1-3-5.7c0.9-14.8,1.6-29.6,2.5-44.8c-18.3-5.6-36.6-9.1-55.9-8.9
		c-4,15.9-8,31.7-11.8,46.9c-15.3,3.7-30.2,7.3-46.1,11.1c-7.6-8.4-16.2-18.2-25.1-27.9c-7.2-7.9-5.2-8.3-15.1-2.5
		c-0.9,0.6-2.1,0.8-3.1,1.1c-7.9,5.9-15.9,11.8-23.8,17.6c-1.5,1.6-2.8,3.5-4.6,4.8c-4.6,3.3-5.5,6.5-2.1,11.7
		c7,10.8,13.3,22.1,19.7,33.4c0.8,1.5,0.8,4.2-0.1,5.7c-5.5,9.7-11.9,19-16.8,28.9c-2.4,4.9-5,5.8-9.9,5.4c-14-1.1-28-1.6-43.5-2.4
		c-3,18.9-6,37.4-8.9,56.1c3.5,0.9,5.4,1.5,7.4,2c12.3,3.1,24.7,6.3,37.1,9.2c3.5,0.8,4.6,2.5,5.4,6c2.8,11.8,6.3,23.4,9.1,35.1
		c0.4,1.8-0.5,4.8-1.9,6.1c-7.6,7.2-15.6,13.9-23.3,21C1298.8,425.2,1296.5,427.4,1297.1,431.1z M1394.4,390.2
		c-28-37.8-20-91.1,17.8-119.1l0,0c37.8-28,91.1-20,119.1,17.8l0,0c28,37.8,20,91.1-17.8,119.1l0,0
		C1475.7,436,1422.4,428,1394.4,390.2L1394.4,390.2z"/>
	<path class="st8" d="M1741.6,593.9l-3.8,70.8c1.6,3.4,5,3.8,13.7,5c15.5,2.2,30.9,4.3,46.3,7c2.4,0.4,5.4,3.3,6.3,5.7
		c5.2,14.4,9.5,29.1,14.9,43.4c1.7,4.4,1.8,7-1.7,10.6c-13.9,14.3-27.4,29-40.9,43.4c8.2,16.2,37.8,50,51.3,58.2
		c15.3-11.3,31.1-22.6,46.4-34.5c4.8-3.7,7.6-3.9,13.1-0.7c12.8,7.4,26.2,13.6,39.7,19.5c5.5,2.4,8.6,4.6,8.7,11.3
		c0.1,17.4,1.3,34.8,1.7,52.2c0.1,4.7,1.6,7.2,6.3,7.5c22.2,1.4,44.4,2.7,66.5,4.1c5.5,0.3,5.2-4,5.8-7.3
		c2.7-16.7,5.6-33.3,7.7-50.1c0.8-6.3,3.3-8.9,9.5-10.6c16.4-4.5,32.5-10.2,50-15.7c14.4,13.4,30.3,28.2,46.7,43.4
		c22-13.8,40.7-30.9,57.3-51.6c-12.8-17.5-25.7-35-37-50.4c8.5-18.5,16.7-35.4,23.9-52.8c2.1-5,4.4-6.3,9.3-6.4
		c17.1-0.4,34.3-1.3,51.4-1.8c3.7-0.1,6.3-0.6,7.2-4.9c4.4-21.7,6.9-43.4,4.6-65.6c-0.5-4.9-2.7-6.4-7-7.1
		c-17.5-2.7-34.9-5.7-52.3-8.3c-4.2-0.6-6.2-1.9-7.7-6.5c-5.2-16-11-31.8-17.3-47.4c-1.6-4-0.7-5.9,1.8-8.5
		c13.6-14.6,27.1-29.3,41-44.4c-14.1-21.5-30.2-40.8-50.4-57.2c-17.8,13.1-35.5,26.1-52.5,38.5c-19.1-9.3-37.6-18.3-57.4-28
		c-0.6-15.3-1.2-32.9-2.1-50.4c-0.7-14.4,1.7-13.1-13.6-15.5c-1.5-0.2-2.8-1-4.2-1.5c-13.3-0.7-26.6-1.4-39.9-2.1
		c-3,0.4-6,1.2-8.9,1c-7.6-0.5-11.2,2.1-12.2,10.3c-2,17.3-5.2,34.4-8.2,51.5c-0.4,2.2-2.8,5.1-5,5.9c-14.1,5.4-28.6,9.5-42.3,15.6
		c-6.7,3-10.1,1.8-14.9-2.9c-13.6-13.1-27.7-25.7-43.1-39.8c-19.4,17.1-38.3,33.7-57.4,50.6c2.8,3.9,4.4,6.2,6,8.5
		c10.1,13.8,20.2,27.7,30.6,41.4c3,3.9,2.6,6.5,0.5,10.8c-7.2,14.6-13.6,29.7-20.7,44.3c-1.1,2.3-4.7,4.5-7.2,4.7
		c-14,0.9-28.1,1.1-42.2,1.8C1748.4,589.2,1744.2,589.5,1741.6,593.9z M1877.7,634.9c3.4-63.3,57.4-111.8,120.7-108.4l0,0
		c63.3,3.4,111.8,57.4,108.4,120.7l0,0c-3.4,63.3-57.4,111.8-120.7,108.4l0,0C1922.8,752.2,1874.3,698.2,1877.7,634.9L1877.7,634.9z
		"/>
	<path class="st0" d="M1701.3,312.1l14.6,27.7c1.4,0.9,2.8,0.3,6.3-1.2c6.3-2.7,12.7-5.4,19.1-7.9c1-0.4,2.8,0,3.7,0.7
		c5.2,4.3,10.2,8.8,15.5,13c1.6,1.3,2.3,2.2,1.8,4.4c-2,8.6-3.8,17.2-5.6,25.7c6.8,4.3,25.7,10.3,32.6,10.4
		c3.2-7.7,6.6-15.6,9.7-23.6c1-2.5,2-3.2,4.8-3.3c6.5-0.1,13-0.8,19.5-1.6c2.6-0.3,4.3-0.2,5.8,2.3c4,6.6,8.4,12.9,12.5,19.4
		c1.1,1.7,2.3,2.4,4.1,1.4c8.7-4.5,17.4-9.1,26.1-13.6c2.1-1.1,1.1-2.7,0.5-4.1c-2.8-6.9-5.5-13.9-8.5-20.7
		c-1.1-2.6-0.8-4.1,1.2-6.2c5.2-5.4,10-11.2,15.4-17.3c8.5,1.8,17.9,3.8,27.5,5.9c5.2-10.2,8.4-20.9,10-32.5
		c-8.8-3.7-17.7-7.4-25.4-10.7c-1-8.9-1.7-17.2-2.9-25.4c-0.4-2.4,0.2-3.4,2.1-4.5c6.4-4,12.7-8.3,19.1-12.4
		c1.4-0.9,2.3-1.7,1.6-3.5c-3.3-9.2-7.3-18-13.1-25.9c-1.3-1.8-2.5-1.8-4.3-1.1c-7.2,2.9-14.5,5.8-21.7,8.7
		c-1.7,0.7-2.8,0.7-4.4-0.7c-5.6-4.9-11.4-9.5-17.3-14c-1.5-1.1-1.6-2.1-1.3-3.6c1.8-8.6,3.6-17.2,5.4-26.1
		c-10.2-4.9-20.7-8.6-32.1-10.2c-3.8,9-7.5,17.9-11.1,26.5c-9.3,0.8-18.4,1.6-28.1,2.4c-3.7-5.6-7.9-12.2-12.3-18.6
		c-3.6-5.3-2.3-5.3-8.7-2.8c-0.6,0.2-1.3,0.3-1.9,0.4c-5.2,2.7-10.4,5.5-15.6,8.2c-1,0.8-2,1.8-3.1,2.4c-3,1.5-3.8,3.3-2.3,6.7
		c3.1,7,5.9,14.2,8.6,21.4c0.4,0.9,0.1,2.6-0.6,3.4c-4.1,5.2-8.7,10.1-12.5,15.5c-1.9,2.6-3.4,3-6.3,2.3c-8.1-1.9-16.3-3.4-25.3-5.3
		c-3.5,10.9-6.8,21.5-10.3,32.2c2,0.9,3.1,1.4,4.2,1.9c7,2.9,13.9,5.9,21,8.7c2,0.8,2.5,1.9,2.6,4c0.6,7.2,1.6,14.3,2.2,21.5
		c0.1,1.1-0.7,2.8-1.7,3.4c-5.1,3.5-10.4,6.8-15.6,10.2C1702.8,308.8,1701.3,309.8,1701.3,312.1z M1762.1,296.7
		c-13.1-24.7-3.6-55.4,21.1-68.4l0,0c24.7-13.1,55.4-3.6,68.4,21.1l0,0c13.1,24.7,3.6,55.4-21.1,68.4h0
		C1805.9,330.9,1775.2,321.4,1762.1,296.7L1762.1,296.7z"/>
	<g>
		<path class="st9" d="M1073,897h224.1c5.9,0,11.3,3.6,13.5,9.1l69,168.3h123.6c3.5,0,6.3,2.8,6.3,6.3l0,0c0,3.5-2.8,6.3-6.3,6.3
			h-351.6c-9.7,0-18.4-5.7-22.4-14.5l-69.5-154.8C1055.3,908,1062.4,897,1073,897z"/>
		<path class="st10" d="M1193.7,995c1.5,7.6,8.1,12.6,14.7,11.3c6.6-1.3,10.8-8.5,9.2-16.1c-1.5-7.6-8.1-12.6-14.7-11.3
			C1196.3,980.3,1192.2,987.5,1193.7,995z"/>
	</g>
	<polygon class="st4" points="1717.3,1829.1 1604.9,1111.8 1582.8,1115.3 1694.7,1829.1 	"/>
	<polygon class="st4" points="828.5,1829.1 940.9,1111.8 963,1115.3 851.1,1829.1 	"/>
	<path class="st4" d="M1693.1,1122.2H852.8c-9.8,0-17.8-8.6-17.8-19.3l0,0c0-10.7,8-19.3,17.8-19.3h840.3c9.8,0,17.8,8.6,17.8,19.3
		l0,0C1710.9,1113.6,1702.9,1122.2,1693.1,1122.2z"/>
	
		<rect x="912.9" y="1369.5" transform="matrix(-1 -1.224647e-16 1.224647e-16 -1 2553.3296 2762.6982)" class="st4" width="727.5" height="23.7"/>
	<g>
		<path class="st11" d="M619.2,1656.1h6.1c2-20.6,6-43.4,13-67.2c26.7-90.1,15-101.8,60.1-158.2c45.1-56.4,48.4-173.2,48.4-173.2
			s21.7-132.7,0-191.1c-21.7-58.4-23.4-116.9-76-178.6c0,0-10,82.6-22.5,120.2c-12.5,37.6-24.4,73.5-15.1,163.6
			c9.3,90.1,15.1,97.7,17.2,121s-1.2,121.9,3.8,138.2c5,16.3-29.2,129-31.7,177.4C621.7,1622.6,620.4,1639.2,619.2,1656.1z"/>
		<path class="st5" d="M638.4,1656.1c8.7-20.1,24-40,50.8-52c70.1-31.3,117.4-30.6,150-105.7c32.6-75.1,32.6-177.8,43.8-199.1
			c0,0-30-5-60.1,48.8s-50.4,93.9-67.8,125.2c-17.4,31.3-42.4,22.5-63.7,46.3c-17.8,19.9-34.3,66.3-40.6,89.9c-2,7.6-5,15-8.9,21.9
			c-3.5,6.3-7.7,13.9-10.2,19.3c-0.6,1.2-1.1,3-1.7,5.4H638.4z"/>
		<path class="st11" d="M440.5,1300c-5,64.3,35.9,59.3,37.6,100.2c1.7,40.9,55.1,110.2,79.8,159.4c12.9,25.6,17.6,64.8,19.2,96.5
			H597c-7.7-80.2-40.2-136-59.7-180.8c-25-57.6-28.8-83.9-7.5-129c21.3-45.1-10-161.5,20.3-213.4c30.3-51.9,14.8-133.4,7.8-164.7
			c-7-31.3,0.7-52.6,7-85.6c6.3-33-7-80.9-7-80.9c-1.1,40.9-32.3,96.8-54.8,132.7C480.6,970.3,438,1068,443,1112.2
			c5,44.2,2.5,47.6,2.5,47.6C429.7,1219.1,445.5,1235.7,440.5,1300z"/>
		<path class="st5" d="M559.8,1603.9c2.6,7.7,10.8,27.3,18.3,52.2h12.2c-5.5-31.8-15.1-68.7-31.3-89.8
			c-32.6-42.6-97.7-60.9-105.2-91.8c-7.5-30.9,0.8-123.5-46.7-175.3c0,0,6.7,57.6,0,73c-6.7,15.4-63.4,87.2-30,147.3
			c33.4,60.1,108.5,52.6,131.9,65.9C532.3,1598.8,555.7,1591.3,559.8,1603.9z"/>
		<path class="st5" d="M529.8,1326.7c-0.8,61.8,47.6,85.1,46.7,119.4c-0.8,34.2,10,71,19.2,98.5c5.8,17.4,2.6,66,1.6,111.5h13.4
			c3.4-33.5,7.1-81.8,5.9-103.2c-1.7-29.2,11.7-52.6,13.4-103.5c1.7-50.9,12.5-96.8-10-161.1c-22.5-64.3-18.4-141.1-112.7-212
			c0,0-16.7,75.1-4.2,116C515.6,1233.2,530.6,1264.9,529.8,1326.7z"/>
		<path class="st12" d="M529.8,1326.7c-0.8,61.8,47.6,85.1,46.7,119.4c-0.8,34.2,10,71,19.2,98.5c5.8,17.4,2.6,66,1.6,111.5h5.6
			c0.8-9.5,1.5-15.5,1.5-15.5l2.8-115.2c0,0-5.6-90.1-15.6-163.6c-10-73.5-84.3-285.5-84.3-285.5s-16.7,75.1-4.2,116
			C515.6,1233.2,530.6,1264.9,529.8,1326.7z"/>
		<path class="st1" d="M625.3,1603.4h-9H496.1c-8.8,0-15.4,8.3-13.3,16.9l47.1,198.7c1.5,6.2,7,10.5,13.3,10.5h73.1h9h73.1
			c6.3,0,11.9-4.4,13.3-10.5l47.1-198.7c2-8.6-4.5-16.9-13.3-16.9H625.3z"/>
	</g>
	<polygon class="st6" points="1411.1,601.5 1415.4,622.3 1445.1,632.3 1447.3,657.6 1440.8,636.5 1409.1,628 	"/>
	<polygon class="st13" points="1523.5,571.5 1542.5,576.7 1508.2,631.6 1522.9,586.7 1502.3,579.6 1536.9,529.3 	"/>
	<polygon class="st14" points="1599.8,629.7 1610.1,638.9 1571.4,662.7 1594.7,639.1 1584,628.2 1621.4,607.4 	"/>
	<path class="st14" d="M1628.7,833c0,0,60.1-9.7,138.4,47.5c78.2,57.2,198.7,255.9,209.1,325.9c0,0-161,10.2-193.2,3.1
		c0,0,5.9-54.7-8.6-74.9c-14.5-20.2-21.4-59.9-66-75.7c-19-6.7-40.3-7.6-60.4-10.2c-36.3-4.7-65.3-32.4-71.7-68.4l-0.4-2
		c-1.7-9.6-0.6-19.5,3.2-28.4L1628.7,833z"/>
	<g>
		<path class="st4" d="M1901.6,1828.4l-32.6-0.2c4.3-178.5,8.1-449.6,0.9-464.8c0,0,0.5,1,2.2,2l26.4-8.7c4.3,2.7,6.8,4.3,7.7,80.2
			c0.5,39.1,0.3,93-0.5,160.3C1904.4,1712,1901.6,1827.2,1901.6,1828.4z"/>
		<path class="st4" d="M1997,1808h-219.6c-10.1,0-18.3,8.2-18.3,18.3l0,0c0,1.8,1.4,3.2,3.2,3.2h249.9c1.8,0,3.2-1.4,3.2-3.2l0,0
			C2015.3,1816.2,2007.1,1808,1997,1808z"/>
		<path class="st4" d="M1901.3,1790h-26.9c-8,0-14.4,6.5-14.4,14.4l0,0c0,8,6.5,14.4,14.4,14.4h26.9c8,0,14.4-6.5,14.4-14.4l0,0
			C1915.7,1796.4,1909.3,1790,1901.3,1790z"/>
		<g>
			<path class="st4" d="M1731,1356.8l-18.7-4.5l21.8-90.8c12.6-52.3,58.9-90.4,112.7-92.6l234.6-9.5l0.8,19.2l-234.6,9.5
				c-45.2,1.8-84.2,33.8-94.7,77.8L1731,1356.8z"/>
		</g>
		<path class="st13" d="M1994.4,1327.3c0,0-263,4.5-290.4,0c-27.4-4.5-39.3,29.9-31.1,47.9s30.7,25,63.8,26.6s308.9,9.4,316.7,2
			c6.3-6,90-291.8,120.4-396.4c6.1-20.9-5.9-42.7-26.8-48.9l0,0c-20.8-6.1-42.6,5.7-48.9,26.4L1994.4,1327.3z"/>
	</g>
	<g>
		<path class="st15" d="M1717.6,1365.5c1.3,2.4,6.2,5.6,17,24.4c3.1,5.4,3,14.3,3,14.3s-0.3,10.9-2.9,11.6c-2.6,0.7-5.4-1.4-6.1-3.4
			c-0.7-2-0.1-6.3-0.8-8.3c-0.7-2-6.9-5-9.3-5.2c-2.5-0.2-2.2,32-2.2,32s0.5,9.2,1,12.3c0.4,2.6,2.1,10.3,2.1,10.3
			s1.8,11.1-1.7,11.5c-2.1,0.2-6.5-9.3-9.2-19c-2.9-10.5-4.1-21.4-5.2-21.4c-2.6,0-2.9,17.6-2.9,17.6s1.8,8.4,1.4,12.1
			c2,5,2.8,13.8-1.5,13.9c-0.8,0-5.4-11.7-5.4-11.7s-1.5-8-2.4-11.8c-1.7-6.6-1.1-16.7-1.9-21.3c-0.6-3.8-1.7-2.4-2.1-2.6
			c-0.3-0.2-0.2,5-0.2,12c0,3.5-0.8,7.5-0.2,11.7c0.6,3.8,0.6,9.2,0.6,12.4c-0.2,9.1-6,7.4-7.2-1.2c-0.5-3.3-1-6.8-1.5-10.4
			c-1.9-14-0.6-27-2.1-27.4c-2-0.4-2.9,23.5-2.9,23.5s-4.2,12.7-6.1,0.1c-2.2-14.7-0.7-26.2-0.6-26.7c0.6-3.4-0.8-16.1,3.3-27.6
			c3-8.5,7.7-20.5,10-26.3L1717.6,1365.5z"/>
		<path class="st15" d="M1679.2,1399.5l37.9-29.9c6.5-54.4,16.8-203.6,20-211.9c3.4-8.7-19-213-19-213l-67.4,48.4l28.1,154.3
			C1678.4,1155.9,1680.9,1397.5,1679.2,1399.5z"/>
	</g>
	<path class="st3" d="M1633.8,1053l106.9-20.4c0,0-8.5-90.7-17-128.2c-18.8-82.8-108.4-97.1-108.4-27.9
		C1615.3,927.5,1633.8,1053,1633.8,1053z"/>
	<path class="st13" d="M1552.1,864.9c6.5-17.7,5.6-56.6,5.6-56.6l-0.8-3.3c-0.9-0.8-1.8-1.7-2.6-2.6l-19,47
		C1535.2,849.4,1543.5,856.1,1552.1,864.9z"/>
	<path class="st2" d="M1494.2,705.2c0,0,27.9-3.2,45.3,19.4c17.5,22.6,36.3,92.7-7.1,130.7c-43.4,38.1-86.3-5-92.6-50.7
		C1433.4,758.9,1430.9,703.5,1494.2,705.2z"/>
	<path class="st2" d="M1426.9,803.9c5.2,10.1,13.9,15.7,19.4,12.5c5.5-3.2,5.8-14,0.7-24.1c-5.2-10.1-13.9-15.7-19.4-12.5
		C1422.1,783.1,1421.8,793.9,1426.9,803.9z"/>
	<path class="st1" d="M1491,697.7c0,0,37.2,66.6,63.9,69.7c26.6,3.1,30.1,38.5,30.1,38.5s-9.5-81.5-35.9-97.2
		C1522.8,692.9,1491,697.7,1491,697.7z"/>
	<path class="st2" d="M1547.9,784.1c-2.2,11.8,2.2,22.7,9.7,24.2c7.5,1.6,15.4-6.8,17.6-18.6c2.2-11.8-2.2-22.7-9.7-24.2
		C1557.9,763.9,1550.1,772.3,1547.9,784.1z"/>
	<path class="st1" d="M1616.1,765.3c-17.5-33.7-25.6-21.9-24.5-17.3c1.1,4.6,5.3,50.2,4.1,50.1c-1.2-0.1-25.8-11.3-25.8-11.3
		l-0.8,16.4c0,0,12.7,40,6.2,66.6c0,0,25.1,0.7,49.7-11.5l-1.6-20.8l12.8,14.3c6.5-4.5,12.7-10,18.1-17
		C1654.2,835,1633.6,799,1616.1,765.3z"/>
	<g>
		<path class="st9" d="M1003,1070.4h3.8c1.4,0,2.5-1.1,2.5-2.5v-23.4c0-1.4-1.1-2.5-2.5-2.5h-3.8c-1.4,0-2.5,1.1-2.5,2.5v23.4
			C1000.5,1069.2,1001.6,1070.4,1003,1070.4z"/>
		<g>
			<path class="st6" d="M958.5,743.3c7.4-9.7,15.7-15,24.7-15.9c13.8-1.3,24.8,8.3,25,8.4l5.5-6.2c-0.6-0.5-13.9-12.1-31.3-10.4
				c-11.4,1.1-21.6,7.5-30.5,19.1L958.5,743.3z"/>
		</g>
		<path class="st9" d="M1024.4,724.8l31.5,31.5c3.5,3.5,3.5,9.1,0,12.6l-9.5,9.5c-3.5,3.5-9.1,3.5-12.6,0l-31.5-31.5
			c-3.5-3.5-3.5-9.1,0-12.6l9.5-9.5C1015.3,721.4,1021,721.4,1024.4,724.8z"/>
		<path class="st1" d="M1105.9,755.7l-80.7,80.7c-22.3-22.3-22.3-58.4,0-80.7C1047.4,733.4,1083.6,733.4,1105.9,755.7z"/>
		<g>
			<path class="st9" d="M862.1,897l80.9-164.9l25.3,12.4l-80.9,164.9L862.1,897z M947,743.7l-73.3,149.3l9.7,4.8l73.3-149.3
				L947,743.7z"/>
		</g>
		<g>
			<path class="st9" d="M856.5,907.5l26.6-9.1l59.4,173.8l-26.6,9.1L856.5,907.5z M877.8,909.4l-10.2,3.5l53.8,157.4l10.2-3.5
				L877.8,909.4z"/>
		</g>
		<path class="st16" d="M1021.7,843.4l2.6,2.6c1,1,2.5,1,3.5,0l87.6-87.6c1-1,1-2.5,0-3.5l-2.6-2.6c-1-1-2.5-1-3.5,0l-87.6,87.6
			C1020.7,840.8,1020.7,842.4,1021.7,843.4z"/>
		<path class="st1" d="M852.8,906.2c0,11.3,9.2,20.5,20.5,20.5s20.5-9.2,20.5-20.5c0-11.3-9.2-20.5-20.5-20.5
			S852.8,894.8,852.8,906.2z"/>
		<path class="st6" d="M1050.7,1055.5H891.9c-8.9,0-16,7.2-16,16v12.1h190.9v-12.1C1066.7,1062.7,1059.5,1055.5,1050.7,1055.5z"/>
	</g>
	<path class="st9" d="M2539.3,1828.6h-2205c-3.4,0-6.2,2.8-6.2,6.2v9.3c0,3.4,2.8,6.2,6.2,6.2h2205c3.4,0,6.2-2.8,6.2-6.2v-9.3
		C2545.5,1831.4,2542.7,1828.6,2539.3,1828.6z"/>
</g>
</svg>
