<?xml version="1.0" encoding="iso-8859-1"?>
<!-- Generator: Adobe Illustrator 24.0.2, SVG Export Plug-In . SVG Version: 6.00 Build 0)  -->
<!DOCTYPE svg PUBLIC "-//W3C//DTD SVG 1.0//EN" "http://www.w3.org/TR/2001/REC-SVG-20010904/DTD/svg10.dtd" [
	<!ENTITY ns_extend "http://ns.adobe.com/Extensibility/1.0/">
	<!ENTITY ns_ai "http://ns.adobe.com/AdobeIllustrator/10.0/">
	<!ENTITY ns_graphs "http://ns.adobe.com/Graphs/1.0/">
	<!ENTITY ns_vars "http://ns.adobe.com/Variables/1.0/">
	<!ENTITY ns_imrep "http://ns.adobe.com/ImageReplacement/1.0/">
	<!ENTITY ns_sfw "http://ns.adobe.com/SaveForWeb/1.0/">
	<!ENTITY ns_custom "http://ns.adobe.com/GenericCustomNamespace/1.0/">
	<!ENTITY ns_adobe_xpath "http://ns.adobe.com/XPath/1.0/">
]>
<svg version="1.0" id="Capa_1" xmlns:x="&ns_extend;" xmlns:i="&ns_ai;" xmlns:graph="&ns_graphs;"
	 xmlns="http://www.w3.org/2000/svg" xmlns:xlink="http://www.w3.org/1999/xlink" x="0px" y="0px" viewBox="0 0 275 55"
	 enable-background="new 0 0 275 55" xml:space="preserve">
<metadata>
	<sfw  xmlns="&ns_sfw;">
		<slices></slices>
		<sliceSourceBounds  bottomLeftOrigin="true" height="51" width="266.8" x="6" y="-53"></sliceSourceBounds>
	</sfw>
</metadata>
<g>
	<path fill="#FCEE21" d="M55,4v47H8V4H55 M57,2H6v51h51V2L57,2z"/>
</g>
<g>
	<g>
		<path opacity="0.98" fill="#054372" d="M61.2,17.9h2.6l10.1,15.9l-0.3,0.4V17.9h2.9v20.6h-2.6l-10-15.7l0.3-0.4v16h-2.9V17.9z"/>
		<path opacity="0.98" fill="#054372" d="M84.6,37.8c-1.1-0.6-1.9-1.5-2.5-2.7c-0.6-1.1-0.9-2.5-0.9-4v-5.8c0-1.5,0.3-2.8,0.9-4
			c0.6-1.1,1.4-2,2.5-2.7c1.1-0.6,2.4-0.9,3.8-0.9s2.7,0.3,3.8,0.9c1.1,0.6,1.9,1.5,2.5,2.7c0.6,1.1,0.9,2.5,0.9,4v5.8
			c0,1.5-0.3,2.8-0.9,4c-0.6,1.1-1.4,2-2.5,2.7c-1.1,0.6-2.4,0.9-3.8,0.9S85.6,38.4,84.6,37.8z M90.6,35.3c0.6-0.4,1.1-0.9,1.5-1.6
			c0.4-0.7,0.5-1.5,0.5-2.4v-6c0-0.9-0.2-1.7-0.5-2.4c-0.4-0.7-0.9-1.2-1.5-1.6c-0.6-0.4-1.4-0.6-2.2-0.6s-1.6,0.2-2.2,0.6
			c-0.6,0.4-1.1,0.9-1.5,1.6c-0.4,0.7-0.5,1.5-0.5,2.4v6c0,0.9,0.2,1.7,0.5,2.4c0.4,0.7,0.9,1.2,1.5,1.6c0.6,0.4,1.4,0.6,2.2,0.6
			S89.9,35.7,90.6,35.3z"/>
		<path opacity="0.98" fill="#054372" d="M98.1,17.9h3.1l4.9,16.1l4.9-16.1h3.1l-6.7,20.6h-2.7L98.1,17.9z"/>
		<path opacity="0.98" fill="#054372" d="M120.2,38.5h-2.9V17.9h2.9V38.5z"/>
		<path opacity="0.98" fill="#054372" d="M128.6,38.4c-0.9-0.2-1.7-0.5-2.5-0.8c-0.8-0.4-1.5-0.8-2.2-1.4l1.8-2.2
			c0.8,0.7,1.6,1.2,2.6,1.5s2,0.5,3.1,0.5c1.5,0,2.6-0.3,3.5-0.8c0.8-0.6,1.2-1.3,1.2-2.3v0c0-0.7-0.2-1.3-0.6-1.7
			c-0.4-0.4-0.9-0.7-1.4-0.9s-1.4-0.4-2.3-0.6c0,0-0.1,0-0.1,0s-0.1,0-0.1,0l-0.2,0c-1.4-0.2-2.5-0.5-3.4-0.8
			c-0.9-0.3-1.6-0.8-2.2-1.6c-0.6-0.8-0.9-1.9-0.9-3.4v0c0-1.3,0.3-2.4,0.9-3.3c0.6-0.9,1.4-1.6,2.5-2.1s2.4-0.7,4-0.7
			c0.7,0,1.5,0.1,2.2,0.2s1.4,0.4,2.1,0.7c0.7,0.3,1.4,0.7,2,1.2l-1.6,2.3c-0.8-0.6-1.6-1-2.3-1.3c-0.8-0.3-1.6-0.4-2.3-0.4
			c-1.4,0-2.5,0.3-3.3,0.8c-0.8,0.6-1.2,1.4-1.2,2.4v0c0,0.7,0.2,1.3,0.6,1.7c0.4,0.4,0.9,0.7,1.5,0.9c0.6,0.2,1.4,0.4,2.5,0.6
			c0,0,0.1,0,0.1,0c0,0,0.1,0,0.1,0c0,0,0.1,0,0.2,0s0.1,0,0.2,0c1.2,0.3,2.3,0.6,3.1,0.9c0.8,0.3,1.5,0.9,2.1,1.7
			c0.6,0.8,0.8,1.8,0.8,3.2v0c0,1.3-0.3,2.3-0.9,3.2c-0.6,0.9-1.5,1.6-2.6,2c-1.1,0.5-2.5,0.7-4.1,0.7
			C130.5,38.7,129.5,38.6,128.6,38.4z"/>
		<path opacity="0.98" fill="#054372" d="M146.1,37.8c-1.1-0.6-1.9-1.5-2.5-2.7c-0.6-1.1-0.9-2.5-0.9-4v-5.8c0-1.5,0.3-2.8,0.9-4
			c0.6-1.1,1.4-2,2.5-2.7c1.1-0.6,2.4-0.9,3.8-0.9c1.4,0,2.7,0.3,3.8,0.9c1.1,0.6,1.9,1.5,2.5,2.7c0.6,1.1,0.9,2.5,0.9,4v5.8
			c0,1.5-0.3,2.8-0.9,4c-0.6,1.1-1.4,2-2.5,2.7c-1.1,0.6-2.4,0.9-3.8,0.9C148.5,38.7,147.2,38.4,146.1,37.8z M152.2,35.3
			c0.6-0.4,1.1-0.9,1.5-1.6c0.4-0.7,0.5-1.5,0.5-2.4v-6c0-0.9-0.2-1.7-0.5-2.4c-0.4-0.7-0.9-1.2-1.5-1.6c-0.6-0.4-1.4-0.6-2.2-0.6
			s-1.6,0.2-2.2,0.6c-0.6,0.4-1.1,0.9-1.5,1.6c-0.4,0.7-0.5,1.5-0.5,2.4v6c0,0.9,0.2,1.7,0.5,2.4c0.4,0.7,0.9,1.2,1.5,1.6
			c0.6,0.4,1.4,0.6,2.2,0.6S151.5,35.7,152.2,35.3z"/>
		<path opacity="0.98" fill="#054372" d="M161.8,17.9h2.9v20.6h-2.9V17.9z M163.3,35.7h11.8v2.7h-11.8V35.7z"/>
		<path opacity="0.98" fill="#054372" d="M181.5,37.8c-1.1-0.6-1.9-1.5-2.5-2.6c-0.6-1.1-0.8-2.5-0.8-4.1V17.9h2.9v13.2
			c0,1.5,0.4,2.7,1.1,3.5c0.8,0.8,1.8,1.2,3.2,1.2c1.4,0,2.5-0.4,3.2-1.2c0.8-0.8,1.1-2,1.1-3.5V17.9h2.9V31c0,1.6-0.3,3-0.8,4.1
			c-0.6,1.1-1.4,2-2.5,2.6c-1.1,0.6-2.4,0.9-3.9,0.9C183.9,38.7,182.6,38.4,181.5,37.8z"/>
		<path opacity="0.98" fill="#054372" d="M194.6,17.9h14.5v2.7h-14.5V17.9z M200.5,19.6h2.9v18.9h-2.9V19.6z"/>
		<path opacity="0.98" fill="#054372" d="M214.3,38.5h-2.9V17.9h2.9V38.5z"/>
		<path opacity="0.98" fill="#054372" d="M222.4,37.8c-1.1-0.6-1.9-1.5-2.5-2.7c-0.6-1.1-0.9-2.5-0.9-4v-5.8c0-1.5,0.3-2.8,0.9-4
			c0.6-1.1,1.4-2,2.5-2.7c1.1-0.6,2.4-0.9,3.8-0.9c1.4,0,2.7,0.3,3.8,0.9c1.1,0.6,1.9,1.5,2.5,2.7c0.6,1.1,0.9,2.5,0.9,4v5.8
			c0,1.5-0.3,2.8-0.9,4c-0.6,1.1-1.4,2-2.5,2.7c-1.1,0.6-2.4,0.9-3.8,0.9C224.8,38.7,223.5,38.4,222.4,37.8z M228.5,35.3
			c0.6-0.4,1.1-0.9,1.5-1.6c0.4-0.7,0.5-1.5,0.5-2.4v-6c0-0.9-0.2-1.7-0.5-2.4c-0.4-0.7-0.9-1.2-1.5-1.6c-0.6-0.4-1.4-0.6-2.2-0.6
			s-1.6,0.2-2.2,0.6c-0.6,0.4-1.1,0.9-1.5,1.6c-0.4,0.7-0.5,1.5-0.5,2.4v6c0,0.9,0.2,1.7,0.5,2.4c0.4,0.7,0.9,1.2,1.5,1.6
			c0.6,0.4,1.4,0.6,2.2,0.6S227.8,35.7,228.5,35.3z"/>
		<path opacity="0.98" fill="#054372" d="M238.1,17.9h2.6l10.1,15.9l-0.3,0.4V17.9h2.9v20.6h-2.6l-10-15.7l0.3-0.4v16h-2.9V17.9z"/>
		<path opacity="0.98" fill="#054372" d="M261.8,38.4c-0.9-0.2-1.7-0.5-2.5-0.8c-0.8-0.4-1.5-0.8-2.2-1.4l1.8-2.2
			c0.8,0.7,1.6,1.2,2.6,1.5s2,0.5,3.1,0.5c1.5,0,2.6-0.3,3.5-0.8c0.8-0.6,1.2-1.3,1.2-2.3v0c0-0.7-0.2-1.3-0.6-1.7
			c-0.4-0.4-0.9-0.7-1.4-0.9s-1.4-0.4-2.3-0.6c0,0-0.1,0-0.1,0s-0.1,0-0.1,0l-0.2,0c-1.4-0.2-2.5-0.5-3.4-0.8
			c-0.9-0.3-1.6-0.8-2.2-1.6c-0.6-0.8-0.9-1.9-0.9-3.4v0c0-1.3,0.3-2.4,0.9-3.3c0.6-0.9,1.4-1.6,2.5-2.1s2.4-0.7,4-0.7
			c0.7,0,1.5,0.1,2.2,0.2s1.4,0.4,2.1,0.7c0.7,0.3,1.4,0.7,2,1.2l-1.6,2.3c-0.8-0.6-1.6-1-2.3-1.3c-0.8-0.3-1.6-0.4-2.3-0.4
			c-1.4,0-2.5,0.3-3.3,0.8c-0.8,0.6-1.2,1.4-1.2,2.4v0c0,0.7,0.2,1.3,0.6,1.7s0.9,0.7,1.5,0.9c0.6,0.2,1.4,0.4,2.5,0.6
			c0,0,0.1,0,0.1,0c0,0,0.1,0,0.1,0c0,0,0.1,0,0.2,0s0.1,0,0.2,0c1.2,0.3,2.3,0.6,3.1,0.9c0.8,0.3,1.5,0.9,2.1,1.7
			c0.6,0.8,0.8,1.8,0.8,3.2v0c0,1.3-0.3,2.3-0.9,3.2c-0.6,0.9-1.5,1.6-2.6,2c-1.1,0.5-2.5,0.7-4.1,0.7
			C263.6,38.7,262.7,38.6,261.8,38.4z"/>
		<path opacity="0.98" fill="#054372" d="M58.7,40.3v-0.7h215.1v0.7H58.7z"/>
	</g>
</g>
<g>
	<g>
		<path fill="#054372" d="M12.3,13.8h3.3l12.8,20.3l-0.4,0.5V13.8h3.6V40h-3.4L15.6,20l0.4-0.5V40h-3.6V13.8z"/>
		<path fill="#054372" d="M41.4,40c-1-0.2-1.9-0.5-2.7-1c-0.8-0.4-1.6-1-2.3-1.6l2.2-2.7c1,0.8,2,1.3,3,1.7c1,0.4,2,0.6,3,0.6
			c1.5,0,2.6-0.2,3.3-0.7c0.7-0.5,1.1-1.1,1.1-2c0-0.6-0.2-1.1-0.6-1.4c-0.4-0.3-0.9-0.5-1.5-0.6c-0.6-0.1-1.4-0.2-2.5-0.3
			c-0.1,0-0.2,0-0.3,0c-0.1,0-0.2,0-0.3,0c0,0-0.1,0-0.1,0c0,0-0.1,0-0.1,0c-1.2-0.1-2.2-0.3-3.1-0.5c-0.8-0.3-1.5-0.7-2.1-1.5
			c-0.6-0.7-0.8-1.7-0.8-3.1s0.3-2.4,0.8-3.3c0.5-0.9,1.3-1.5,2.4-2c1.1-0.4,2.4-0.7,4-0.7c1,0,1.9,0.1,2.8,0.3
			c0.9,0.2,1.7,0.4,2.5,0.8c0.8,0.4,1.6,0.8,2.3,1.3l-2.2,2.7c-0.9-0.6-1.9-1.1-2.8-1.4c-0.9-0.3-1.8-0.5-2.7-0.5
			c-1.3,0-2.2,0.2-2.8,0.6c-0.6,0.4-0.9,1.1-0.9,1.9c0,0.5,0.2,0.9,0.5,1.1c0.4,0.3,0.8,0.4,1.3,0.5c0.5,0.1,1.3,0.2,2.3,0.2
			c0.1,0,0.1,0,0.2,0c0.1,0,0.2,0,0.2,0c0,0,0.1,0,0.1,0s0.1,0,0.1,0c1.3,0.1,2.4,0.3,3.4,0.5c0.9,0.3,1.7,0.8,2.3,1.6
			c0.6,0.8,0.9,1.9,0.9,3.4c0,1.3-0.3,2.5-0.9,3.4s-1.4,1.6-2.6,2c-1.2,0.4-2.6,0.7-4.4,0.7C43.4,40.3,42.4,40.2,41.4,40z"/>
	</g>
</g>
</svg>
