<svg height="512pt" viewBox="0 -7 512 512" width="512pt" xmlns="http://www.w3.org/2000/svg"><path d="m480.433594 311.601562c-.050782-.023437-.097656-.039062-.144532-.058593l-67.984374-26.328125v-14.191406c10.625-8.523438 18.085937-20.839844 20.292968-34.886719 13.644532-1.648438 23.410156-12.964844 23.410156-26.144531 0-6.136719-2.136718-12.007813-5.960937-16.660157v-20.773437c0-14.722656-4.375-28.4375-11.875-39.9375v-45.957032c0-11.375-9.25-20.625-20.621094-20.625h-68.777343v-20.398437c0-25.167969-20.472657-45.640625-45.640626-45.640625h-69.480468c-4.144532 0-7.5 3.359375-7.5 7.5 0 4.144531 3.355468 7.5 7.5 7.5h69.480468c16.898438 0 30.640626 13.746094 30.640626 30.640625v20.398437h-6.871094v-20.398437c0-13.105469-10.660156-23.769531-23.769532-23.769531h-168.097656c-13.105468 0-23.765625 10.660156-23.765625 23.769531v20.398437h-6.871093v-20.398437c0-16.894531 13.746093-30.640625 30.636718-30.640625h63.613282c4.144531 0 7.503906-3.355469 7.503906-7.5 0-4.140625-3.359375-7.5-7.503906-7.5h-63.613282c-25.164062 0-45.636718 20.472656-45.636718 45.640625v20.398437h-68.777344c-11.371094 0-20.621094 9.253907-20.621094 20.625v136.132813c0 9.664063 6.6875 17.773437 15.675781 19.996094v194.332031c0 10.835938 8.8125 19.652344 19.648438 19.652344h207.335937v23.894531c0 9.082031 7.390625 16.46875 16.46875 16.46875h236.398438c9.082031 0 16.472656-7.386719 16.472656-16.46875v-45.230469c0-4.140625-3.355469-7.5-7.5-7.5s-7.5 3.359375-7.5 7.5v45.230469c0 .808594-.660156 1.46875-1.472656 1.46875h-29.339844v-111.304687c0-4.140626-3.359375-7.5-7.5-7.5-4.144531 0-7.5 3.359374-7.5 7.5v111.304687h-56.941406l15.523437-17.074219c2.324219-2.554687 3.417969-6.183594 2.933594-9.707031-.011719-.074219-.023437-.152344-.035156-.226563l-17.164063-101.390624 3.296875-4.957032c8.019531 5.695313 15.617188 1.933594 18.417969-3.675781 0 0 0 0 0-.003906l17.523438-35.117188 40.011718 15.496094c1.570313.683594 22.246094 10.148437 22.246094 34.804687v40.152344c0 4.140625 3.355469 7.5 7.5 7.5 4.140625 0 7.5-3.359375 7.5-7.5v-40.152344c0-35.304687-30.277344-48.160156-31.566406-48.6875zm-131.257813 23.503907-15.246093-30.554688 13.472656-5.21875 19.042968 23.503907c-8.535156 6.0625-16.945312 12.039062-17.269531 12.269531zm-15.40625-71.144531h-25.847656c-3.101563 0-5.621094-2.523438-5.621094-5.625v-14.914063h20.191407c2.292968 7.667969 6.265624 14.757813 11.277343 20.539063zm-15.398437-91.402344c0-32.167969 26.167968-58.339844 58.335937-58.339844 32.203125 0 58.339844 26.253906 58.339844 58.339844v11.695312c-.15625-.03125-1.757813-.320312-1.785156-.320312-.128907-3.203125-1.472657-5.082032-3.992188-7.984375-2.339843-2.703125-6.046875-6.539063-14.644531-15.78125-3.984375-4.28125-10.433594-5.070313-15.328125-1.867188-19.546875 12.765625-43.695313 19.476563-66.277344 17.855469-5.464843-.414062-10.386719 2.941406-12.167969 7.898438-.320312.050781-2.296874.457031-2.480468.503906zm-5.957032 37.433594c0-4.148438 2.875-8.269532 7.726563-10.25v20.933593c-4.746094-1.609375-7.726563-5.898437-7.726563-10.683593zm84.886719 69.65625v8.046874l-19.988281 24.675782-20.03125-24.722656v-7.675782c12.121094 4.25 26.785156 4.734375 40.019531-.324218zm-19.890625-11.34375c-24.8125 0-42.269531-19.078126-42.269531-40.867188v-36.140625c24.429687 1.015625 49.722656-6.28125 70.214844-19.070313 6.984375 7.492188 11.214843 11.917969 12.921875 13.898438 0 44.023438-.023438 42.355469-.023438 42.355469-.5625 22.210937-18.832031 39.824219-40.84375 39.824219zm55.867188-47.613282v-21.378906c4.925781 1.683594 7.730468 6.09375 7.730468 10.679688 0 4.804687-3.019531 9.097656-7.730468 10.699218zm-307.007813-175.050781c0-4.835937 3.933594-8.769531 8.769531-8.769531h168.097657c4.832031 0 8.765625 3.933594 8.765625 8.769531v20.398437h-185.632813zm-111.269531 41.023437c0-3.101562 2.523438-5.625 5.621094-5.625h396.929687c3.097657 0 5.621094 2.523438 5.621094 5.625v29.179688c-13.046875-10.683594-29.519531-16.625-46.457031-16.625h-.007813c-40.429687 0-73.335937 32.894531-73.335937 73.339844v21.3125c-4.03125 4.792968-5.957032 10.5-5.957032 16.121094 0 6.875 2.726563 13.546874 7.546876 18.429687-9.652344 0-263.898438 0-284.335938 0-3.101562 0-5.625-2.523437-5.625-5.621094zm64.792969 156.757813h56.078125v14.914063c0 3.101562-2.519532 5.625-5.621094 5.625h-44.832031c-3.101563 0-5.625-2.523438-5.625-5.625zm-44.46875 198.355469c-2.519531 0-4.648438-2.128906-4.648438-4.652344v-193.703125h34.117188v14.914063c0 11.375 9.253906 20.625 20.625 20.625h44.832031c11.371094 0 20.625-9.25 20.625-20.625v-14.914063h136.421875v14.914063c0 11.375 9.253906 20.625 20.625 20.625h34.359375v6.253906l-67.914062 26.328125c-.046876.019531-.09375.039062-.140626.058593-1.289062.527344-31.566406 13.382813-31.566406 48.6875v81.488282zm268.152343 40.363281v-111.304687c0-4.140626-3.359374-7.5-7.5-7.5-4.144531 0-7.503906 3.359374-7.503906 7.5v111.304687h-29.34375c-.808594 0-1.46875-.660156-1.46875-1.46875v-120.382813c0-16.515624 10.578125-29.765624 22.230469-34.796874l39.988281-15.503907 17.523438 35.117188c2.863281 5.742187 10.507812 9.296875 18.417968 3.679687l3.296876 4.957032-17.164063 101.390624c-.011719.074219-.023437.152344-.035156.226563-.484375 3.523437.609375 7.152344 2.933593 9.707031l15.519532 17.074219zm73.835938-3.667969-20.3125-22.34375 16.34375-96.5625h7.933594l16.34375 96.5625zm6.28125-133.90625h-12.566406l-2.96875-4.472656 9.25-6.570312 9.253906 6.570312zm37.097656-40.015625-15.246094 30.554688c-.195312-.140625-5.484374-3.898438-17.292968-12.285157l19.039062-23.5zm0 0"/></svg>