<?xml version="1.0" encoding="iso-8859-1"?>
<!-- Generator: Adobe Illustrator 22.1.0, SVG Export Plug-In . SVG Version: 6.00 Build 0)  -->
<svg xmlns="http://www.w3.org/2000/svg" xmlns:xlink="http://www.w3.org/1999/xlink" version="1.1" id="Layer_3" x="0px" y="0px" viewBox="0 0 64 64" style="enable-background:new 0 0 64 64;" xml:space="preserve" width="512" height="512">
<g>
	<path d="M60.113,51.881C61.254,50.964,62,49.574,62,48c0-2.757-2.243-5-5-5s-5,2.243-5,5c0,1.574,0.746,2.964,1.887,3.881   c-0.753,0.46-1.399,1.076-1.887,1.81c-0.487-0.734-1.134-1.35-1.887-1.81C51.254,50.964,52,49.574,52,48c0-2.757-2.243-5-5-5   s-5,2.243-5,5c0,1.574,0.746,2.964,1.887,3.881c-0.753,0.46-1.399,1.076-1.887,1.81c-0.487-0.734-1.134-1.35-1.887-1.81   C41.254,50.964,42,49.574,42,48c0-2.757-2.243-5-5-5s-5,2.243-5,5c0,1.574,0.746,2.964,1.887,3.881   c-0.753,0.46-1.399,1.076-1.887,1.81c-0.487-0.734-1.134-1.35-1.887-1.81C31.254,50.964,32,49.574,32,48c0-2.757-2.243-5-5-5   s-5,2.243-5,5c0,1.574,0.746,2.964,1.887,3.881c-0.753,0.46-1.399,1.076-1.887,1.81c-0.487-0.734-1.134-1.35-1.887-1.81   C21.254,50.964,22,49.574,22,48c0-2.757-2.243-5-5-5s-5,2.243-5,5c0,1.574,0.746,2.964,1.887,3.881   c-0.753,0.46-1.399,1.076-1.887,1.81c-0.487-0.734-1.134-1.35-1.887-1.81C11.254,50.964,12,49.574,12,48c0-2.757-2.243-5-5-5   s-5,2.243-5,5c0,1.574,0.746,2.964,1.887,3.881C2.159,52.935,1,54.832,1,57v5c0,0.553,0.448,1,1,1h10h10h10h10h10h10   c0.552,0,1-0.447,1-1v-5C63,54.832,61.841,52.935,60.113,51.881z M57,53c0.472,0,0.918,0.097,1.339,0.247L57,54.586l-1.339-1.339   C56.082,53.097,56.528,53,57,53z M54,48c0-1.654,1.346-3,3-3s3,1.346,3,3s-1.346,3-3,3S54,49.654,54,48z M47,53   c0.472,0,0.918,0.097,1.339,0.247L47,54.586l-1.339-1.339C46.082,53.097,46.528,53,47,53z M44,48c0-1.654,1.346-3,3-3s3,1.346,3,3   s-1.346,3-3,3S44,49.654,44,48z M37,53c0.472,0,0.918,0.097,1.339,0.247L37,54.586l-1.339-1.339C36.082,53.097,36.528,53,37,53z    M34,48c0-1.654,1.346-3,3-3s3,1.346,3,3s-1.346,3-3,3S34,49.654,34,48z M27,53c0.472,0,0.918,0.097,1.339,0.247L27,54.586   l-1.339-1.339C26.082,53.097,26.528,53,27,53z M24,48c0-1.654,1.346-3,3-3s3,1.346,3,3s-1.346,3-3,3S24,49.654,24,48z M17,53   c0.472,0,0.918,0.097,1.339,0.247L17,54.586l-1.339-1.339C16.082,53.097,16.528,53,17,53z M14,48c0-1.654,1.346-3,3-3s3,1.346,3,3   s-1.346,3-3,3S14,49.654,14,48z M7,53c0.472,0,0.918,0.097,1.339,0.247L7,54.586l-1.339-1.339C6.082,53.097,6.528,53,7,53z M4,48   c0-1.654,1.346-3,3-3s3,1.346,3,3s-1.346,3-3,3S4,49.654,4,48z M3,57c0-0.997,0.38-1.899,0.986-2.6l2.307,2.307   C6.488,56.902,6.744,57,7,57s0.512-0.098,0.707-0.293l2.307-2.307C10.62,55.101,11,56.003,11,57v4H3V57z M13,57   c0-0.997,0.38-1.899,0.986-2.6l2.307,2.307C16.488,56.902,16.744,57,17,57s0.512-0.098,0.707-0.293l2.307-2.307   C20.62,55.101,21,56.003,21,57v4h-8V57z M23,57c0-0.997,0.38-1.899,0.986-2.6l2.307,2.307C26.488,56.902,26.744,57,27,57   s0.512-0.098,0.707-0.293l2.307-2.307C30.62,55.101,31,56.003,31,57v4h-8V57z M33,57c0-0.997,0.38-1.899,0.986-2.6l2.307,2.307   C36.488,56.902,36.744,57,37,57s0.512-0.098,0.707-0.293l2.307-2.307C40.62,55.101,41,56.003,41,57v4h-8V57z M43,57   c0-0.997,0.38-1.899,0.986-2.6l2.307,2.307C46.488,56.902,46.744,57,47,57s0.512-0.098,0.707-0.293l2.307-2.307   C50.62,55.101,51,56.003,51,57v4h-8V57z M61,61h-8v-4c0-0.997,0.38-1.899,0.986-2.6l2.307,2.307C56.488,56.902,56.744,57,57,57   s0.512-0.098,0.707-0.293l2.307-2.307C60.62,55.101,61,56.003,61,57V61z"/>
	<path d="M25,19h4c0.552,0,1-0.447,1-1v-4c0-0.553-0.448-1-1-1h-4c-0.552,0-1,0.447-1,1v4C24,18.553,24.448,19,25,19z M26,15h2v2h-2   V15z"/>
	<path d="M35,19h4c0.552,0,1-0.447,1-1v-4c0-0.553-0.448-1-1-1h-4c-0.552,0-1,0.447-1,1v4C34,18.553,34.448,19,35,19z M36,15h2v2h-2   V15z"/>
	<path d="M25,11h4c0.552,0,1-0.447,1-1V6c0-0.553-0.448-1-1-1h-4c-0.552,0-1,0.447-1,1v4C24,10.553,24.448,11,25,11z M26,7h2v2h-2V7   z"/>
	<path d="M35,11h4c0.552,0,1-0.447,1-1V6c0-0.553-0.448-1-1-1h-4c-0.552,0-1,0.447-1,1v4C34,10.553,34.448,11,35,11z M36,7h2v2h-2V7   z"/>
	<path d="M25,27h4c0.552,0,1-0.447,1-1v-4c0-0.553-0.448-1-1-1h-4c-0.552,0-1,0.447-1,1v4C24,26.553,24.448,27,25,27z M26,23h2v2h-2   V23z"/>
	<path d="M35,27h4c0.552,0,1-0.447,1-1v-4c0-0.553-0.448-1-1-1h-4c-0.552,0-1,0.447-1,1v4C34,26.553,34.448,27,35,27z M36,23h2v2h-2   V23z"/>
	<path d="M47,17h4c0.552,0,1-0.447,1-1v-4c0-0.553-0.448-1-1-1h-4c-0.552,0-1,0.447-1,1v4C46,16.553,46.448,17,47,17z M48,13h2v2h-2   V13z"/>
	<path d="M47,25h4c0.552,0,1-0.447,1-1v-4c0-0.553-0.448-1-1-1h-4c-0.552,0-1,0.447-1,1v4C46,24.553,46.448,25,47,25z M48,21h2v2h-2   V21z"/>
	<path d="M9,35h11v1c0,0.553,0.448,1,1,1h22c0.552,0,1-0.447,1-1v-1h11c0.552,0,1-0.447,1-1V8c0-0.553-0.448-1-1-1H44V2   c0-0.553-0.448-1-1-1H21c-0.552,0-1,0.447-1,1v5H9C8.448,7,8,7.447,8,8v26C8,34.553,8.448,35,9,35z M16,33h-2v-3   c0-0.552,0.449-1,1-1s1,0.448,1,1V33z M36,35h-8v-3c0-0.552,0.449-1,1-1h6c0.551,0,1,0.448,1,1V35z M50,33h-2v-3   c0-0.552,0.449-1,1-1s1,0.448,1,1V33z M54,9v24h-2v-3c0-1.654-1.346-3-3-3s-3,1.346-3,3v3h-2V9H54z M22,3h20v5v26v1h-4v-3   c0-1.654-1.346-3-3-3h-6c-1.654,0-3,1.346-3,3v3h-4v-1V8V3z M10,9h10v24h-2v-3c0-1.654-1.346-3-3-3s-3,1.346-3,3v3h-2V9z"/>
	<path d="M13,17h4c0.552,0,1-0.447,1-1v-4c0-0.553-0.448-1-1-1h-4c-0.552,0-1,0.447-1,1v4C12,16.553,12.448,17,13,17z M14,13h2v2h-2   V13z"/>
	<path d="M13,25h4c0.552,0,1-0.447,1-1v-4c0-0.553-0.448-1-1-1h-4c-0.552,0-1,0.447-1,1v4C12,24.553,12.448,25,13,25z M14,21h2v2h-2   V21z"/>
	<path d="M11.293,37.293l-3,3l1.414,1.414L12,39.414l2.293,2.293l1.414-1.414l-3-3C12.316,36.902,11.684,36.902,11.293,37.293z"/>
	<path d="M51.293,37.293l-3,3l1.414,1.414L52,39.414l2.293,2.293l1.414-1.414l-3-3C52.316,36.902,51.684,36.902,51.293,37.293z"/>
</g>
</svg>
