<?xml version="1.0" encoding="iso-8859-1"?>
<!-- Generator: Adobe Illustrator 24.0.2, SVG Export Plug-In . SVG Version: 6.00 Build 0)  -->
<!DOCTYPE svg PUBLIC "-//W3C//DTD SVG 1.0//EN" "http://www.w3.org/TR/2001/REC-SVG-20010904/DTD/svg10.dtd" [
	<!ENTITY ns_extend "http://ns.adobe.com/Extensibility/1.0/">
	<!ENTITY ns_ai "http://ns.adobe.com/AdobeIllustrator/10.0/">
	<!ENTITY ns_graphs "http://ns.adobe.com/Graphs/1.0/">
	<!ENTITY ns_vars "http://ns.adobe.com/Variables/1.0/">
	<!ENTITY ns_imrep "http://ns.adobe.com/ImageReplacement/1.0/">
	<!ENTITY ns_sfw "http://ns.adobe.com/SaveForWeb/1.0/">
	<!ENTITY ns_custom "http://ns.adobe.com/GenericCustomNamespace/1.0/">
	<!ENTITY ns_adobe_xpath "http://ns.adobe.com/XPath/1.0/">
]>
<svg version="1.0" id="Capa_1" xmlns:x="&ns_extend;" xmlns:i="&ns_ai;" xmlns:graph="&ns_graphs;"
	 xmlns="http://www.w3.org/2000/svg" xmlns:xlink="http://www.w3.org/1999/xlink" x="0px" y="0px" viewBox="0 0 67 49"
	 enable-background="new 0 0 67 49" xml:space="preserve">
<metadata>
	<sfw  xmlns="&ns_sfw;">
		<slices></slices>
		<sliceSourceBounds  bottomLeftOrigin="true" height="32.3" width="58" x="575.3" y="-213.9"></sliceSourceBounds>
	</sfw>
</metadata>
<g>
	<path fill="#F0F0F0" d="M62.3,31.4c0,2.6-1.1,5-2.8,6.8c-1.7,1.7-4.1,2.8-6.8,2.8H12.6c-4.6,0-8.3-3.7-8.3-8.3
		c0-4.6,3.7-8.3,8.3-8.3c1.5,0,2.9,0.4,4.1,1.1c-0.2-0.5-0.3-1.1-0.3-1.7c0-2.8,2.3-5.1,5.1-5.1c1.7,0,3.1,0.8,4.1,2
		C26,14.2,31,9.1,37.4,8.7c0.3,0,0.6,0,0.9,0c7.1,0,12.8,5.7,12.8,12.8c0,0.2,0,0.3,0,0.5c0.6-0.1,1.1-0.2,1.7-0.2
		C58,21.8,62.3,26.1,62.3,31.4z"/>
	<path fill="#FFFFFF" d="M62.3,31.4c0,2.6-1.1,5-2.8,6.8c-1.7,1.7-4.1,2.8-6.8,2.8H37.4V8.7c0.3,0,0.6,0,0.9,0
		c7.1,0,12.8,5.7,12.8,12.8c0,0.2,0,0.3,0,0.5c0.6-0.1,1.1-0.2,1.7-0.2C58,21.8,62.3,26.1,62.3,31.4z"/>
</g>
</svg>
