<?xml version="1.0" encoding="iso-8859-1"?>
<!-- Generator: Adobe Illustrator 24.0.2, SVG Export Plug-In . SVG Version: 6.00 Build 0)  -->
<!DOCTYPE svg PUBLIC "-//W3C//DTD SVG 1.0//EN" "http://www.w3.org/TR/2001/REC-SVG-20010904/DTD/svg10.dtd" [
	<!ENTITY ns_extend "http://ns.adobe.com/Extensibility/1.0/">
	<!ENTITY ns_ai "http://ns.adobe.com/AdobeIllustrator/10.0/">
	<!ENTITY ns_graphs "http://ns.adobe.com/Graphs/1.0/">
	<!ENTITY ns_vars "http://ns.adobe.com/Variables/1.0/">
	<!ENTITY ns_imrep "http://ns.adobe.com/ImageReplacement/1.0/">
	<!ENTITY ns_sfw "http://ns.adobe.com/SaveForWeb/1.0/">
	<!ENTITY ns_custom "http://ns.adobe.com/GenericCustomNamespace/1.0/">
	<!ENTITY ns_adobe_xpath "http://ns.adobe.com/XPath/1.0/">
]>
<svg version="1.0" id="Capa_1" xmlns:x="&ns_extend;" xmlns:i="&ns_ai;" xmlns:graph="&ns_graphs;"
	 xmlns="http://www.w3.org/2000/svg" xmlns:xlink="http://www.w3.org/1999/xlink" x="0px" y="0px" viewBox="0 0 101 91"
	 enable-background="new 0 0 101 91" xml:space="preserve">
<metadata>
	<sfw  xmlns="&ns_sfw;">
		<slices></slices>
		<sliceSourceBounds  bottomLeftOrigin="true" height="79.3" width="81.1" x="59.1" y="-139.3"></sliceSourceBounds>
	</sfw>
</metadata>
<g>
	<path fill="none" stroke="#FFFFFF" stroke-width="5" stroke-linecap="round" stroke-linejoin="round" stroke-miterlimit="10" d="
		M72.8,24c-0.4,0-0.8,0-1.2,0.1c0-0.1,0-0.3,0-0.4c0-9.4-7.7-17.1-17.1-17.1c-8.7,0-15.8,6.4-16.9,14.8c-0.5-0.1-1-0.1-1.6-0.1
		c-5.2,0-9.4,4.2-9.4,9.4c0,0.3,0,0.6,0,0.8c-0.6-0.1-1.2-0.1-1.8-0.1c-6.7,0-12.2,5.5-12.2,12.2c0,6.7,5.5,12.2,12.2,12.2
		c6.7,0,39.4,0,48,0c8.8,0,15.9-7.1,15.9-15.9S81.5,24,72.8,24z"/>
	<g>
		<g>
			
				<line fill="none" stroke="#FFFFFF" stroke-width="5" stroke-linecap="round" stroke-linejoin="round" stroke-miterlimit="10" x1="30.4" y1="63.1" x2="25.9" y2="70.1"/>
			
				<line fill="none" stroke="#FFFFFF" stroke-width="5" stroke-linecap="round" stroke-linejoin="round" stroke-miterlimit="10" x1="49.2" y1="63.1" x2="44.8" y2="70.1"/>
			
				<line fill="none" stroke="#FFFFFF" stroke-width="5" stroke-linecap="round" stroke-linejoin="round" stroke-miterlimit="10" x1="68.1" y1="63.1" x2="63.6" y2="70.1"/>
		</g>
		<g>
			
				<line fill="none" stroke="#FFFFFF" stroke-width="5" stroke-linecap="round" stroke-linejoin="round" stroke-miterlimit="10" x1="35.4" y1="73.8" x2="30.9" y2="80.8"/>
			
				<line fill="none" stroke="#FFFFFF" stroke-width="5" stroke-linecap="round" stroke-linejoin="round" stroke-miterlimit="10" x1="54.2" y1="73.8" x2="49.8" y2="80.8"/>
		</g>
	</g>
</g>
</svg>
