<?xml version="1.0" encoding="iso-8859-1"?>
<!-- Generator: Adobe Illustrator 24.0.2, SVG Export Plug-In . SVG Version: 6.00 Build 0)  -->
<!DOCTYPE svg PUBLIC "-//W3C//DTD SVG 1.0//EN" "http://www.w3.org/TR/2001/REC-SVG-20010904/DTD/svg10.dtd" [
	<!ENTITY ns_extend "http://ns.adobe.com/Extensibility/1.0/">
	<!ENTITY ns_ai "http://ns.adobe.com/AdobeIllustrator/10.0/">
	<!ENTITY ns_graphs "http://ns.adobe.com/Graphs/1.0/">
	<!ENTITY ns_vars "http://ns.adobe.com/Variables/1.0/">
	<!ENTITY ns_imrep "http://ns.adobe.com/ImageReplacement/1.0/">
	<!ENTITY ns_sfw "http://ns.adobe.com/SaveForWeb/1.0/">
	<!ENTITY ns_custom "http://ns.adobe.com/GenericCustomNamespace/1.0/">
	<!ENTITY ns_adobe_xpath "http://ns.adobe.com/XPath/1.0/">
]>
<svg version="1.0" id="Capa_1" xmlns:x="&ns_extend;" xmlns:i="&ns_ai;" xmlns:graph="&ns_graphs;"
	 xmlns="http://www.w3.org/2000/svg" xmlns:xlink="http://www.w3.org/1999/xlink" x="0px" y="0px" viewBox="0 0 113 96"
	 enable-background="new 0 0 113 96" xml:space="preserve">
<metadata>
	<sfw  xmlns="&ns_sfw;">
		<slices></slices>
		<sliceSourceBounds  bottomLeftOrigin="true" height="90.9" width="81.1" x="59.1" y="-145.1"></sliceSourceBounds>
	</sfw>
</metadata>
<g>
	<path fill="none" stroke="#FFFFFF" stroke-width="5" stroke-linecap="round" stroke-linejoin="round" stroke-miterlimit="10" d="
		M79.8,34.8c-0.4,0-0.8,0-1.2,0.1c0-0.1,0-0.3,0-0.4c0-9.4-7.7-17.1-17.1-17.1c-8.7,0-15.8,6.4-16.9,14.8C44,32,43.5,32,43,32
		c-5.2,0-9.4,4.2-9.4,9.4c0,0.3,0,0.6,0,0.8c-0.6-0.1-1.2-0.1-1.8-0.1c-6.7,0-12.2,5.5-12.2,12.2c0,6.7,5.5,12.2,12.2,12.2
		c6.7,0,39.4,0,48,0c8.8,0,15.9-7.1,15.9-15.9S88.5,34.8,79.8,34.8z"/>
	<g>
		<g>
			
				<line fill="none" stroke="#FFFFFF" stroke-width="5" stroke-linecap="round" stroke-linejoin="round" stroke-miterlimit="10" x1="37.4" y1="73.9" x2="32.9" y2="80.9"/>
			
				<line fill="none" stroke="#FFFFFF" stroke-width="5" stroke-linecap="round" stroke-linejoin="round" stroke-miterlimit="10" x1="56.2" y1="73.9" x2="51.8" y2="80.9"/>
			
				<line fill="none" stroke="#FFFFFF" stroke-width="5" stroke-linecap="round" stroke-linejoin="round" stroke-miterlimit="10" x1="75.1" y1="73.9" x2="70.6" y2="80.9"/>
		</g>
		<g>
			
				<line fill="none" stroke="#FFFFFF" stroke-width="5" stroke-linecap="round" stroke-linejoin="round" stroke-miterlimit="10" x1="42.4" y1="84.6" x2="37.9" y2="91.6"/>
			
				<line fill="none" stroke="#FFFFFF" stroke-width="5" stroke-linecap="round" stroke-linejoin="round" stroke-miterlimit="10" x1="61.2" y1="84.6" x2="56.8" y2="91.6"/>
		</g>
	</g>
	
		<line fill="none" stroke="#FFFFFF" stroke-width="5" stroke-linecap="round" stroke-linejoin="round" stroke-miterlimit="10" x1="44.2" y1="5.7" x2="44.2" y2="10.9"/>
	
		<line fill="none" stroke="#FFFFFF" stroke-width="5" stroke-linecap="round" stroke-linejoin="round" stroke-miterlimit="10" x1="32.1" y1="9.9" x2="34.6" y2="14.2"/>
	
		<line fill="none" stroke="#FFFFFF" stroke-width="5" stroke-linecap="round" stroke-linejoin="round" stroke-miterlimit="10" x1="20" y1="30.9" x2="25" y2="30.9"/>
	
		<line fill="none" stroke="#FFFFFF" stroke-width="5" stroke-linecap="round" stroke-linejoin="round" stroke-miterlimit="10" x1="53.8" y1="14.2" x2="56.3" y2="9.9"/>
	
		<line fill="none" stroke="#FFFFFF" stroke-width="5" stroke-linecap="round" stroke-linejoin="round" stroke-miterlimit="10" x1="22.4" y1="18.3" x2="26.9" y2="20.9"/>
	
		<line fill="none" stroke="#FFFFFF" stroke-width="5" stroke-linecap="round" stroke-linejoin="round" stroke-miterlimit="10" x1="22.4" y1="43.5" x2="26.9" y2="40.9"/>
	<path fill="none" stroke="#FFFFFF" stroke-width="5" stroke-linecap="round" stroke-linejoin="round" stroke-miterlimit="10" d="
		M43,32c0.5,0,1,0,1.6,0.1c0.7-5.4,4-10,8.6-12.6c-2.5-1.9-5.6-3.1-8.9-3.1c-8,0-14.5,6.5-14.5,14.5c0,3.8,1.5,7.2,3.9,9.8
		C33.9,35.8,38,32,43,32z"/>
</g>
</svg>
