<?xml version="1.0" encoding="iso-8859-1"?>
<!-- Generator: Adobe Illustrator 24.0.2, SVG Export Plug-In . SVG Version: 6.00 Build 0)  -->
<!DOCTYPE svg PUBLIC "-//W3C//DTD SVG 1.0//EN" "http://www.w3.org/TR/2001/REC-SVG-20010904/DTD/svg10.dtd" [
	<!ENTITY ns_extend "http://ns.adobe.com/Extensibility/1.0/">
	<!ENTITY ns_ai "http://ns.adobe.com/AdobeIllustrator/10.0/">
	<!ENTITY ns_graphs "http://ns.adobe.com/Graphs/1.0/">
	<!ENTITY ns_vars "http://ns.adobe.com/Variables/1.0/">
	<!ENTITY ns_imrep "http://ns.adobe.com/ImageReplacement/1.0/">
	<!ENTITY ns_sfw "http://ns.adobe.com/SaveForWeb/1.0/">
	<!ENTITY ns_custom "http://ns.adobe.com/GenericCustomNamespace/1.0/">
	<!ENTITY ns_adobe_xpath "http://ns.adobe.com/XPath/1.0/">
]>
<svg version="1.0" id="Capa_1" xmlns:x="&ns_extend;" xmlns:i="&ns_ai;" xmlns:graph="&ns_graphs;"
	 xmlns="http://www.w3.org/2000/svg" xmlns:xlink="http://www.w3.org/1999/xlink" x="0px" y="0px" viewBox="0 0 94 77"
	 enable-background="new 0 0 94 77" xml:space="preserve">
<metadata>
	<sfw  xmlns="&ns_sfw;">
		<slices></slices>
		<sliceSourceBounds  bottomLeftOrigin="true" height="72.1" width="86.5" x="56.4" y="-135.7"></sliceSourceBounds>
	</sfw>
</metadata>
<g>
	<path fill="none" stroke="#FFFFFF" stroke-width="5" stroke-linecap="round" stroke-linejoin="round" stroke-miterlimit="10" d="
		M60.8,43.2c-0.4,0-0.8,0-1.1,0c0-0.1,0-0.2,0-0.4c0-8.6-7-15.6-15.6-15.6c-7.9,0-14.4,5.9-15.5,13.5c-0.5-0.1-0.9-0.1-1.4-0.1
		c-4.8,0-8.6,3.8-8.6,8.6c0,0.3,0,0.5,0,0.8c-0.5-0.1-1.1-0.1-1.6-0.1c-6.2,0-11.1,5-11.1,11.1c0,6.2,5,11.1,11.1,11.1
		c6.2,0,36,0,43.8,0c8,0,14.5-6.5,14.5-14.5C75.3,49.7,68.8,43.2,60.8,43.2z"/>
	<path fill="none" stroke="#FFFFFF" stroke-width="5" stroke-linecap="round" stroke-linejoin="round" stroke-miterlimit="10" d="
		M87.4,34.7C84.5,36.8,81,38,77.3,38c-9.4,0-17-7.6-17-17c0-7,4.2-13,10.2-15.6c-1.3-0.3-2.7-0.4-4.2-0.4
		c-12.3,0-22.2,9.9-22.2,22.2c0,0,0,0,0,0c8.6,0,15.5,7,15.5,15.6c0,0.1,0,0.2,0,0.4c0.4,0,0.7,0,1.1,0c4.6,0,8.7,2.2,11.4,5.5
		C79.3,46.8,85,41.5,87.4,34.7z"/>
</g>
</svg>
