<?xml version="1.0" encoding="iso-8859-1"?>
<!-- Generator: Adobe Illustrator 24.0.2, SVG Export Plug-In . SVG Version: 6.00 Build 0)  -->
<!DOCTYPE svg PUBLIC "-//W3C//DTD SVG 1.0//EN" "http://www.w3.org/TR/2001/REC-SVG-20010904/DTD/svg10.dtd" [
	<!ENTITY ns_extend "http://ns.adobe.com/Extensibility/1.0/">
	<!ENTITY ns_ai "http://ns.adobe.com/AdobeIllustrator/10.0/">
	<!ENTITY ns_graphs "http://ns.adobe.com/Graphs/1.0/">
	<!ENTITY ns_vars "http://ns.adobe.com/Variables/1.0/">
	<!ENTITY ns_imrep "http://ns.adobe.com/ImageReplacement/1.0/">
	<!ENTITY ns_sfw "http://ns.adobe.com/SaveForWeb/1.0/">
	<!ENTITY ns_custom "http://ns.adobe.com/GenericCustomNamespace/1.0/">
	<!ENTITY ns_adobe_xpath "http://ns.adobe.com/XPath/1.0/">
]>
<svg version="1.0" id="Capa_1" xmlns:x="&ns_extend;" xmlns:i="&ns_ai;" xmlns:graph="&ns_graphs;"
	 xmlns="http://www.w3.org/2000/svg" xmlns:xlink="http://www.w3.org/1999/xlink" x="0px" y="0px" viewBox="0 0 77 54"
	 enable-background="new 0 0 77 54" xml:space="preserve">
<metadata>
	<sfw  xmlns="&ns_sfw;">
		<slices></slices>
		<sliceSourceBounds  bottomLeftOrigin="true" height="44.4" width="58" x="70.1" y="-122.4"></sliceSourceBounds>
	</sfw>
</metadata>
<g>
	<path fill="#F0F0F0" d="M67.1,27.6c0,2.6-1.1,5-2.8,6.8c-1.7,1.7-4.1,2.8-6.8,2.8H17.5c-4.6,0-8.3-3.7-8.3-8.3
		c0-4.6,3.7-8.3,8.3-8.3c1.5,0,2.9,0.4,4.1,1.1c-0.2-0.5-0.3-1.1-0.3-1.7c0-2.8,2.3-5.1,5.1-5.1c1.7,0,3.1,0.8,4.1,2
		C30.8,10.5,35.8,5.4,42.2,5c0.3,0,0.6,0,0.9,0c7.1,0,12.8,5.7,12.8,12.8c0,0.2,0,0.3,0,0.5c0.6-0.1,1.1-0.2,1.7-0.2
		C62.8,18,67.1,22.3,67.1,27.6z"/>
	<path fill="#FFFFFF" d="M67.1,27.6c0,2.6-1.1,5-2.8,6.8c-1.7,1.7-4.1,2.8-6.8,2.8H42.2V5c0.3,0,0.6,0,0.9,0
		c7.1,0,12.8,5.7,12.8,12.8c0,0.2,0,0.3,0,0.5c0.6-0.1,1.1-0.2,1.7-0.2C62.8,18,67.1,22.3,67.1,27.6z"/>
	<g>
		<path fill="#96DCF0" d="M54.2,43.4c0,3.3-2.7,6-6,6c-3.3,0-6-2.7-6-6c0-3.3,6-11.9,6-11.9S54.2,40,54.2,43.4z"/>
		<path fill="#A0E6FA" d="M54.2,43.4c0,3.3-2.7,6-6,6V31.5C48.2,31.5,54.2,40,54.2,43.4z"/>
		<path fill="#FFFFFF" d="M48.2,47.7v-0.8c1.9,0,3.5-1.6,3.5-3.5h0.8C52.6,45.8,50.6,47.7,48.2,47.7z"/>
	</g>
	<path fill="#96DCF0" d="M38.5,37.4c0,1.6-1.3,3-3,3c-1.6,0-3-1.3-3-3c0-1.6,3-5.9,3-5.9S38.5,35.7,38.5,37.4z"/>
	<path fill="#A0E6FA" d="M38.5,37.4c0,1.6-1.3,3-3,3v-8.8C35.5,31.5,38.5,35.7,38.5,37.4z"/>
</g>
</svg>
