<?xml version="1.0" encoding="iso-8859-1"?>
<!-- Generator: Adobe Illustrator 24.0.2, SVG Export Plug-In . SVG Version: 6.00 Build 0)  -->
<!DOCTYPE svg PUBLIC "-//W3C//DTD SVG 1.0//EN" "http://www.w3.org/TR/2001/REC-SVG-20010904/DTD/svg10.dtd" [
	<!ENTITY ns_extend "http://ns.adobe.com/Extensibility/1.0/">
	<!ENTITY ns_ai "http://ns.adobe.com/AdobeIllustrator/10.0/">
	<!ENTITY ns_graphs "http://ns.adobe.com/Graphs/1.0/">
	<!ENTITY ns_vars "http://ns.adobe.com/Variables/1.0/">
	<!ENTITY ns_imrep "http://ns.adobe.com/ImageReplacement/1.0/">
	<!ENTITY ns_sfw "http://ns.adobe.com/SaveForWeb/1.0/">
	<!ENTITY ns_custom "http://ns.adobe.com/GenericCustomNamespace/1.0/">
	<!ENTITY ns_adobe_xpath "http://ns.adobe.com/XPath/1.0/">
]>
<svg version="1.0" id="Capa_1" xmlns:x="&ns_extend;" xmlns:i="&ns_ai;" xmlns:graph="&ns_graphs;"
	 xmlns="http://www.w3.org/2000/svg" xmlns:xlink="http://www.w3.org/1999/xlink" x="0px" y="0px" viewBox="0 0 75 52"
	 enable-background="new 0 0 75 52" xml:space="preserve">
<metadata>
	<sfw  xmlns="&ns_sfw;">
		<slices></slices>
		<sliceSourceBounds  bottomLeftOrigin="true" height="40" width="60" x="69.6" y="-119.7"></sliceSourceBounds>
	</sfw>
</metadata>
<g>
	<g>
		<path fill="#FFC800" d="M33.3,20.9c0,5.8-4.7,10.4-10.4,10.4c-5.8,0-10.4-4.7-10.4-10.4c0-5.8,4.7-10.4,10.4-10.4
			C28.6,10.5,33.3,15.2,33.3,20.9z"/>
		<g>
			<g>
				<path fill="#FFC800" d="M31.7,28.3c0.5-0.5,1.6-2.2,2-3.5c1.1,1,2.4,2.6,3.3,4.2C35.1,29.1,33.1,28.8,31.7,28.3z"/>
			</g>
			<g>
				<path fill="#FFC800" d="M26.8,31.7c0.8-0.3,0.7-0.3,1.8-0.8c1-0.6,0.3-0.1,1.6-1.1C31.1,32.4,31,35,31,35S28.7,33.8,26.8,31.7z"
					/>
			</g>
			<g>
				<path fill="#FFC800" d="M20.8,32.3c2.5,0.3,2.7,0.1,3.4,0.1c0.4-0.1,0.6-0.1,0.6-0.1c-0.4,1.7-1.2,3.7-2,4.9
					C21.9,35.6,21.2,33.9,20.8,32.3z"/>
			</g>
			<g>
				<path fill="#FFC800" d="M15.5,29.7c0.5,0.5,2.2,1.6,3.5,2c-1,1.1-2.6,2.4-4.2,3.3C14.7,33.1,15,31.1,15.5,29.7z"/>
			</g>
			<g>
				<path fill="#FFC800" d="M12,24.8c0.3,0.8,0.3,0.7,0.8,1.8c0.6,1,0.1,0.3,1.2,1.6C11.3,29.1,8.8,29,8.8,29S10,26.7,12,24.8z"/>
			</g>
			<g>
				<path fill="#FFC800" d="M11.5,18.9c-0.2,1.5-0.1,0.9-0.2,2c0,0.5,0.1,1,0.1,1.4c0.1,0.4,0.1,0.6,0.1,0.6c-1.7-0.4-3.6-1.2-4.9-2
					C8.1,20,9.9,19.3,11.5,18.9z"/>
			</g>
			<g>
				<path fill="#FFC800" d="M14,13.5c0,0-0.2,0.2-0.4,0.5c-0.6,0.8-1.2,1.8-1.6,3c-1.1-1-2.4-2.6-3.3-4.2
					C10.6,12.7,12.6,13.1,14,13.5z"/>
			</g>
			<g>
				<path fill="#FFC800" d="M18.9,10.1c-1.9,0.7-2.6,1.3-3.5,2c-0.8-2.7-0.7-5.3-0.7-5.3S17.1,8,18.9,10.1z"/>
			</g>
			<g>
				<path fill="#FFC800" d="M24.9,9.6c-2.5-0.3-2.7-0.1-3.4-0.1c-0.4,0-0.6,0.1-0.6,0.1c0.4-1.7,1.2-3.6,2-4.9
					C23.7,6.1,24.5,7.8,24.9,9.6z"/>
			</g>
			<g>
				<path fill="#FFC800" d="M30.3,12.1c-0.5-0.5-2.2-1.6-3.5-2c1-1.1,2.6-2.4,4.2-3.3C31.1,8.7,30.7,10.8,30.3,12.1z"/>
			</g>
			<g>
				<path fill="#FFC800" d="M33.7,17c-0.3-0.8-0.3-0.7-0.8-1.8c-0.6-1-0.1-0.3-1.2-1.6c2.7-0.8,5.3-0.7,5.3-0.7S35.7,15.1,33.7,17z"
					/>
			</g>
			<g>
				<path fill="#FFC800" d="M34.2,22.9c0.2-1.5,0.1-0.9,0.2-2c0-0.5-0.1-1-0.1-1.4c-0.1-0.4-0.1-0.6-0.1-0.6c1.7,0.4,3.7,1.2,4.9,2
					C37.7,21.8,36,22.5,34.2,22.9z"/>
			</g>
		</g>
		<path fill="#FFC800" d="M33.3,20.9c0,5.8-4.7,10.4-10.4,10.4c0,0,0,0,0,0c-5.7,0-10.4-4.7-10.4-10.4c0-5.7,4.7-10.4,10.4-10.4
			c0,0,0,0,0,0C28.6,10.5,33.3,15.2,33.3,20.9z"/>
		<g>
			<g>
				<path fill="#FFC800" d="M36.9,29.1c-1.9,0-3.9-0.3-5.3-0.7c0.5-0.5,1.6-2.2,2-3.5C34.8,25.9,36,27.4,36.9,29.1z"/>
			</g>
			<g>
				<path fill="#FFC800" d="M31,35c0,0-2.3-1.2-4.2-3.3c0.8-0.3,0.7-0.3,1.8-0.8c1-0.6,0.3-0.1,1.7-1.2C31.1,32.4,31,35,31,35z"/>
			</g>
			<g>
				<path fill="#FFC800" d="M24.8,32.3c-0.4,1.7-1.2,3.6-2,4.9c0,0,0,0,0,0c-0.9-1.5-1.6-3.3-2-4.9c1,0.1,1.6,0.2,2,0.2
					c0.7,0,0.9-0.1,1.4-0.1C24.6,32.3,24.8,32.3,24.8,32.3z"/>
			</g>
			<g>
				<path fill="#FFC800" d="M15.5,29.7c0.5,0.5,2.2,1.6,3.5,2c-1,1.1-2.6,2.4-4.2,3.3C14.7,33.1,15,31.1,15.5,29.7z"/>
			</g>
			<g>
				<path fill="#FFC800" d="M12,24.8c0.3,0.8,0.3,0.7,0.8,1.8c0.6,1,0.1,0.3,1.2,1.6C11.3,29.1,8.8,29,8.8,29S10,26.7,12,24.8z"/>
			</g>
			<g>
				<path fill="#FFC800" d="M11.5,18.9c-0.2,1.5-0.1,0.9-0.2,2c0,0.5,0.1,1,0.1,1.4c0.1,0.4,0.1,0.6,0.1,0.6c-1.7-0.4-3.6-1.2-4.9-2
					C8.1,20,9.9,19.3,11.5,18.9z"/>
			</g>
			<g>
				<path fill="#FFC800" d="M14,13.5c0,0-0.2,0.2-0.4,0.5c-0.6,0.8-1.2,1.8-1.6,3c-1.1-1-2.4-2.6-3.3-4.2
					C10.6,12.7,12.6,13.1,14,13.5z"/>
			</g>
			<g>
				<path fill="#FFC800" d="M18.9,10.1c-1.9,0.7-2.6,1.3-3.5,2c-0.8-2.7-0.7-5.3-0.7-5.3S17.1,8,18.9,10.1z"/>
			</g>
			<g>
				<path fill="#FFC800" d="M24.9,9.6c-1-0.1-1.6-0.2-2-0.2c-0.7,0-0.9,0.1-1.4,0.1c-0.4,0-0.6,0.1-0.6,0.1c0.4-1.7,1.2-3.5,2-4.9
					c0,0,0,0,0-0.1C23.7,6.1,24.5,7.8,24.9,9.6z"/>
			</g>
			<g>
				<path fill="#FFC800" d="M30.3,12.1c-0.5-0.5-2.2-1.6-3.5-2c1-1.1,2.6-2.4,4.2-3.3C31.1,8.7,30.7,10.8,30.3,12.1z"/>
			</g>
			<g>
				<path fill="#FFC800" d="M37,12.8c0,0-1.2,2.3-3.3,4.2c-0.3-0.8-0.3-0.7-0.8-1.8c-0.6-1-0.1-0.3-1.2-1.6
					C34.4,12.7,37,12.8,37,12.8z"/>
			</g>
			<g>
				<path fill="#FFC800" d="M34.4,20.9c0-0.5-0.1-1-0.1-1.4c-0.1-0.4-0.1-0.6-0.1-0.6c1.7,0.4,3.7,1.2,4.9,2c-1.4,0.8-3.1,1.6-4.9,2
					C34.4,21.5,34.3,22,34.4,20.9z"/>
			</g>
		</g>
		<path fill="#FFDC00" d="M24.9,9.6c-1-0.1-1.6-0.2-2-0.2V4.7c0,0,0,0,0-0.1C23.7,6.1,24.5,7.8,24.9,9.6z"/>
		<path fill="#FFDC00" d="M24.2,32.4c0.4,0,0.6-0.1,0.6-0.1c-0.4,1.7-1.2,3.6-2,4.9v-4.7C23.6,32.5,23.8,32.4,24.2,32.4z"/>
		<path fill="#FFDC00" d="M22.9,31.3C22.9,31.3,22.9,31.3,22.9,31.3l0-20.8c0,0,0,0,0,0c5.8,0,10.4,4.7,10.4,10.4
			C33.3,26.7,28.6,31.3,22.9,31.3z"/>
		<path fill="#FFDC00" d="M30.3,29.8C31.1,32.4,31,35,31,35s-2.3-1.2-4.2-3.3c0.8-0.3,0.7-0.3,1.8-0.8
			C29.6,30.3,28.9,30.8,30.3,29.8z"/>
		<path fill="#FFDC00" d="M30.3,12.1c-0.5-0.5-2.2-1.6-3.5-2c1-1.1,2.6-2.4,4.2-3.3C31.1,8.7,30.7,10.8,30.3,12.1z"/>
		<path fill="#FFDC00" d="M36.9,29.1c-1.9,0-3.9-0.3-5.3-0.7c0.5-0.5,1.6-2.2,2-3.5C34.8,25.9,36,27.4,36.9,29.1z"/>
		<path fill="#FFDC00" d="M32.8,15.2c-0.6-1-0.1-0.3-1.2-1.6c2.7-0.8,5.3-0.7,5.3-0.7s-1.2,2.3-3.3,4.2
			C33.4,16.2,33.4,16.3,32.8,15.2z"/>
		<path fill="#FFDC00" d="M34.4,20.9c0-0.5-0.1-1-0.1-1.4c-0.1-0.4-0.1-0.6-0.1-0.6c1.7,0.4,3.7,1.2,4.9,2c-1.4,0.8-3.1,1.6-4.9,2
			C34.4,21.5,34.3,22,34.4,20.9z"/>
		<path fill="#FFFFFF" d="M32.1,20.9H31c0-4.5-3.6-8.1-8.1-8.1l0-1.2h0C28,11.6,32.1,15.8,32.1,20.9z"/>
	</g>
	<path fill="#F0F0F0" d="M66.6,35.6c0,2.5-1,4.8-2.7,6.4c-1.6,1.6-3.9,2.7-6.4,2.7h-38c-4.4,0-7.9-3.5-7.9-7.9
		c0-4.4,3.5-7.9,7.9-7.9c1.4,0,2.7,0.4,3.9,1c-0.2-0.5-0.3-1.1-0.3-1.7c0-2.7,2.2-4.8,4.8-4.8c1.6,0,3,0.8,3.8,1.9
		c0.4-6,5.2-10.8,11.2-11.2c0.3,0,0.5,0,0.8,0c6.7,0,12.1,5.4,12.1,12.1c0,0.2,0,0.3,0,0.5c0.5-0.1,1.1-0.2,1.6-0.2
		C62.6,26.5,66.6,30.6,66.6,35.6z"/>
	<path fill="#FFFFFF" d="M66.6,35.6c0,2.5-1,4.8-2.7,6.4c-1.6,1.6-3.9,2.7-6.4,2.7H43V14.1c0.3,0,0.5,0,0.8,0
		c6.7,0,12.1,5.4,12.1,12.1c0,0.2,0,0.3,0,0.5c0.5-0.1,1.1-0.2,1.6-0.2C62.6,26.5,66.6,30.6,66.6,35.6z"/>
</g>
</svg>
