<?xml version="1.0" encoding="iso-8859-1"?>
<!-- Generator: Adobe Illustrator 24.0.2, SVG Export Plug-In . SVG Version: 6.00 Build 0)  -->
<!DOCTYPE svg PUBLIC "-//W3C//DTD SVG 1.0//EN" "http://www.w3.org/TR/2001/REC-SVG-20010904/DTD/svg10.dtd" [
	<!ENTITY ns_extend "http://ns.adobe.com/Extensibility/1.0/">
	<!ENTITY ns_ai "http://ns.adobe.com/AdobeIllustrator/10.0/">
	<!ENTITY ns_graphs "http://ns.adobe.com/Graphs/1.0/">
	<!ENTITY ns_vars "http://ns.adobe.com/Variables/1.0/">
	<!ENTITY ns_imrep "http://ns.adobe.com/ImageReplacement/1.0/">
	<!ENTITY ns_sfw "http://ns.adobe.com/SaveForWeb/1.0/">
	<!ENTITY ns_custom "http://ns.adobe.com/GenericCustomNamespace/1.0/">
	<!ENTITY ns_adobe_xpath "http://ns.adobe.com/XPath/1.0/">
]>
<svg version="1.0" id="Capa_1" xmlns:x="&ns_extend;" xmlns:i="&ns_ai;" xmlns:graph="&ns_graphs;"
	 xmlns="http://www.w3.org/2000/svg" xmlns:xlink="http://www.w3.org/1999/xlink" x="0px" y="0px" viewBox="0 0 74 56"
	 enable-background="new 0 0 74 56" xml:space="preserve">
<metadata>
	<sfw  xmlns="&ns_sfw;">
		<slices></slices>
		<sliceSourceBounds  bottomLeftOrigin="true" height="49.8" width="58" x="570.9" y="-225"></sliceSourceBounds>
	</sfw>
</metadata>
<g>
	<g>
		<path fill="#FFC800" d="M30.6,19.9c0,5.6-4.5,10.1-10.1,10.1c-5.6,0-10.1-4.5-10.1-10.1c0-5.6,4.5-10.1,10.1-10.1
			C26.1,9.9,30.6,14.4,30.6,19.9z"/>
		<g>
			<g>
				<path fill="#FFC800" d="M29.1,27.1c0.5-0.5,1.5-2.2,1.9-3.3c1,0.9,2.3,2.5,3.1,4.1C32.4,27.9,30.4,27.5,29.1,27.1z"/>
			</g>
			<g>
				<path fill="#FFC800" d="M24.4,30.4c0.8-0.3,0.7-0.2,1.8-0.8c0.9-0.6,0.3-0.1,1.6-1.1c0.8,2.6,0.7,5.1,0.7,5.1
					S26.2,32.4,24.4,30.4z"/>
			</g>
			<g>
				<path fill="#FFC800" d="M18.6,30.9c2.4,0.3,2.6,0.1,3.3,0.1c0.4,0,0.6-0.1,0.6-0.1c-0.4,1.7-1.2,3.5-1.9,4.8
					C19.6,34.2,19,32.5,18.6,30.9z"/>
			</g>
			<g>
				<path fill="#FFC800" d="M13.4,28.5c0.5,0.5,2.2,1.5,3.3,1.9c-1,1.1-2.5,2.3-4.1,3.1C12.7,31.7,13,29.8,13.4,28.5z"/>
			</g>
			<g>
				<path fill="#FFC800" d="M10.1,23.7c0.3,0.8,0.2,0.7,0.8,1.8c0.6,0.9,0.1,0.3,1.1,1.6c-2.6,0.8-5.1,0.7-5.1,0.7
					S8.1,25.6,10.1,23.7z"/>
			</g>
			<g>
				<path fill="#FFC800" d="M9.6,18c-0.2,1.4-0.1,0.9-0.2,1.9c0,0.5,0.1,1,0.1,1.3c0,0.4,0.1,0.6,0.1,0.6c-1.7-0.4-3.5-1.2-4.8-1.9
					C6.3,19,8,18.4,9.6,18z"/>
			</g>
			<g>
				<path fill="#FFC800" d="M12.1,12.8c0,0-0.2,0.2-0.4,0.5c-0.6,0.8-1.2,1.8-1.6,2.9c-1.1-1-2.3-2.5-3.1-4.1
					C8.8,12,10.7,12.4,12.1,12.8z"/>
			</g>
			<g>
				<path fill="#FFC800" d="M16.8,9.5c-1.8,0.7-2.5,1.3-3.4,1.9c-0.8-2.6-0.7-5.1-0.7-5.1S15,7.5,16.8,9.5z"/>
			</g>
			<g>
				<path fill="#FFC800" d="M22.5,9c-2.4-0.3-2.6-0.1-3.3-0.1c-0.4,0-0.6,0.1-0.6,0.1c0.4-1.6,1.1-3.5,1.9-4.8
					C21.4,5.6,22.1,7.3,22.5,9z"/>
			</g>
			<g>
				<path fill="#FFC800" d="M27.7,11.4c-0.5-0.5-2.2-1.5-3.3-1.9c0.9-1,2.5-2.3,4.1-3.2C28.5,8.2,28.1,10.1,27.7,11.4z"/>
			</g>
			<g>
				<path fill="#FFC800" d="M31,16.2c-0.3-0.8-0.2-0.7-0.8-1.8c-0.6-0.9-0.1-0.3-1.1-1.6c2.6-0.8,5.1-0.7,5.1-0.7S33,14.3,31,16.2z"
					/>
			</g>
			<g>
				<path fill="#FFC800" d="M31.5,21.9c0.2-1.4,0.1-0.9,0.2-1.9c0-0.5-0.1-1-0.1-1.3c0-0.4-0.1-0.6-0.1-0.6c1.7,0.4,3.5,1.2,4.8,1.9
					C34.9,20.8,33.2,21.5,31.5,21.9z"/>
			</g>
		</g>
		<path fill="#FFC800" d="M30.6,19.9c0,5.6-4.5,10.1-10.1,10.1c0,0,0,0,0,0c-5.6,0-10.1-4.5-10.1-10.1c0-5.6,4.5-10.1,10.1-10.1
			c0,0,0,0,0,0C26.1,9.9,30.6,14.4,30.6,19.9z"/>
		<g>
			<g>
				<path fill="#FFC800" d="M34.2,27.8c-1.8,0-3.7-0.3-5.1-0.7c0.5-0.5,1.5-2.2,1.9-3.3C32.1,24.7,33.3,26.2,34.2,27.8z"/>
			</g>
			<g>
				<path fill="#FFC800" d="M28.4,33.6c0,0-2.2-1.2-4.1-3.2c0.8-0.3,0.7-0.2,1.8-0.8c0.9-0.6,0.3-0.1,1.6-1.1
					C28.5,31.1,28.4,33.6,28.4,33.6z"/>
			</g>
			<g>
				<path fill="#FFC800" d="M22.5,30.9c-0.4,1.7-1.2,3.5-1.9,4.7c0,0,0,0,0,0c-0.9-1.5-1.6-3.2-1.9-4.7c0.9,0.1,1.5,0.2,1.9,0.2
					c0.7,0,0.9-0.1,1.3-0.1C22.2,31,22.5,30.9,22.5,30.9z"/>
			</g>
			<g>
				<path fill="#FFC800" d="M13.4,28.5c0.5,0.5,2.2,1.5,3.3,1.9c-1,1.1-2.5,2.3-4.1,3.1C12.7,31.7,13,29.8,13.4,28.5z"/>
			</g>
			<g>
				<path fill="#FFC800" d="M10.1,23.7c0.3,0.8,0.2,0.7,0.8,1.8c0.6,0.9,0.1,0.3,1.1,1.6c-2.6,0.8-5.1,0.7-5.1,0.7
					S8.1,25.6,10.1,23.7z"/>
			</g>
			<g>
				<path fill="#FFC800" d="M9.6,18c-0.2,1.4-0.1,0.9-0.2,1.9c0,0.5,0.1,1,0.1,1.3c0,0.4,0.1,0.6,0.1,0.6c-1.7-0.4-3.5-1.2-4.8-1.9
					C6.3,19,8,18.4,9.6,18z"/>
			</g>
			<g>
				<path fill="#FFC800" d="M12.1,12.8c0,0-0.2,0.2-0.4,0.5c-0.6,0.8-1.2,1.8-1.6,2.9c-1.1-1-2.3-2.5-3.1-4.1
					C8.8,12,10.7,12.4,12.1,12.8z"/>
			</g>
			<g>
				<path fill="#FFC800" d="M16.8,9.5c-1.8,0.7-2.5,1.3-3.4,1.9c-0.8-2.6-0.7-5.1-0.7-5.1S15,7.5,16.8,9.5z"/>
			</g>
			<g>
				<path fill="#FFC800" d="M22.5,9c-0.9-0.1-1.5-0.2-2-0.2c-0.7,0-0.9,0.1-1.3,0.1c-0.4,0-0.6,0.1-0.6,0.1c0.3-1.6,1.1-3.4,1.9-4.7
					c0,0,0,0,0-0.1C21.4,5.6,22.1,7.3,22.5,9z"/>
			</g>
			<g>
				<path fill="#FFC800" d="M27.7,11.4c-0.5-0.5-2.2-1.5-3.3-1.9c0.9-1,2.5-2.3,4-3.1C28.5,8.2,28.2,10.1,27.7,11.4z"/>
			</g>
			<g>
				<path fill="#FFC800" d="M34.2,12.1c0,0-1.2,2.2-3.2,4.1c-0.3-0.8-0.2-0.7-0.8-1.8c-0.6-0.9-0.1-0.3-1.1-1.6
					C31.7,12,34.2,12.1,34.2,12.1z"/>
			</g>
			<g>
				<path fill="#FFC800" d="M31.7,20c0-0.5-0.1-1-0.1-1.3c-0.1-0.4-0.1-0.6-0.1-0.6c1.7,0.4,3.5,1.2,4.8,1.9c-1.3,0.8-3,1.5-4.7,1.9
					C31.7,20.5,31.7,21,31.7,20z"/>
			</g>
		</g>
		<path fill="#FFDC00" d="M22.5,9c-0.9-0.1-1.5-0.2-2-0.2V4.3c0,0,0,0,0-0.1C21.4,5.6,22.1,7.3,22.5,9z"/>
		<path fill="#FFDC00" d="M21.9,31c0.4,0,0.6-0.1,0.6-0.1c-0.4,1.7-1.2,3.5-1.9,4.7v-4.6C21.2,31.1,21.5,31,21.9,31z"/>
		<path fill="#FFDC00" d="M20.6,30C20.6,30,20.6,30,20.6,30l0-20.1c0,0,0,0,0,0c5.6,0,10.1,4.5,10.1,10.1C30.6,25.5,26.1,30,20.6,30
			z"/>
		<path fill="#FFDC00" d="M27.7,28.5c0.8,2.6,0.7,5.1,0.7,5.1s-2.2-1.2-4.1-3.2c0.8-0.3,0.7-0.2,1.8-0.8C27,29,26.4,29.5,27.7,28.5z
			"/>
		<path fill="#FFDC00" d="M27.7,11.4c-0.5-0.5-2.2-1.5-3.3-1.9c0.9-1,2.5-2.3,4-3.1C28.5,8.2,28.2,10.1,27.7,11.4z"/>
		<path fill="#FFDC00" d="M34.2,27.8c-1.8,0-3.7-0.3-5.1-0.7c0.5-0.5,1.5-2.2,1.9-3.3C32.1,24.7,33.3,26.2,34.2,27.8z"/>
		<path fill="#FFDC00" d="M30.2,14.4c-0.6-0.9-0.1-0.3-1.1-1.6c2.6-0.8,5.1-0.7,5.1-0.7S33,14.3,31,16.2
			C30.7,15.4,30.8,15.5,30.2,14.4z"/>
		<path fill="#FFDC00" d="M31.7,20c0-0.5-0.1-1-0.1-1.3c-0.1-0.4-0.1-0.6-0.1-0.6c1.7,0.4,3.5,1.2,4.8,1.9c-1.3,0.8-3,1.5-4.7,1.9
			C31.7,20.5,31.7,21,31.7,20z"/>
		<path fill="#FFFFFF" d="M29.5,19.9h-1.1c0-4.3-3.5-7.8-7.8-7.8l0-1.1h0C25.5,11,29.5,15,29.5,19.9z"/>
	</g>
	<path fill="#F0F0F0" d="M62.9,34.1c0,2.4-1,4.6-2.6,6.2c-1.6,1.6-3.8,2.6-6.2,2.6H17.3c-4.2,0-7.6-3.4-7.6-7.6
		c0-4.2,3.4-7.6,7.6-7.6c1.4,0,2.6,0.4,3.7,1c-0.2-0.5-0.3-1-0.3-1.6c0-2.6,2.1-4.6,4.7-4.6c1.5,0,2.9,0.7,3.7,1.9
		c0.4-5.8,5-10.5,10.9-10.9c0.3,0,0.5,0,0.8,0c6.5,0,11.7,5.2,11.7,11.7c0,0.1,0,0.3,0,0.4c0.5-0.1,1-0.1,1.6-0.1
		C58.9,25.3,62.9,29.3,62.9,34.1z"/>
	<path fill="#FFFFFF" d="M62.9,34.1c0,2.4-1,4.6-2.6,6.2c-1.6,1.6-3.8,2.6-6.2,2.6H40V13.3c0.3,0,0.5,0,0.8,0
		c6.5,0,11.7,5.2,11.7,11.7c0,0.1,0,0.3,0,0.4c0.5-0.1,1-0.1,1.6-0.1C58.9,25.3,62.9,29.3,62.9,34.1z"/>
	<g>
		<path fill="#96DCF0" d="M51.1,48.5c0,3-2.5,5.5-5.5,5.5c-3.1,0-5.5-2.5-5.5-5.5c0-3.1,5.5-10.9,5.5-10.9S51.1,45.5,51.1,48.5z"/>
		<path fill="#A0E6FA" d="M51.1,48.5c0,3-2.5,5.5-5.5,5.5V37.7C45.5,37.7,51.1,45.5,51.1,48.5z"/>
		<path fill="#FFFFFF" d="M45.5,52.5v-0.8c1.8,0,3.2-1.5,3.2-3.2h0.8C49.5,50.7,47.7,52.5,45.5,52.5z"/>
	</g>
	<path fill="#96DCF0" d="M36.6,43.1c0,1.5-1.2,2.7-2.7,2.7c-1.5,0-2.7-1.2-2.7-2.7c0-1.5,2.7-5.4,2.7-5.4S36.6,41.5,36.6,43.1z"/>
	<path fill="#A0E6FA" d="M36.6,43.1c0,1.5-1.2,2.7-2.7,2.7v-8.1C33.9,37.7,36.6,41.5,36.6,43.1z"/>
</g>
</svg>
