<?xml version="1.0" encoding="iso-8859-1"?>
<!-- Generator: Adobe Illustrator 24.0.2, SVG Export Plug-In . SVG Version: 6.00 Build 0)  -->
<!DOCTYPE svg PUBLIC "-//W3C//DTD SVG 1.0//EN" "http://www.w3.org/TR/2001/REC-SVG-20010904/DTD/svg10.dtd" [
	<!ENTITY ns_extend "http://ns.adobe.com/Extensibility/1.0/">
	<!ENTITY ns_ai "http://ns.adobe.com/AdobeIllustrator/10.0/">
	<!ENTITY ns_graphs "http://ns.adobe.com/Graphs/1.0/">
	<!ENTITY ns_vars "http://ns.adobe.com/Variables/1.0/">
	<!ENTITY ns_imrep "http://ns.adobe.com/ImageReplacement/1.0/">
	<!ENTITY ns_sfw "http://ns.adobe.com/SaveForWeb/1.0/">
	<!ENTITY ns_custom "http://ns.adobe.com/GenericCustomNamespace/1.0/">
	<!ENTITY ns_adobe_xpath "http://ns.adobe.com/XPath/1.0/">
]>
<svg version="1.0" id="Capa_1" xmlns:x="&ns_extend;" xmlns:i="&ns_ai;" xmlns:graph="&ns_graphs;"
	 xmlns="http://www.w3.org/2000/svg" xmlns:xlink="http://www.w3.org/1999/xlink" x="0px" y="0px" viewBox="0 0 75 52"
	 enable-background="new 0 0 75 52" xml:space="preserve">
<metadata>
	<sfw  xmlns="&ns_sfw;">
		<slices></slices>
		<sliceSourceBounds  bottomLeftOrigin="true" height="45" width="45" x="77.1" y="-122.2"></sliceSourceBounds>
	</sfw>
</metadata>
<g>
	<path fill="#FFC800" d="M51,24.7c0,8-6.5,14.4-14.4,14.4c-8,0-14.4-6.5-14.4-14.4c0-8,6.5-14.4,14.4-14.4
		C44.6,10.2,51,16.7,51,24.7z"/>
	<g>
		<g>
			<path fill="#FFC800" d="M48.8,34.9c0.7-0.7,2.2-3.1,2.8-4.8c1.5,1.4,3.3,3.5,4.5,5.8C53.5,36,50.7,35.5,48.8,34.9z"/>
		</g>
		<g>
			<path fill="#FFC800" d="M42,39.6c1.1-0.4,1-0.3,2.5-1.2c1.3-0.9,0.4-0.1,2.3-1.6c1.1,3.7,1,7.3,1,7.3S44.7,42.5,42,39.6z"/>
		</g>
		<g>
			<path fill="#FFC800" d="M33.8,40.4c3.5,0.4,3.7,0.2,4.7,0.1c0.5-0.1,0.9-0.1,0.9-0.1c-0.5,2.4-1.7,5.1-2.8,6.8
				C35.3,45,34.4,42.6,33.8,40.4z"/>
		</g>
		<g>
			<path fill="#FFC800" d="M26.4,36.9c0.7,0.7,3.1,2.2,4.8,2.8c-1.4,1.6-3.6,3.3-5.8,4.5C25.3,41.5,25.8,38.7,26.4,36.9z"/>
		</g>
		<g>
			<path fill="#FFC800" d="M21.6,30.1c0.4,1.1,0.3,1,1.2,2.5c0.9,1.3,0.1,0.4,1.6,2.3c-3.7,1.1-7.3,1-7.3,1S18.8,32.7,21.6,30.1z"/>
		</g>
		<g>
			<path fill="#FFC800" d="M20.9,21.9c-0.2,2-0.2,1.3-0.2,2.8c0,0.7,0.1,1.4,0.1,1.9c0.1,0.5,0.1,0.9,0.1,0.9
				c-2.4-0.5-5-1.7-6.8-2.8C16.3,23.4,18.7,22.4,20.9,21.9z"/>
		</g>
		<g>
			<path fill="#FFC800" d="M24.4,14.4c0,0-0.3,0.2-0.5,0.7c-0.8,1.2-1.7,2.5-2.2,4.1c-1.6-1.4-3.3-3.6-4.5-5.8
				C19.7,13.3,22.5,13.8,24.4,14.4z"/>
		</g>
		<g>
			<path fill="#FFC800" d="M31.2,9.7c-2.6,1-3.6,1.8-4.8,2.8c-1.1-3.7-1-7.3-1-7.3S28.6,6.8,31.2,9.7z"/>
		</g>
		<g>
			<path fill="#FFC800" d="M39.4,9c-3.5-0.4-3.7-0.2-4.7-0.1C34.2,8.9,33.9,9,33.9,9c0.5-2.3,1.6-4.9,2.8-6.8
				C37.8,4.1,38.8,6.5,39.4,9z"/>
		</g>
		<g>
			<path fill="#FFC800" d="M46.9,12.5c-0.7-0.7-3.1-2.2-4.8-2.8c1.4-1.5,3.5-3.3,5.8-4.5C48,7.8,47.5,10.6,46.9,12.5z"/>
		</g>
		<g>
			<path fill="#FFC800" d="M51.6,19.2c-0.4-1.1-0.3-1-1.2-2.5c-0.9-1.3-0.1-0.4-1.6-2.3c3.7-1.1,7.3-1,7.3-1S54.4,16.6,51.6,19.2z"
				/>
		</g>
		<g>
			<path fill="#FFC800" d="M52.3,27.4c0.2-2,0.2-1.3,0.2-2.8c0-0.7-0.1-1.4-0.1-1.9c-0.1-0.5-0.1-0.9-0.1-0.9
				c2.4,0.5,5.1,1.7,6.8,2.8C57.2,25.8,54.8,26.9,52.3,27.4z"/>
		</g>
	</g>
	<path fill="#FFC800" d="M51,24.7c0,8-6.5,14.4-14.4,14.4c0,0,0,0,0,0c-8,0-14.4-6.5-14.4-14.4c0-8,6.5-14.4,14.4-14.4c0,0,0,0,0,0
		C44.6,10.2,51,16.7,51,24.7z"/>
	<g>
		<g>
			<path fill="#FFC800" d="M56.1,35.9c-2.6,0.1-5.4-0.4-7.3-1c0.7-0.7,2.2-3.1,2.8-4.8C53.1,31.5,54.9,33.7,56.1,35.9z"/>
		</g>
		<g>
			<path fill="#FFC800" d="M47.9,44.2c0,0-3.2-1.7-5.8-4.5c1.1-0.4,1-0.3,2.5-1.2c1.3-0.9,0.4-0.1,2.3-1.6
				C48,40.6,47.9,44.2,47.9,44.2z"/>
		</g>
		<g>
			<path fill="#FFC800" d="M39.4,40.3c-0.5,2.4-1.7,5-2.8,6.8c0,0,0,0,0,0c-1.3-2.1-2.2-4.5-2.8-6.8c1.3,0.2,2.2,0.2,2.8,0.2
				c1,0,1.3-0.1,1.9-0.1C39,40.4,39.4,40.3,39.4,40.3z"/>
		</g>
		<g>
			<path fill="#FFC800" d="M26.4,36.9c0.7,0.7,3.1,2.2,4.8,2.8c-1.4,1.6-3.6,3.3-5.8,4.5C25.3,41.5,25.8,38.7,26.4,36.9z"/>
		</g>
		<g>
			<path fill="#FFC800" d="M21.6,30.1c0.4,1.1,0.3,1,1.2,2.5c0.9,1.3,0.1,0.4,1.6,2.3c-3.7,1.1-7.3,1-7.3,1S18.8,32.7,21.6,30.1z"/>
		</g>
		<g>
			<path fill="#FFC800" d="M20.9,21.9c-0.2,2-0.2,1.3-0.2,2.8c0,0.7,0.1,1.4,0.1,1.9c0.1,0.5,0.1,0.9,0.1,0.9
				c-2.4-0.5-5-1.7-6.8-2.8C16.3,23.4,18.7,22.4,20.9,21.9z"/>
		</g>
		<g>
			<path fill="#FFC800" d="M24.4,14.4c0,0-0.3,0.2-0.5,0.7c-0.8,1.2-1.7,2.5-2.2,4.1c-1.6-1.4-3.3-3.6-4.5-5.8
				C19.7,13.3,22.5,13.8,24.4,14.4z"/>
		</g>
		<g>
			<path fill="#FFC800" d="M31.2,9.7c-2.6,1-3.6,1.8-4.8,2.8c-1.1-3.7-1-7.3-1-7.3S28.6,6.8,31.2,9.7z"/>
		</g>
		<g>
			<path fill="#FFC800" d="M39.4,9c-1.3-0.2-2.2-0.2-2.8-0.2c-1,0-1.3,0.1-1.9,0.1C34.2,8.9,33.9,9,33.9,9c0.5-2.3,1.6-4.9,2.7-6.7
				c0,0,0,0,0-0.1C37.8,4.1,38.8,6.5,39.4,9z"/>
		</g>
		<g>
			<path fill="#FFC800" d="M46.9,12.5c-0.7-0.7-3.1-2.2-4.8-2.8c1.4-1.5,3.5-3.3,5.8-4.5C48,7.8,47.5,10.6,46.9,12.5z"/>
		</g>
		<g>
			<path fill="#FFC800" d="M56.1,13.4c0,0-1.7,3.2-4.5,5.8c-0.4-1.1-0.3-1-1.2-2.5c-0.9-1.3-0.1-0.4-1.6-2.3
				C52.6,13.3,56.1,13.4,56.1,13.4z"/>
		</g>
		<g>
			<path fill="#FFC800" d="M52.5,24.7c0-0.7-0.1-1.4-0.1-1.9c-0.1-0.5-0.1-0.9-0.1-0.9c2.4,0.5,5.1,1.7,6.8,2.8
				c-1.9,1.2-4.3,2.2-6.8,2.8C52.6,25.4,52.5,26.2,52.5,24.7z"/>
		</g>
	</g>
	<path fill="#FFDC00" d="M39.4,9c-1.3-0.2-2.2-0.2-2.8-0.2V2.2c0,0,0,0,0-0.1C37.8,4.1,38.8,6.5,39.4,9z"/>
	<path fill="#FFDC00" d="M38.5,40.5c0.5-0.1,0.9-0.1,0.9-0.1c-0.5,2.4-1.7,5-2.8,6.8v-6.5C37.6,40.6,37.9,40.5,38.5,40.5z"/>
	<path fill="#FFDC00" d="M36.6,39.1C36.6,39.1,36.6,39.1,36.6,39.1l0-28.8c0,0,0,0,0,0c8,0,14.4,6.5,14.4,14.4
		C51,32.6,44.6,39.1,36.6,39.1z"/>
	<path fill="#FFDC00" d="M46.9,36.9c1.1,3.7,1,7.3,1,7.3s-3.2-1.7-5.8-4.5c1.1-0.4,1-0.3,2.5-1.2C45.9,37.6,44.9,38.3,46.9,36.9z"/>
	<path fill="#FFDC00" d="M46.9,12.5c-0.7-0.7-3.1-2.2-4.8-2.8c1.4-1.5,3.5-3.3,5.8-4.5C48,7.8,47.5,10.6,46.9,12.5z"/>
	<path fill="#FFDC00" d="M56.1,35.9c-2.6,0.1-5.4-0.4-7.3-1c0.7-0.7,2.2-3.1,2.8-4.8C53.1,31.5,54.9,33.7,56.1,35.9z"/>
	<path fill="#FFDC00" d="M50.4,16.7c-0.9-1.3-0.1-0.4-1.6-2.3c3.7-1.1,7.3-1,7.3-1s-1.7,3.2-4.5,5.8C51.2,18.1,51.2,18.3,50.4,16.7z
		"/>
	<path fill="#FFDC00" d="M52.5,24.7c0-0.7-0.1-1.4-0.1-1.9c-0.1-0.5-0.1-0.9-0.1-0.9c2.4,0.5,5.1,1.7,6.8,2.8
		c-1.9,1.2-4.3,2.2-6.8,2.8C52.6,25.4,52.5,26.2,52.5,24.7z"/>
	<path fill="#FFFFFF" d="M49.4,24.7h-1.5c0-6.2-5.1-11.3-11.3-11.3l0-1.5h0C43.7,11.9,49.4,17.6,49.4,24.7z"/>
	<path fill="#FFC800" d="M45,24.7c0,4.6-3.7,8.3-8.3,8.3c0,0,0,0,0,0h0c-4.6,0-8.3-3.7-8.3-8.3c0-4.6,3.7-8.3,8.3-8.3h0c0,0,0,0,0,0
		C41.2,16.3,45,20.1,45,24.7z"/>
	<path fill="#FFDC00" d="M36.6,16.3V33c-4.6,0-8.3-3.7-8.3-8.3C28.3,20.1,32,16.3,36.6,16.3z"/>
</g>
</svg>
