<?xml version="1.0" encoding="iso-8859-1"?>
<!-- Generator: Adobe Illustrator 24.0.2, SVG Export Plug-In . SVG Version: 6.00 Build 0)  -->
<!DOCTYPE svg PUBLIC "-//W3C//DTD SVG 1.0//EN" "http://www.w3.org/TR/2001/REC-SVG-20010904/DTD/svg10.dtd" [
	<!ENTITY ns_extend "http://ns.adobe.com/Extensibility/1.0/">
	<!ENTITY ns_ai "http://ns.adobe.com/AdobeIllustrator/10.0/">
	<!ENTITY ns_graphs "http://ns.adobe.com/Graphs/1.0/">
	<!ENTITY ns_vars "http://ns.adobe.com/Variables/1.0/">
	<!ENTITY ns_imrep "http://ns.adobe.com/ImageReplacement/1.0/">
	<!ENTITY ns_sfw "http://ns.adobe.com/SaveForWeb/1.0/">
	<!ENTITY ns_custom "http://ns.adobe.com/GenericCustomNamespace/1.0/">
	<!ENTITY ns_adobe_xpath "http://ns.adobe.com/XPath/1.0/">
]>
<svg version="1.0" id="Capa_1" xmlns:x="&ns_extend;" xmlns:i="&ns_ai;" xmlns:graph="&ns_graphs;"
	 xmlns="http://www.w3.org/2000/svg" xmlns:xlink="http://www.w3.org/1999/xlink" x="0px" y="0px" viewBox="0 0 77 54"
	 enable-background="new 0 0 77 54" xml:space="preserve">
<metadata>
	<sfw  xmlns="&ns_sfw;">
		<slices></slices>
		<sliceSourceBounds  bottomLeftOrigin="true" height="49.8" width="58" x="70.6" y="-124.6"></sliceSourceBounds>
	</sfw>
</metadata>
<g>
	<g>
		<path fill="#FFC800" d="M35.4,17.5c0,5.6-4.5,10.1-10.1,10.1c-5.6,0-10.1-4.5-10.1-10.1c0-5.6,4.5-10.1,10.1-10.1
			C30.9,7.4,35.4,11.9,35.4,17.5z"/>
		<g>
			<g>
				<path fill="#FFC800" d="M33.8,24.6c0.5-0.5,1.5-2.2,1.9-3.3c1,0.9,2.3,2.5,3.1,4.1C37.1,25.4,35.2,25.1,33.8,24.6z"/>
			</g>
			<g>
				<path fill="#FFC800" d="M29.1,27.9c0.8-0.3,0.7-0.2,1.8-0.8c0.9-0.6,0.3-0.1,1.6-1.1c0.8,2.6,0.7,5.1,0.7,5.1
					S30.9,29.9,29.1,27.9z"/>
			</g>
			<g>
				<path fill="#FFC800" d="M23.4,28.4c2.4,0.3,2.6,0.1,3.3,0.1c0.4,0,0.6-0.1,0.6-0.1c-0.4,1.7-1.2,3.5-1.9,4.8
					C24.4,31.7,23.7,30,23.4,28.4z"/>
			</g>
			<g>
				<path fill="#FFC800" d="M18.2,26c0.5,0.5,2.2,1.5,3.3,1.9c-1,1.1-2.5,2.3-4.1,3.1C17.4,29.2,17.7,27.3,18.2,26z"/>
			</g>
			<g>
				<path fill="#FFC800" d="M14.9,21.3c0.3,0.8,0.2,0.7,0.8,1.8c0.6,0.9,0.1,0.3,1.1,1.6c-2.6,0.8-5.1,0.7-5.1,0.7
					S12.9,23.1,14.9,21.3z"/>
			</g>
			<g>
				<path fill="#FFC800" d="M14.4,15.5c-0.2,1.4-0.1,0.9-0.2,1.9c0,0.5,0.1,1,0.1,1.3c0,0.4,0.1,0.6,0.1,0.6
					c-1.7-0.4-3.5-1.2-4.8-1.9C11.1,16.6,12.8,15.9,14.4,15.5z"/>
			</g>
			<g>
				<path fill="#FFC800" d="M16.8,10.3c0,0-0.2,0.2-0.4,0.5c-0.6,0.8-1.2,1.8-1.6,2.9c-1.1-1-2.3-2.5-3.1-4.1
					C13.5,9.6,15.5,9.9,16.8,10.3z"/>
			</g>
			<g>
				<path fill="#FFC800" d="M21.5,7c-1.8,0.7-2.5,1.3-3.4,1.9c-0.8-2.6-0.7-5.1-0.7-5.1S19.7,5,21.5,7z"/>
			</g>
			<g>
				<path fill="#FFC800" d="M27.3,6.5c-2.4-0.3-2.6-0.1-3.3-0.1c-0.4,0-0.6,0.1-0.6,0.1c0.4-1.6,1.1-3.5,1.9-4.8
					C26.2,3.1,26.9,4.8,27.3,6.5z"/>
			</g>
			<g>
				<path fill="#FFC800" d="M32.5,9C32,8.5,30.3,7.4,29.1,7c0.9-1,2.5-2.3,4.1-3.2C33.2,5.7,32.9,7.6,32.5,9z"/>
			</g>
			<g>
				<path fill="#FFC800" d="M35.8,13.7c-0.3-0.8-0.2-0.7-0.8-1.8c-0.6-0.9-0.1-0.3-1.1-1.6c2.6-0.8,5.1-0.7,5.1-0.7
					S37.8,11.9,35.8,13.7z"/>
			</g>
			<g>
				<path fill="#FFC800" d="M36.3,19.4c0.2-1.4,0.1-0.9,0.2-1.9c0-0.5-0.1-1-0.1-1.3c0-0.4-0.1-0.6-0.1-0.6c1.7,0.4,3.5,1.2,4.8,1.9
					C39.7,18.3,38,19,36.3,19.4z"/>
			</g>
		</g>
		<path fill="#FFC800" d="M35.4,17.5c0,5.6-4.5,10.1-10.1,10.1c0,0,0,0,0,0c-5.6,0-10.1-4.5-10.1-10.1c0-5.6,4.5-10.1,10.1-10.1
			c0,0,0,0,0,0C30.9,7.4,35.4,11.9,35.4,17.5z"/>
		<g>
			<g>
				<path fill="#FFC800" d="M38.9,25.3c-1.8,0-3.7-0.3-5.1-0.7c0.5-0.5,1.5-2.2,1.9-3.3C36.8,22.2,38.1,23.7,38.9,25.3z"/>
			</g>
			<g>
				<path fill="#FFC800" d="M33.2,31.1c0,0-2.2-1.2-4.1-3.2c0.8-0.3,0.7-0.2,1.8-0.8c0.9-0.6,0.3-0.1,1.6-1.1
					C33.3,28.6,33.2,31.1,33.2,31.1z"/>
			</g>
			<g>
				<path fill="#FFC800" d="M27.2,28.4c-0.4,1.7-1.2,3.5-1.9,4.7c0,0,0,0,0,0c-0.9-1.5-1.6-3.2-1.9-4.7c0.9,0.1,1.5,0.2,1.9,0.2
					c0.7,0,0.9-0.1,1.3-0.1C27,28.5,27.2,28.4,27.2,28.4z"/>
			</g>
			<g>
				<path fill="#FFC800" d="M18.2,26c0.5,0.5,2.2,1.5,3.3,1.9c-1,1.1-2.5,2.3-4.1,3.1C17.4,29.2,17.7,27.3,18.2,26z"/>
			</g>
			<g>
				<path fill="#FFC800" d="M14.9,21.3c0.3,0.8,0.2,0.7,0.8,1.8c0.6,0.9,0.1,0.3,1.1,1.6c-2.6,0.8-5.1,0.7-5.1,0.7
					S12.9,23.1,14.9,21.3z"/>
			</g>
			<g>
				<path fill="#FFC800" d="M14.4,15.5c-0.2,1.4-0.1,0.9-0.2,1.9c0,0.5,0.1,1,0.1,1.3c0,0.4,0.1,0.6,0.1,0.6
					c-1.7-0.4-3.5-1.2-4.8-1.9C11.1,16.6,12.8,15.9,14.4,15.5z"/>
			</g>
			<g>
				<path fill="#FFC800" d="M16.8,10.3c0,0-0.2,0.2-0.4,0.5c-0.6,0.8-1.2,1.8-1.6,2.9c-1.1-1-2.3-2.5-3.1-4.1
					C13.5,9.6,15.5,9.9,16.8,10.3z"/>
			</g>
			<g>
				<path fill="#FFC800" d="M21.5,7c-1.8,0.7-2.5,1.3-3.4,1.9c-0.8-2.6-0.7-5.1-0.7-5.1S19.7,5,21.5,7z"/>
			</g>
			<g>
				<path fill="#FFC800" d="M27.3,6.5c-0.9-0.1-1.5-0.2-2-0.2c-0.7,0-0.9,0.1-1.3,0.1c-0.4,0-0.6,0.1-0.6,0.1
					c0.3-1.6,1.1-3.4,1.9-4.7c0,0,0,0,0-0.1C26.2,3.1,26.9,4.8,27.3,6.5z"/>
			</g>
			<g>
				<path fill="#FFC800" d="M32.5,9C32,8.5,30.3,7.4,29.1,7c0.9-1,2.5-2.3,4-3.1C33.2,5.7,32.9,7.6,32.5,9z"/>
			</g>
			<g>
				<path fill="#FFC800" d="M38.9,9.6c0,0-1.2,2.2-3.2,4.1c-0.3-0.8-0.2-0.7-0.8-1.8c-0.6-0.9-0.1-0.3-1.1-1.6
					C36.5,9.5,38.9,9.6,38.9,9.6z"/>
			</g>
			<g>
				<path fill="#FFC800" d="M36.5,17.5c0-0.5-0.1-1-0.1-1.3c-0.1-0.4-0.1-0.6-0.1-0.6c1.7,0.4,3.5,1.2,4.8,1.9
					c-1.3,0.8-3,1.5-4.7,1.9C36.5,18,36.4,18.5,36.5,17.5z"/>
			</g>
		</g>
		<path fill="#FFDC00" d="M27.3,6.5c-0.9-0.1-1.5-0.2-2-0.2V1.8c0,0,0,0,0-0.1C26.2,3.1,26.9,4.8,27.3,6.5z"/>
		<path fill="#FFDC00" d="M26.6,28.5c0.4,0,0.6-0.1,0.6-0.1c-0.4,1.7-1.2,3.5-1.9,4.7v-4.6C26,28.6,26.2,28.5,26.6,28.5z"/>
		<path fill="#FFDC00" d="M25.3,27.5C25.3,27.5,25.3,27.5,25.3,27.5l0-20.1c0,0,0,0,0,0c5.6,0,10.1,4.5,10.1,10.1
			C35.4,23,30.9,27.5,25.3,27.5z"/>
		<path fill="#FFDC00" d="M32.5,26c0.8,2.6,0.7,5.1,0.7,5.1s-2.2-1.2-4.1-3.2c0.8-0.3,0.7-0.2,1.8-0.8C31.8,26.5,31.1,27,32.5,26z"
			/>
		<path fill="#FFDC00" d="M32.5,9C32,8.5,30.3,7.4,29.1,7c0.9-1,2.5-2.3,4-3.1C33.2,5.7,32.9,7.6,32.5,9z"/>
		<path fill="#FFDC00" d="M38.9,25.3c-1.8,0-3.7-0.3-5.1-0.7c0.5-0.5,1.5-2.2,1.9-3.3C36.8,22.2,38.1,23.7,38.9,25.3z"/>
		<path fill="#FFDC00" d="M35,11.9c-0.6-0.9-0.1-0.3-1.1-1.6c2.6-0.8,5.1-0.7,5.1-0.7s-1.2,2.2-3.2,4.1C35.5,12.9,35.5,13,35,11.9z"
			/>
		<path fill="#FFDC00" d="M36.5,17.5c0-0.5-0.1-1-0.1-1.3c-0.1-0.4-0.1-0.6-0.1-0.6c1.7,0.4,3.5,1.2,4.8,1.9c-1.3,0.8-3,1.5-4.7,1.9
			C36.5,18,36.4,18.5,36.5,17.5z"/>
		<path fill="#FFFFFF" d="M34.3,17.5h-1.1c0-4.3-3.5-7.8-7.8-7.8l0-1.1h0C30.3,8.5,34.3,12.5,34.3,17.5z"/>
	</g>
	<path fill="#F0F0F0" d="M67.6,31.6c0,2.4-1,4.6-2.6,6.2c-1.6,1.6-3.8,2.6-6.2,2.6H22.1c-4.2,0-7.6-3.4-7.6-7.6
		c0-4.2,3.4-7.6,7.6-7.6c1.4,0,2.6,0.4,3.7,1c-0.2-0.5-0.3-1-0.3-1.6c0-2.6,2.1-4.6,4.7-4.6c1.5,0,2.9,0.7,3.7,1.9
		c0.4-5.8,5-10.5,10.9-10.9c0.3,0,0.5,0,0.8,0c6.5,0,11.7,5.2,11.7,11.7c0,0.1,0,0.3,0,0.4c0.5-0.1,1-0.1,1.6-0.1
		C63.7,22.8,67.6,26.8,67.6,31.6z"/>
	<path fill="#FFFFFF" d="M67.6,31.6c0,2.4-1,4.6-2.6,6.2c-1.6,1.6-3.8,2.6-6.2,2.6H44.8V10.9c0.3,0,0.5,0,0.8,0
		c6.5,0,11.7,5.2,11.7,11.7c0,0.1,0,0.3,0,0.4c0.5-0.1,1-0.1,1.6-0.1C63.7,22.8,67.6,26.8,67.6,31.6z"/>
	<g>
		<path fill="#96DCF0" d="M55.8,46c0,3-2.5,5.5-5.5,5.5c-3.1,0-5.5-2.5-5.5-5.5c0-3.1,5.5-10.9,5.5-10.9S55.8,43,55.8,46z"/>
		<path fill="#A0E6FA" d="M55.8,46c0,3-2.5,5.5-5.5,5.5V35.2C50.3,35.2,55.8,43,55.8,46z"/>
		<path fill="#FFFFFF" d="M50.3,50v-0.8c1.8,0,3.2-1.5,3.2-3.2h0.8C54.3,48.2,52.5,50,50.3,50z"/>
	</g>
	<path fill="#96DCF0" d="M41.4,40.6c0,1.5-1.2,2.7-2.7,2.7c-1.5,0-2.7-1.2-2.7-2.7c0-1.5,2.7-5.4,2.7-5.4S41.4,39.1,41.4,40.6z"/>
	<path fill="#A0E6FA" d="M41.4,40.6c0,1.5-1.2,2.7-2.7,2.7v-8.1C38.7,35.2,41.4,39.1,41.4,40.6z"/>
</g>
</svg>
