<?xml version="1.0" encoding="iso-8859-1"?>
<!-- Generator: Adobe Illustrator 24.0.2, SVG Export Plug-In . SVG Version: 6.00 Build 0)  -->
<!DOCTYPE svg PUBLIC "-//W3C//DTD SVG 1.0//EN" "http://www.w3.org/TR/2001/REC-SVG-20010904/DTD/svg10.dtd" [
	<!ENTITY ns_extend "http://ns.adobe.com/Extensibility/1.0/">
	<!ENTITY ns_ai "http://ns.adobe.com/AdobeIllustrator/10.0/">
	<!ENTITY ns_graphs "http://ns.adobe.com/Graphs/1.0/">
	<!ENTITY ns_vars "http://ns.adobe.com/Variables/1.0/">
	<!ENTITY ns_imrep "http://ns.adobe.com/ImageReplacement/1.0/">
	<!ENTITY ns_sfw "http://ns.adobe.com/SaveForWeb/1.0/">
	<!ENTITY ns_custom "http://ns.adobe.com/GenericCustomNamespace/1.0/">
	<!ENTITY ns_adobe_xpath "http://ns.adobe.com/XPath/1.0/">
]>
<svg version="1.0" id="Capa_1" xmlns:x="&ns_extend;" xmlns:i="&ns_ai;" xmlns:graph="&ns_graphs;"
	 xmlns="http://www.w3.org/2000/svg" xmlns:xlink="http://www.w3.org/1999/xlink" x="0px" y="0px" viewBox="0 0 238.7 173.3"
	 enable-background="new 0 0 238.7 173.3" xml:space="preserve">
<metadata>
	<sfw  xmlns="&ns_sfw;">
		<slices></slices>
		<sliceSourceBounds  bottomLeftOrigin="true" height="146.9" width="212.2" x="117.4" y="-355.8"></sliceSourceBounds>
	</sfw>
</metadata>
<g>
	<path fill="#002E6D" d="M225.7,84.4c0-38.2-47.5-69.4-106.1-69.4C61,15,13.5,46.1,13.5,84.4c0,1,0,3.7,0,4.1
		c0,40.6,41.5,73.4,106.1,73.4c65,0,106.1-32.8,106.1-73.4C225.7,87,225.7,86.2,225.7,84.4z"/>
	<path fill="#FFE800" d="M221.6,84.3c0,36-45.7,65.3-102,65.3c-56.4,0-102-29.2-102-65.3c0-36.1,45.7-65.3,102-65.3
		C175.9,19.1,221.6,48.3,221.6,84.3z"/>
	<g>
		<path fill="#FFFFFF" d="M85.7,63.7c-0.1,0.1-1.1,1.2-0.4,2c1.6,2.1,6.6,3.2,11.6,2.1c3-0.7,6.8-3.7,10.6-6.7c4-3.2,8-6.4,12-7.7
			c4.3-1.4,7-0.8,8.8-0.2c2,0.6,4.3,1.9,8,4.7c7,5.2,35.1,29.8,39.9,34c3.9-1.8,21.3-9.2,44.9-14.4c-2-12.6-9.7-24.1-21.3-33.5
			c-16.2,6.8-35.9,10.3-55.3,0.9c-0.1,0-10.6-5-20.9-4.7c-15.3,0.4-22,7-29,14L85.7,63.7z"/>
		<path fill="#FFFFFF" d="M175.1,94.6c-0.3-0.3-33-28.9-40.4-34.5c-4.3-3.2-6.7-4-9.2-4.4c-1.3-0.2-3.1,0.1-4.4,0.4
			c-3.4,0.9-7.9,3.9-11.9,7.1c-4.1,3.3-8,6.4-11.7,7.2c-4.6,1-10.3-0.2-12.9-1.9c-1-0.7-1.8-1.5-2.1-2.3c-1-2.2,0.8-4,1.1-4.3l9-9.8
			c1-1,2.1-2.1,3.2-3.1c-2.9,0.4-5.6,1.1-8.2,1.9c-3.3,0.9-6.4,1.8-9.6,1.8c-1.3,0-8.4-1.2-9.8-1.5c-8.2-2.2-15.3-4.4-26-9.4
			c-12.8,9.5-21.4,21.5-23.9,34.6c1.8,0.5,4.8,1.4,6.1,1.6c29,6.5,38,13.1,39.7,14.5c1.8-2,4.3-3.2,7.2-3.2c3.2,0,6.1,1.6,7.9,4.1
			c1.7-1.3,4-2.4,6.9-2.4c1.3,0,2.7,0.2,4.2,0.7c3.3,1.1,5,3.3,5.8,5.3c1.1-0.5,2.4-0.9,4-0.9c1.6,0,3.2,0.4,4.8,1.1
			c5.3,2.3,6.2,7.5,5.7,11.5c0.4,0,0.8-0.1,1.2-0.1c6.3,0,11.5,5.2,11.5,11.5c0,2-0.5,3.8-1.4,5.4c1.7,1,6.1,3.2,10,2.7
			c3.1-0.4,4.3-1.4,4.7-2c0.3-0.4,0.6-0.9,0.3-1.2l-8.2-9.1c0,0-1.3-1.3-0.9-1.8c0.5-0.5,1.3,0.2,1.9,0.7c4.2,3.5,9.3,8.7,9.3,8.7
			c0.1,0.1,0.4,0.7,2.3,1.1c1.6,0.3,4.5,0.1,6.5-1.5c0.5-0.4,1-0.9,1.4-1.5c0,0-0.1,0.1-0.1,0.1c2.1-2.7-0.2-5.4-0.2-5.4l-9.6-10.7
			c0,0-1.4-1.3-0.9-1.8c0.4-0.4,1.3,0.2,1.9,0.7c3,2.5,7.3,6.8,11.4,10.8c0.8,0.6,4.4,2.8,9.2-0.3c2.9-1.9,3.5-4.2,3.4-6
			c-0.2-2.3-2-4-2-4L149.1,92c0,0-1.4-1.2-0.9-1.8c0.4-0.5,1.3,0.2,1.9,0.7c4.2,3.5,15.4,13.8,15.4,13.8c0.2,0.1,4,2.9,8.9-0.2
			c1.7-1.1,2.8-2.8,2.9-4.7C177.4,96.6,175.1,94.6,175.1,94.6z"/>
		<path fill="#FFFFFF" d="M111.7,111.2c-2,0-4.2,1.2-4.5,1c-0.2-0.1,0.1-0.9,0.3-1.4c0.2-0.5,2.9-8.5-3.6-11.3c-5-2.1-8,0.3-9.1,1.4
			c-0.3,0.3-0.4,0.3-0.4-0.1c-0.1-1.4-0.7-5.4-5-6.7c-6.1-1.9-10.1,2.4-11.1,3.9c-0.4-3.5-3.4-6.2-7-6.2c-3.9,0-7.1,3.2-7.1,7.1
			c0,3.9,3.2,7.1,7.1,7.1c1.9,0,3.6-0.8,4.9-2c0,0,0.1,0.1,0,0.2c-0.3,1.8-0.9,8.2,5.8,10.8c2.7,1,5,0.3,6.9-1.1
			c0.6-0.4,0.7-0.2,0.6,0.3c-0.2,1.6,0.1,5.2,5,7.2c3.8,1.5,6,0,7.4-1.4c0.6-0.6,0.8-0.5,0.8,0.4c0.2,4.8,4.1,8.5,8.9,8.5
			c4.9,0,9-4,9-8.9C120.7,115.2,116.7,111.3,111.7,111.2z"/>
	</g>
	<path fill="#002E6D" d="M176.3,91.2c-10.1-8.8-33.3-29-39.6-33.7c-3.6-2.7-6.1-4.1-8.2-4.8c-1-0.3-2.3-0.6-4-0.6
		c-1.6,0-3.3,0.3-5.1,0.9c-4.1,1.3-8.1,4.5-12.1,7.6l-0.2,0.2c-3.7,2.9-7.4,5.9-10.3,6.5c-1.2,0.3-2.5,0.4-3.8,0.4
		c-3.2,0-6.1-0.9-7.2-2.3c-0.2-0.2-0.1-0.6,0.4-1.1l0.1-0.1l8.9-9.5c6.9-6.9,13.5-13.5,28.6-13.8c0.3,0,0.5,0,0.8,0
		c9.4,0,18.8,4.2,19.8,4.7c8.8,4.3,17.9,6.5,27,6.5c9.5,0,19.3-2.4,29.7-7.1c-1.2-1-2.4-1.9-3.6-2.8c-9.1,3.9-17.7,5.9-26,5.9
		c-8.5,0-17-2.1-25.3-6.1c-0.4-0.2-10.8-5.1-21.6-5.1c-0.3,0-0.6,0-0.9,0c-12.7,0.3-19.8,4.8-24.6,8.7c-4.7,0.1-8.7,1.2-12.3,2.2
		c-3.2,0.9-6,1.7-8.7,1.7c-1.1,0-3.1-0.1-3.3-0.1c-3.1-0.1-18.7-3.9-31.1-8.6c-1.3,0.9-2.5,1.8-3.7,2.8c13,5.3,28.7,9.4,33.7,9.7
		c1.4,0.1,2.9,0.2,4.3,0.3c3.3,0,6.6-0.9,9.8-1.8c1.9-0.5,4-1.1,6.1-1.5c-0.6,0.6-1.2,1.2-1.7,1.7l-9,9.7c-0.7,0.7-2.2,2.6-1.2,5
		c0.4,0.9,1.2,1.9,2.4,2.6c2.1,1.4,6,2.4,9.6,2.4c1.4,0,2.6-0.1,3.8-0.4c3.8-0.8,7.7-4,11.9-7.3c3.3-2.7,8.1-6,11.7-7
		c1-0.3,2.3-0.4,3.3-0.4c0.3,0,0.6,0,0.8,0c2.4,0.3,4.7,1.1,8.9,4.2c7.4,5.5,40.1,34.1,40.4,34.4c0,0,2.1,1.8,2,4.8
		c-0.1,1.7-1,3.1-2.6,4.2c-1.4,0.9-2.8,1.3-4.3,1.3c-2.2,0-3.7-1-3.8-1.1c-0.1-0.1-11.3-10.4-15.4-13.8c-0.7-0.5-1.3-1-1.9-1
		c-0.3,0-0.6,0.1-0.9,0.4c-0.6,0.8,0.1,1.9,0.9,2.6l13.1,13.1c0,0,1.6,1.5,1.8,3.5c0.1,2.2-0.9,4-3.1,5.4c-1.5,1-3.1,1.5-4.6,1.5
		c-2,0-3.4-0.9-3.7-1.1l-1.9-1.8c-3.4-3.4-7-6.9-9.6-9c-0.6-0.5-1.3-1-2-1c-0.3,0-0.6,0.1-0.8,0.3c-0.3,0.3-0.5,0.9,0.2,1.9
		c0.3,0.4,0.7,0.7,0.7,0.7l9.5,10.7c0.1,0.1,2,2.3,0.2,4.6l-0.3,0.4c-0.3,0.3-0.6,0.6-0.9,0.9c-1.6,1.3-3.8,1.5-4.7,1.5
		c-0.5,0-0.9,0-1.3-0.1c-0.9-0.2-1.6-0.4-1.9-0.8l-0.1-0.1c-0.5-0.5-5.3-5.5-9.3-8.8c-0.5-0.4-1.2-1-1.9-1c-0.3,0-0.6,0.1-0.9,0.4
		c-0.8,0.9,0.4,2.2,0.9,2.6l8.1,9c0,0.1-0.1,0.3-0.3,0.6c-0.3,0.4-1.3,1.4-4.2,1.8c-0.4,0-0.7,0.1-1.1,0.1c-3,0-6.3-1.5-8-2.4
		c0.8-1.6,1.2-3.4,1.2-5.2c0-6.7-5.4-12.1-12.1-12.2c-0.1,0-0.3,0-0.4,0c0.2-3.1-0.2-8.9-6.2-11.4c-1.7-0.7-3.4-1.1-5.1-1.1
		c-1.3,0-2.5,0.2-3.7,0.7c-1.2-2.4-3.3-4.1-5.9-5c-1.5-0.5-2.9-0.8-4.4-0.8c-2.5,0-4.8,0.7-6.8,2.2c-1.9-2.4-4.9-3.9-8-3.9
		c-2.7,0-5.3,1.1-7.3,3c-2.5-1.9-12.6-8.3-39.5-14.4c-1.3-0.3-4.3-1.2-6.1-1.7c-0.3,1.5-0.5,2.9-0.7,4.4c0,0,5,1.2,5.9,1.4
		C51.1,87.5,60.2,93.9,61.8,95c-0.5,1.2-0.8,2.6-0.8,4c0,5.7,4.6,10.3,10.3,10.3c0.6,0,1.3-0.1,1.9-0.2c0.9,4.2,3.6,7.3,7.8,9
		c1.2,0.5,2.5,0.7,3.7,0.7c0.8,0,1.6-0.1,2.3-0.3c0.8,2,2.5,4.4,6.4,6c1.4,0.5,2.7,0.8,4,0.8c1.1,0,2.1-0.2,3.1-0.6
		c1.9,4.5,6.3,7.5,11.2,7.5c3.3,0,6.4-1.3,8.7-3.7c2,1.1,6.1,3.1,10.3,3.1c0.5,0,1.1,0,1.6-0.1c4.2-0.5,6.1-2.1,7-3.4
		c0.2-0.2,0.3-0.5,0.4-0.7c1,0.3,2.1,0.5,3.3,0.5c2.3,0,4.4-0.8,6.6-2.4c2.2-1.6,3.7-3.8,3.9-5.7c0,0,0-0.1,0-0.1
		c0.7,0.2,1.5,0.2,2.2,0.2c2.3,0,4.6-0.7,6.8-2.2c4.2-2.8,5-6.4,4.9-8.8c0.7,0.2,1.5,0.2,2.2,0.2c2.2,0,4.3-0.7,6.4-2
		c2.6-1.7,4.2-4.2,4.4-7.2c0.2-2-0.3-4.1-1.4-5.8c7.1-3.1,23.3-9,42.4-13.3c-0.1-1.5-0.3-2.9-0.6-4.4
		C197.9,81.8,180.6,89.2,176.3,91.2z M111.7,128.5c-4.5,0-8.1-3.5-8.3-7.9c0-0.4-0.1-1.4-0.9-1.4c-0.4,0-0.7,0.2-1,0.5
		c-1,0.9-2.2,1.8-4.1,1.8c-0.8,0-1.7-0.2-2.7-0.6c-4.7-1.9-4.8-5.2-4.6-6.5c0.1-0.4,0.1-0.7-0.2-1l-0.3-0.3h-0.3
		c-0.2,0-0.5,0.1-0.8,0.3c-1.4,1-2.7,1.4-4,1.4c-0.7,0-1.5-0.1-2.2-0.4c-6.2-2.4-5.7-8.3-5.4-10.1c0-0.4,0-0.6-0.3-0.8l-0.4-0.4
		l-0.4,0.4c-1.2,1.2-2.8,1.8-4.5,1.8c-3.6,0-6.5-2.9-6.5-6.5c0-3.6,2.9-6.5,6.5-6.5c3.2,0,6,2.4,6.4,5.7l0.2,1.7l1-1.5
		c0.1-0.2,2.7-4.1,7.5-4.1c0.9,0,1.9,0.1,2.8,0.4c3.8,1.2,4.5,4.6,4.6,6.1c0.1,0.8,0.7,0.9,0.8,0.9c0.3,0,0.6-0.2,0.7-0.4
		c0.7-0.8,2.3-2,4.8-2c1.1,0,2.3,0.3,3.6,0.8c6.1,2.6,3.3,10.4,3.3,10.4c-0.5,1.3-0.5,1.8-0.1,2.2l0.2,0.1h0.2
		c0.3,0,0.6-0.1,1.2-0.3c0.8-0.3,2.1-0.7,3.3-0.7h0c4.6,0.1,8.3,3.8,8.3,8.3C120.1,124.8,116.3,128.5,111.7,128.5z"/>
</g>
</svg>
