<svg xmlns="http://www.w3.org/2000/svg" viewBox="0 0 661.49 91.24"><defs><style>.cls-1{fill:none;stroke:#000;stroke-miterlimit:10;}</style></defs><title>Recurso 1</title><g id="Capa_2" data-name="Capa 2"><g id="Capa_1-2" data-name="Capa 1"><path d="M116.63,68.64V15.25H122l31,48.14-2.17-1.47V15.25h5.29V68.64h-5.4l-31.64-48.5,2.87,2.09V68.64Z"/><path d="M187,69.23a20.81,20.81,0,0,1-10.18-2.31,15.35,15.35,0,0,1-6.39-6.73,23.6,23.6,0,0,1-2.21-10.65V34.4a23.62,23.62,0,0,1,2.21-10.68,15.34,15.34,0,0,1,6.39-6.7,23.49,23.49,0,0,1,20.36,0,15.34,15.34,0,0,1,6.39,6.7,23.62,23.62,0,0,1,2.21,10.68V49.54a23.6,23.6,0,0,1-2.21,10.65,15.35,15.35,0,0,1-6.39,6.73A20.81,20.81,0,0,1,187,69.23Zm0-4.92q6.44,0,10-3.81t3.53-10.71V34.14c0-4.6-1.18-8.18-3.53-10.71s-5.67-3.8-10-3.8-7.61,1.26-10,3.8-3.52,6.11-3.52,10.71V49.79q0,6.91,3.52,10.71T187,64.31Z"/><path d="M230.91,68.68,212.39,15.25H218l15.4,45.94,15.4-45.94h5.58L235.83,68.68Z"/><path d="M268.83,15.25V68.68h-5.29V15.25Z"/><path d="M299.22,69.23a35,35,0,0,1-7.33-.73,27.57,27.57,0,0,1-6.43-2.21,27.22,27.22,0,0,1-5.61-3.67l3.2-4.19a23.49,23.49,0,0,0,7.4,4.41,25.42,25.42,0,0,0,8.77,1.47q6.9,0,10.66-2.72A8.9,8.9,0,0,0,313.62,54v0a6.83,6.83,0,0,0-1.84-5.14A11.6,11.6,0,0,0,307,46a59.58,59.58,0,0,0-6.41-1.57q-3.19-.63-6.41-1.38A25.4,25.4,0,0,1,288.29,41a10.94,10.94,0,0,1-4.28-3.9,12.15,12.15,0,0,1-1.62-6.67v0q0-7.46,5-11.55t14-4.1a26,26,0,0,1,8.36,1.38,30.72,30.72,0,0,1,8.06,4.21l-3.12,4.15a29.07,29.07,0,0,0-6.76-3.62,19.07,19.07,0,0,0-6.54-1.19q-6.54,0-10.14,2.73a9.2,9.2,0,0,0-3.6,7.78v0a6.24,6.24,0,0,0,2,5,13.59,13.59,0,0,0,5.29,2.61c2.17.58,4.46,1.12,6.89,1.61q3.07.63,6.12,1.47a22.78,22.78,0,0,1,5.49,2.32,11.21,11.21,0,0,1,3.94,4,12.86,12.86,0,0,1,1.46,6.49v.07q0,7.4-5.14,11.43T299.22,69.23Z"/><path d="M345.7,69.23a20.84,20.84,0,0,1-10.18-2.31,15.35,15.35,0,0,1-6.39-6.73,23.6,23.6,0,0,1-2.21-10.65V34.4a23.62,23.62,0,0,1,2.21-10.68,15.34,15.34,0,0,1,6.39-6.7,23.49,23.49,0,0,1,20.36,0,15.34,15.34,0,0,1,6.39,6.7,23.62,23.62,0,0,1,2.2,10.68V49.54a23.6,23.6,0,0,1-2.2,10.65,15.35,15.35,0,0,1-6.39,6.73A20.84,20.84,0,0,1,345.7,69.23Zm0-4.92c4.28,0,7.61-1.27,10-3.81s3.53-6.1,3.53-10.71V34.14c0-4.6-1.18-8.18-3.53-10.71s-5.68-3.8-10-3.8-7.6,1.26-10,3.8-3.52,6.11-3.52,10.71V49.79q0,6.91,3.52,10.71C338.1,63,341.41,64.31,345.7,64.31Z"/><path d="M375.87,68.68V15.25h5.29V68.68Zm3.74,0V63.76h30.57v4.92Z"/><path d="M435.54,69.23q-9.41,0-14.07-4.87T416.8,49.72V15.25h5.29V50q0,7,3.34,10.52C427.67,62.84,431,64,435.54,64s7.92-1.17,10.16-3.51,3.36-5.84,3.36-10.52V15.25h5.3V49.72q0,9.78-4.69,14.64T435.54,69.23Z"/><path d="M459.5,20.18V15.25h37.7v4.93Zm16.21,48.5V17.42H481V68.68Z"/><path d="M510.94,15.25V68.68h-5.29V15.25Z"/><path d="M543,69.23a20.79,20.79,0,0,1-10.18-2.31,15.35,15.35,0,0,1-6.39-6.73,23.47,23.47,0,0,1-2.21-10.65V34.4a23.49,23.49,0,0,1,2.21-10.68,15.34,15.34,0,0,1,6.39-6.7,23.49,23.49,0,0,1,20.36,0,15.34,15.34,0,0,1,6.39,6.7,23.62,23.62,0,0,1,2.2,10.68V49.54a23.6,23.6,0,0,1-2.2,10.65,15.35,15.35,0,0,1-6.39,6.73A20.84,20.84,0,0,1,543,69.23Zm0-4.92q6.42,0,10-3.81t3.52-10.71V34.14c0-4.6-1.18-8.18-3.52-10.71s-5.68-3.8-10-3.8-7.61,1.26-10,3.8-3.53,6.11-3.53,10.71V49.79q0,6.91,3.53,10.71T543,64.31Z"/><path d="M573.11,68.64V15.25h5.33l31,48.14-2.16-1.47V15.25h5.29V68.64h-5.4l-31.64-48.5,2.87,2.09V68.64Z"/><path d="M641.86,69.23a34.8,34.8,0,0,1-7.32-.73,27.13,27.13,0,0,1-12-5.88l3.2-4.19a23.49,23.49,0,0,0,7.4,4.41,25.36,25.36,0,0,0,8.76,1.47q6.92,0,10.66-2.72A8.89,8.89,0,0,0,656.27,54v0a6.83,6.83,0,0,0-1.84-5.14A11.6,11.6,0,0,0,649.64,46a59.78,59.78,0,0,0-6.42-1.57q-3.19-.63-6.41-1.38A25.74,25.74,0,0,1,630.93,41a11,11,0,0,1-4.28-3.9A12.15,12.15,0,0,1,625,30.39v0q0-7.46,5-11.55t14-4.1a26,26,0,0,1,8.36,1.38,30.77,30.77,0,0,1,8.07,4.21l-3.13,4.15a28.68,28.68,0,0,0-6.76-3.62A19,19,0,0,0,644,19.63c-4.35,0-7.74.91-10.13,2.73a9.19,9.19,0,0,0-3.61,7.78v0a6.24,6.24,0,0,0,2,5,13.66,13.66,0,0,0,5.29,2.61q3.25.87,6.9,1.61,3.07.63,6.11,1.47a22.86,22.86,0,0,1,5.5,2.32,11.11,11.11,0,0,1,3.93,4,12.85,12.85,0,0,1,1.47,6.49v.07q0,7.4-5.15,11.43T641.86,69.23Z"/><rect class="cls-1" x="0.5" y="0.5" width="90.24" height="90.24"/><path d="M10.66,65.69V22.39H15l25.15,39-1.76-1.19V22.39h4.29v43.3H38.29L12.63,26.35,15,28.05V65.69Z"/><path d="M66.42,66.16a28.09,28.09,0,0,1-5.94-.59,22.8,22.8,0,0,1-5.22-1.79,22,22,0,0,1-4.54-3l2.59-3.4a19.05,19.05,0,0,0,6,3.58,20.48,20.48,0,0,0,7.11,1.19c3.74,0,6.61-.73,8.64-2.2a7.21,7.21,0,0,0,3-6.2v0a5.54,5.54,0,0,0-1.49-4.17,9.4,9.4,0,0,0-3.89-2.21,47.67,47.67,0,0,0-5.2-1.28q-2.59-.51-5.2-1.12a20.33,20.33,0,0,1-4.76-1.73,9,9,0,0,1-3.48-3.15,9.94,9.94,0,0,1-1.31-5.41v0q0-6.06,4-9.37t11.36-3.33a21,21,0,0,1,6.78,1.12,25,25,0,0,1,6.54,3.41l-2.53,3.37a23.81,23.81,0,0,0-5.49-2.94,15.64,15.64,0,0,0-5.3-1q-5.31,0-8.22,2.22A7.43,7.43,0,0,0,57,34.46v0a5,5,0,0,0,1.66,4.08A11.06,11.06,0,0,0,63,40.69q2.64.7,5.59,1.31,2.5.49,5,1.19A18,18,0,0,1,78,45.07a8.9,8.9,0,0,1,3.19,3.23,10.29,10.29,0,0,1,1.19,5.26v.06a11.12,11.12,0,0,1-4.17,9.27Q74,66.16,66.42,66.16Z"/></g></g></svg>