<?xml version="1.0" encoding="utf-8"?>
<!-- Generator: Adobe Illustrator 25.4.1, SVG Export Plug-In . SVG Version: 6.00 Build 0)  -->
<svg version="1.1" id="Illustration" xmlns="http://www.w3.org/2000/svg" xmlns:xlink="http://www.w3.org/1999/xlink" x="0px"
	 y="0px" viewBox="0 0 2500 2500" style="enable-background:new 0 0 2500 2500;" xml:space="preserve">
<style type="text/css">
	.st0{fill:#F2E6DC;}
	.st1{fill:#363E44;}
	.st2{fill:#FFFFFF;}
	.st3{fill:#F7F1EB;}
	.st4{fill:#D3BBA3;}
	.st5{fill:#D87355;}
	.st6{fill:#BC8271;}
	.st7{fill:#E6D0BE;}
	.st8{fill:#8B865C;}
	.st9{clip-path:url(#SVGID_00000023979208159531914870000003577583529441520043_);fill:#363E44;}
	.st10{fill:#EFBC73;}
	.st11{fill:#776E42;}
	.st12{fill:#84524D;}
</style>
<g id="Sales_plan_for_business_1_">
	<circle class="st0" cx="1250" cy="1250" r="915"/>
	<g>
		<g>
			<g>
				<path class="st1" d="M1894.9,1922.83H984.5c-1.22,0-2.2-0.99-2.2-2.2V580.11c0-1.22,0.99-2.2,2.2-2.2h252.98
					c1.22,0,2.2,0.99,2.2,2.2s-0.99,2.2-2.2,2.2H986.7v1336.1h908.2c1.22,0,2.2,0.99,2.2,2.2
					C1897.11,1921.84,1896.12,1922.83,1894.9,1922.83z"/>
				<path class="st1" d="M2107.37,1097.14c-1.22,0-2.2-0.99-2.2-2.2V582.32H1837.8c-1.22,0-2.2-0.99-2.2-2.2s0.99-2.2,2.2-2.2
					h269.57c1.22,0,2.2,0.99,2.2,2.2v514.82C2109.58,1096.16,2108.59,1097.14,2107.37,1097.14z"/>
			</g>
			<g>
				
					<rect x="1098.83" y="621.12" transform="matrix(-1 -1.224647e-16 1.224647e-16 -1 3091.8701 2445.5344)" class="st2" width="894.21" height="1203.3"/>
				<path class="st3" d="M1656.83,509.39L1656.83,509.39c0-72.7-58.94-131.64-131.64-131.64c-72.7,0-131.64,58.94-131.64,131.64l0,0
					H1249.2v173.48h551.98V509.39H1656.83z M1428.19,509.39c0-53.57,43.43-97,97-97c53.57,0,97,43.43,97,97l0,0H1428.19
					L1428.19,509.39z"/>
				<path class="st4" d="M1821.92,664.33h-551.98c-1.22,0-2.2-0.99-2.2-2.2V488.64c0-1.22,0.99-2.2,2.2-2.2h142.16
					c1.18-72.79,60.76-131.64,133.83-131.64c73.07,0,132.65,58.85,133.83,131.64h142.16c1.22,0,2.2,0.99,2.2,2.2v173.48
					C1824.13,663.34,1823.14,664.33,1821.92,664.33z M1272.15,659.92h547.57V490.85h-142.14c-1.22,0-2.2-0.99-2.2-2.2
					c0-71.37-58.06-129.43-129.44-129.43c-71.37,0-129.44,58.06-129.44,129.43c0,1.22-0.99,2.2-2.2,2.2h-142.14V659.92z
					 M1679.78,488.64h0.02H1679.78z M1642.93,490.85h-194c-1.22,0-2.2-0.99-2.2-2.2c0-54.7,44.5-99.2,99.2-99.2
					c54.7,0,99.2,44.5,99.2,99.2C1645.14,489.86,1644.15,490.85,1642.93,490.85z M1451.17,486.44h189.53
					c-1.18-51.25-43.24-92.59-94.77-92.59C1494.4,393.85,1452.34,435.19,1451.17,486.44z"/>
			</g>
			<g>
				<g>
					<rect x="1405.38" y="1244.47" class="st0" width="324.58" height="19.93"/>
					<rect x="1455.75" y="1294.27" class="st0" width="399.04" height="19.93"/>
					<rect x="1405.38" y="1344.06" class="st0" width="383.93" height="19.93"/>
				</g>
				<g>
					<rect x="1491.28" y="1025.21" class="st0" width="401.53" height="19.93"/>
					<rect x="1394.52" y="1075.01" class="st0" width="383.93" height="19.93"/>
					<rect x="1394.52" y="1124.8" class="st0" width="450.83" height="19.93"/>
				</g>
				<g>
					<rect x="1492.7" y="819.23" class="st0" width="352.65" height="19.93"/>
					<rect x="1395.94" y="869.02" class="st0" width="382.51" height="19.93"/>
					<rect x="1395.94" y="918.82" class="st0" width="496.86" height="19.93"/>
				</g>
			</g>
			<g>
				<g>
					<path class="st0" d="M1343.92,1386.97h-161.14c-1.22,0-2.2-0.99-2.2-2.2V1223.7c0-1.22,0.99-2.2,2.2-2.2h161.14
						c1.22,0,2.2,0.99,2.2,2.2v161.07C1346.12,1385.98,1345.13,1386.97,1343.92,1386.97z M1184.98,1382.56h156.73V1225.9h-156.73
						V1382.56z"/>
					<polygon class="st5" points="1254.7,1360.42 1204.25,1314.55 1219.84,1295.34 1251.83,1320.9 1302.02,1248.05 1322.44,1262.1 
											"/>
				</g>
				<g>
					<path class="st0" d="M1343.92,1167.71h-161.14c-1.22,0-2.2-0.99-2.2-2.2v-161.06c0-1.22,0.99-2.2,2.2-2.2h161.14
						c1.22,0,2.2,0.99,2.2,2.2v161.06C1346.12,1166.72,1345.13,1167.71,1343.92,1167.71z M1184.98,1163.3h156.73v-156.65h-156.73
						V1163.3z"/>
					<polygon class="st5" points="1254.7,1141.15 1204.25,1095.29 1219.84,1076.08 1251.83,1101.64 1302.02,1028.79 
						1322.44,1042.84 					"/>
				</g>
				<g>
					<path class="st0" d="M1343.92,961.72h-161.14c-1.22,0-2.2-0.99-2.2-2.2V798.46c0-1.22,0.99-2.2,2.2-2.2h161.14
						c1.22,0,2.2,0.99,2.2,2.2v161.06C1346.12,960.74,1345.13,961.72,1343.92,961.72z M1184.98,957.31h156.73V800.66h-156.73V957.31
						z"/>
					<polygon class="st5" points="1254.7,935.17 1204.25,889.3 1219.84,870.09 1251.83,895.65 1302.02,822.8 1322.44,836.86 					
						"/>
				</g>
			</g>
		</g>
	</g>
	<g>
		<g>
			<polygon class="st6" points="490.98,1862.32 522.12,2003.22 618.63,1997.44 620.52,1853.32 			"/>
			<polygon class="st6" points="837.68,1844.67 872.73,1987.94 985.56,1992.89 958.26,1844.63 			"/>
			<path class="st7" d="M872.73,1987.94l12.47,167.59l311.93-0.11c-42.23-64.87-110.91-139.77-211.94-167.51L872.73,1987.94z"/>
			<path class="st0" d="M520.84,1997.44c0,6.13-39.54,161-39.54,161h226.4l-89.06-161H520.84z"/>
			<path class="st1" d="M597.38,1096.38c0,0-30.81,199.78,214.02,798.48h159.68c0,0-126.31-731.01-139.8-823.22L597.38,1096.38z"/>
			<path class="st1" d="M461.74,1125.62c0,0-61.9,314.95,21.31,769.24h148.43c0,0,26.62-659.04,64.85-758L461.74,1125.62z"/>
			<path class="st4" d="M663.51,1417.43c-0.04,0-0.08,0-0.11,0c-1.22-0.06-2.15-1.1-2.09-2.31l6.97-137.22
				c0.05-0.9,0.63-1.68,1.48-1.97l48.86-16.83c1.15-0.4,2.41,0.21,2.8,1.37c0.4,1.15-0.22,2.41-1.37,2.8l-47.45,16.35l-6.89,135.73
				C665.65,1416.52,664.68,1417.43,663.51,1417.43z"/>
		</g>
		<g>
			<path class="st6" d="M397.44,1026.21l6.03,2.29l108.74-150.17l-112.2-100.11l-54.96,120.73
				C322.46,948.53,346.49,1006.88,397.44,1026.21z"/>
			<g>
				<g>
					<path class="st6" d="M848.79,757.49c0,0,58.12,53.47,90.11,18.86c33.22-35.94,72-77.34,92.12-96.81
						c41.47-40.14,108.54-93.36,115.86-83.89c4.17,5.4-3.47,14.55-25.54,37.65c2.28-0.05,9.24,1.5,12.29,7.14
						c4.51,8.35-1.23,13.85-1.51,14.57c0.77-0.08,9.62-0.53,13.59,4.55c4.47,5.72,3.54,11.81,0.8,16.8
						c1.92-0.14,10.18,0.62,13.74,5.68c4.63,6.59,0.95,14.71-3.9,19.26c-8.89,8.35-33.75,30.57-45.39,44
						c-14.49,16.71-71.28,86.14-111.11,134.95c-24.92,30.55-64.93,44.42-103.42,35.87l-45.92-10.21L848.79,757.49z"/>
					<path class="st1" d="M1075.81,725.71c-0.33,0-0.67-0.08-0.99-0.23c-1.09-0.54-1.53-1.87-0.98-2.96
						c5.46-10.88,5.41-20.85,5.37-28.85c-0.04-8.42-0.08-15.7,7.31-18.57c4.17-1.62,8.45-5.74,12.37-11.93
						c1.04-1.63,0.15-3.04-0.15-3.44c-0.63-0.83-1.83-1.55-3.34-1.1l-35.91,10.85c-1.17,0.35-2.4-0.31-2.75-1.47
						c-0.35-1.16,0.31-2.4,1.47-2.75l35.91-10.85c3.03-0.91,6.22,0.13,8.13,2.65c1.9,2.5,2.04,5.83,0.37,8.47
						c-4.5,7.08-9.37,11.68-14.5,13.67c-4.37,1.69-4.55,5.88-4.5,14.43c0.04,8.03,0.09,19.03-5.84,30.85
						C1077.4,725.27,1076.62,725.71,1075.81,725.71z"/>
					<path class="st1" d="M1136.16,712.58c-0.59,0-1.17-0.23-1.6-0.69c-5.79-6.12-7.17-14.96-4.13-22.38l-0.12,0.08
						c-5.6,3.96-13.22,3.35-18.13-1.45c-2.76-2.7-4.28-6.32-4.27-10.18s1.54-7.47,4.31-10.16l2.07-2.01
						c-3.38-0.05-6.71-1.53-8.99-4.31c-3.79-4.66-3.49-11.41,0.71-15.7l9.61-9.82c0.85-0.87,2.25-0.89,3.12-0.03
						c0.87,0.85,0.88,2.25,0.03,3.12l-9.61,9.82c-2.63,2.69-2.82,6.91-0.44,9.83c2.52,3.09,7.12,3.6,10.27,1.15l7.46-5.84
						c0.92-0.73,2.25-0.6,3.02,0.29c0.77,0.88,0.72,2.21-0.12,3.03l-14.06,13.66c-1.91,1.85-2.96,4.34-2.97,7.01
						c0,2.66,1.04,5.15,2.94,7.02c3.38,3.31,8.64,3.72,12.5,1l12.02-8.5c0.92-0.65,2.19-0.5,2.93,0.34
						c0.74,0.85,0.73,2.12-0.03,2.95l-5.07,5.51c-5.86,6.37-5.79,16.28,0.15,22.57c0.84,0.88,0.8,2.28-0.09,3.12
						C1137.25,712.38,1136.71,712.58,1136.16,712.58z"/>
				</g>
			</g>
			<path class="st8" d="M455.24,912.84l-110.47-46.6c0,0,25.08-69,51.05-109.65c27.51-43.05,65.59-61.19,116.38-66.69
				c72.13-7.8,202.28,3.02,295.16,33.07c117.37,37.97,122.55,41.43,122.55,41.43l-60.41,160.53l-39.7-10.36l48.46,311.19
				l-473.85,17.48C404.42,1243.24,441.44,968.08,455.24,912.84z"/>
			<g>
				<polygon class="st2" points="822.62,1025.04 662.38,1025.04 735.47,819.81 895.72,819.81 				"/>
				<polygon class="st1" points="849.01,835.59 758.24,835.59 766.57,810.29 859.07,810.29 				"/>
				<path class="st1" d="M759.04,837.37c-0.2,0-0.4-0.03-0.61-0.08c-1.17-0.34-1.85-1.55-1.52-2.73l6.9-24.16
					c0.27-0.95,1.14-1.6,2.12-1.6h93.21c1.22,0,2.2,0.99,2.2,2.2s-0.99,2.2-2.2,2.2H767.6l-6.44,22.57
					C760.88,836.74,760,837.37,759.04,837.37z"/>
				<path class="st1" d="M790.11,809.76c-0.2,0-0.4-0.03-0.61-0.08c-1.17-0.34-1.85-1.55-1.52-2.73l6.9-24.16
					c0.27-0.95,1.14-1.6,2.12-1.6h48.33c0.69,0,1.34,0.33,1.76,0.88c0.42,0.55,0.55,1.27,0.36,1.93l-6.91,24.16
					c-0.34,1.17-1.57,1.84-2.73,1.52c-1.17-0.34-1.85-1.56-1.52-2.73l6.1-21.35h-43.75l-6.44,22.56
					C791.95,809.12,791.07,809.76,790.11,809.76z"/>
				<path class="st1" d="M816.86,806.3c-4.55,0-8.25-3.7-8.25-8.24c0-4.55,3.7-8.25,8.25-8.25c4.55,0,8.24,3.7,8.24,8.25
					C825.11,802.6,821.41,806.3,816.86,806.3z M816.86,794.22c-2.12,0-3.84,1.72-3.84,3.84c0,2.11,1.72,3.83,3.84,3.83
					c2.11,0,3.83-1.72,3.83-3.83C820.7,795.94,818.98,794.22,816.86,794.22z"/>
			</g>
			<g>
				<path class="st6" d="M425.19,912.86c54.82,3.67,184.36,5.91,197,6.63c23.62,1.35,150.2,11.89,150.66,30.32
					c0.22,8.81-24.26,7.88-32.52,7.32c6.45,3.74,32.8,15.41,30.48,25.01c-2.73,11.28-36.25,2.17-36.86,2.36
					c6.94,3.13,35.09,14.49,33.63,21.75c-1.9,9.45-31.26,6.74-40.01,5.52c0.75,1.32,29.04,8.21,27.25,19.57
					c-1.31,8.34-28.24,5.81-39.93,4.75c-20.99-1.18-265.83-1.74-311.32-7.66C385.75,1026.13,401.1,930.03,425.19,912.86z"/>
				<path class="st1" d="M543.27,919.03c-0.03,0-0.05,0-0.08,0c-27.98-0.92-100.69-4.15-118.31-5.14c-1.22-0.07-2.15-1.11-2.08-2.32
					c0.06-1.22,1.1-2.18,2.32-2.08c17.6,0.98,90.25,4.22,118.21,5.13c1.22,0.04,2.17,1.06,2.13,2.28
					C545.43,918.08,544.46,919.03,543.27,919.03z"/>
				<g>
					<path class="st1" d="M740.66,958.48c-0.29,0-0.59-0.06-0.87-0.18c-4.47-1.92-9.09-3.54-13.75-4.83
						c-8.39-2.31-17.09-3.58-25.85-3.77c-1.22-0.03-2.18-1.04-2.16-2.25c0.03-1.2,1.01-2.16,2.2-2.16c0.02,0,0.03,0,0.05,0
						c9.12,0.2,18.18,1.52,26.92,3.93c4.85,1.33,9.67,3.02,14.32,5.02c1.12,0.48,1.64,1.78,1.16,2.9
						C742.33,957.98,741.52,958.48,740.66,958.48z"/>
					<path class="st1" d="M734.44,986.13c-0.21,0-0.43-0.03-0.65-0.1c-0.98-0.3-1.97-0.59-2.99-0.87
						c-8.38-2.3-17.07-3.57-25.85-3.77c-1.22-0.03-2.18-1.04-2.16-2.25c0.03-1.2,1.01-2.16,2.2-2.16c0.01,0,0.03,0,0.05,0
						c9.14,0.2,18.19,1.53,26.92,3.93c1.06,0.29,2.09,0.59,3.11,0.9c1.16,0.36,1.82,1.59,1.46,2.76
						C736.26,985.52,735.39,986.13,734.44,986.13z"/>
					<path class="st1" d="M727,1013.69c-0.13,0-0.27-0.01-0.4-0.04c-5.59-1.03-11.32-1.62-17.05-1.75
						c-1.22-0.03-2.18-1.04-2.16-2.25c0.03-1.21,0.96-2.1,2.25-2.16c5.96,0.13,11.93,0.74,17.75,1.82c1.2,0.22,1.99,1.37,1.77,2.57
						C728.97,1012.95,728.04,1013.69,727,1013.69z"/>
				</g>
			</g>
		</g>
		<g>
			<path class="st6" d="M707.38,673.1c-14.78,10.5-56.54-18-56.54-18l-23.89-49.97c0-25.5,20.67-46.18,46.18-46.18
				c25.5,0,46.18,20.68,46.18,46.18C719.32,605.13,722.44,662.41,707.38,673.1z"/>
			<path class="st6" d="M657.13,730.51h3.63c16.66,0,30.17-13.51,30.17-30.17V586.58h-63.97v113.75
				C626.96,717,640.47,730.51,657.13,730.51z"/>
			<path class="st6" d="M714.01,617.27c0,0,12.95,13.57,12.26,17.15c-0.82,4.28-15.25,6.89-15.25,6.89S714.36,617.3,714.01,617.27z"
				/>
			<g>
				<path class="st2" d="M672.34,615.3c0,0,7.73-4.16,17.05-4.16c1.98,0-1.76,15.87-3.64,14.97
					C677.47,622.16,672.34,615.3,672.34,615.3z"/>
				<g>
					<defs>
						<path id="SVGID_1_" d="M672.34,615.3c0,0,11.37-6.12,23.16-3.51c11.79,2.6,19.52,12.94,19.52,12.94s-11.37,6.12-23.16,3.51
							C680.07,625.63,672.34,615.3,672.34,615.3z"/>
					</defs>
					<clipPath id="SVGID_00000165232020765486597430000000235154661614880403_">
						<use xlink:href="#SVGID_1_"  style="overflow:visible;"/>
					</clipPath>
					<path style="clip-path:url(#SVGID_00000165232020765486597430000000235154661614880403_);fill:#363E44;" d="M689.78,610.73
						c6.16-6.16,16.16-6.16,22.32,0c6.16,6.16,6.16,16.16,0,22.32c-6.16,6.16-16.16,6.16-22.32,0
						C683.62,626.89,683.62,616.89,689.78,610.73z"/>
				</g>
			</g>
			<path class="st1" d="M655.44,613.72c0,0,9.13,23.47,33.91,24.78c24.78,1.3,29.32,0.86,29.32,0.86l3.2,23.57
				c1.41,10.39-6.9,19.55-17.38,19.15l-17.74-0.67c-17.95-0.68-32.66-14.47-34.49-32.34l-2.02-19.7l-23.26-8.38
				c0,0-38.11-18.31-23.69-45.09c9.13-16.95,24.78-10.43,24.78-10.43l59.36-45.74c11.55-8.9,27.9-7.84,38.21,2.47v0
				c9.81,9.81,8.78,26-2.2,34.49l-7.99,6.18l7.94-1.59c6.42-1.28,12.66,2.88,13.94,9.3l0,0c2.51,12.54-7.27,24.26-20.05,23.83
				c-5.7-0.19-12.09-0.99-18.79-2.85C675,585.03,651.53,592.86,655.44,613.72z"/>
			<path class="st6" d="M655.36,622.57c2.83,8.05-0.47,16.54-7.37,18.97c-6.9,2.43-14.79-2.13-17.62-10.18
				c-2.83-8.05,0.47-16.54,7.37-18.97C644.64,609.96,652.53,614.52,655.36,622.57z"/>
			<path class="st6" d="M699.59,651.51c-1.64,0-3.28-0.46-4.71-1.39c-2.75-1.78-4.28-5.05-3.89-8.32c0.14-1.21,1.24-2.09,2.45-1.93
				c1.21,0.14,2.07,1.24,1.93,2.45c-0.19,1.62,0.56,3.23,1.91,4.11c1.4,0.91,3.23,0.91,4.65-0.01c1.02-0.66,2.39-0.36,3.05,0.67
				c0.66,1.02,0.36,2.39-0.67,3.05C702.88,651.05,701.23,651.51,699.59,651.51z"/>
			<path class="st1" d="M647.61,636.79c-0.48,0-0.97-0.16-1.38-0.48l-6.52-5.21c-0.95-0.76-1.1-2.15-0.34-3.1
				c0.76-0.95,2.15-1.1,3.1-0.34l6.52,5.21c0.95,0.76,1.1,2.15,0.34,3.1C648.9,636.51,648.26,636.79,647.61,636.79z"/>
		</g>
	</g>
	<g>
		<g>
			<path class="st1" d="M1720.69,1658.04c-54.93,0-99.65-44.65-99.72-99.6l-0.13-97.52c0-1.22,0.98-2.2,2.2-2.21l195.04-0.25h0
				c0.58,0,1.14,0.23,1.56,0.64c0.41,0.41,0.65,0.97,0.65,1.56l0.13,97.52c0.03,26.64-10.3,51.69-29.12,70.55
				c-18.81,18.86-43.84,29.27-70.48,29.3C1720.78,1658.04,1720.73,1658.04,1720.69,1658.04z M1625.25,1463.12l0.12,95.32
				c0.03,25.46,9.98,49.38,28,67.36c18,17.95,41.9,27.83,67.31,27.83c0.04,0,0.08,0,0.13,0c25.46-0.03,49.38-9.98,67.36-28
				c17.98-18.03,27.86-41.98,27.83-67.44l-0.12-95.32L1625.25,1463.12z"/>
			<path class="st1" d="M1719.86,1593.91c-24.75,0-48.01-1.36-65.57-3.85c-25.96-3.68-29.29-8.13-29.3-11.59
				c0-1.22,0.98-2.2,2.2-2.21h0c1.22,0,2.2,0.99,2.2,2.2c1.23,3.97,32.85,11.15,91.32,11.03c58.52-0.08,90.07-7.3,91.3-11.33
				c0-1.22,0.98-2.18,2.2-2.18c0,0,0,0,0,0c1.22,0,2.2,1.01,2.2,2.23c0.02,12.31-62.59,15.64-95.7,15.69
				C1720.44,1593.91,1720.15,1593.91,1719.86,1593.91z"/>
			<path class="st1" d="M1720.02,1551.16c-33.27,0-95.06-3.21-95.08-15.44c0-1.22,0.98-2.2,2.2-2.21h0c1.22,0,2.2,0.98,2.2,2.2
				c1.22,3.95,32.48,11.03,90.4,11.03c0.31,0,0.61,0,0.92,0c58.51-0.08,90.07-7.3,91.3-11.33c0-1.22,0.98-2.18,2.2-2.18c0,0,0,0,0,0
				c1.22,0,2.2,1.01,2.2,2.23c0.02,12.31-62.59,15.64-95.7,15.69C1720.46,1551.16,1720.24,1551.16,1720.02,1551.16z"/>
		</g>
		<g>
			
				<ellipse transform="matrix(0.7071 -0.7071 0.7071 0.7071 -382.6567 1583.641)" class="st2" cx="1720.3" cy="1253.73" rx="252.48" ry="252.48"/>
			<path class="st5" d="M1720.29,1508.42c-67.9,0-131.76-26.4-179.85-74.36c-48.17-48.04-74.74-111.97-74.83-180
				c-0.18-140.43,113.92-254.83,254.36-255.02c0.1,0,0.23,0,0.33,0c140.29,0,254.5,114.03,254.68,254.36
				c0.18,140.43-113.92,254.84-254.36,255.02C1720.51,1508.42,1720.4,1508.42,1720.29,1508.42z M1720.3,1003.45
				c-0.11,0-0.22,0-0.33,0c-138,0.18-250.13,112.6-249.95,250.6c0.09,66.85,26.2,129.67,73.53,176.88
				c47.25,47.13,110.01,73.08,176.74,73.08c0.11,0,0.22,0,0.33,0c138-0.18,250.13-112.6,249.95-250.6
				C1970.39,1115.51,1858.15,1003.45,1720.3,1003.45z"/>
		</g>
		<g>
			<g>
				<path class="st5" d="M1719.57,1451.53c-5.24,0-10.51-0.2-15.79-0.61c-109.83-8.54-192.24-104.86-183.71-214.73
					c4.13-53.22,28.74-101.65,69.28-136.36c40.54-34.71,92.17-51.56,145.37-47.41c109.83,8.53,192.24,104.86,183.71,214.73
					c-4.13,53.22-28.74,101.65-69.28,136.36C1812.64,1434.77,1767.12,1451.53,1719.57,1451.53z M1718.94,1056.21
					c-46.5,0-91.01,16.39-126.72,46.97c-39.65,33.94-63.71,81.3-67.75,133.35c-8.34,107.44,72.25,201.65,179.65,210
					c52.02,4.03,102.52-12.42,142.17-46.37c39.65-33.94,63.71-81.3,67.75-133.35c8.34-107.45-72.25-201.65-179.65-209.99
					C1729.22,1056.41,1724.07,1056.21,1718.94,1056.21z"/>
				<path class="st10" d="M1730.65,1104.88c-81.04-6.3-151.83,54.32-158.13,135.38c-6.3,81.07,54.29,151.89,135.33,158.19
					c81.04,6.3,151.83-54.32,158.13-135.38C1872.28,1182,1811.69,1111.18,1730.65,1104.88z M1712.42,1339.74
					c-48.62-3.78-84.98-46.27-81.2-94.91s46.25-85.01,94.88-81.23c48.62,3.78,84.98,46.27,81.2,94.91
					S1761.04,1343.51,1712.42,1339.74z"/>
				
					<ellipse transform="matrix(4.885778e-03 -1 1 4.885778e-03 459.2032 2964.7842)" class="st5" cx="1719.25" cy="1251.67" rx="39.57" ry="39.56"/>
			</g>
			<g>
				
					<rect x="1788.67" y="1117.55" transform="matrix(0.7713 -0.6365 0.6365 0.7713 -289.6043 1448.5804)" class="st8" width="164.54" height="19.46"/>
				<polygon class="st1" points="1798.34,1195 1715.95,1255.18 1790.68,1185.71 				"/>
				<g>
					<polygon class="st5" points="1987.98,1031.16 1940.18,1070.61 1934.99,1037.13 1982.79,997.68 					"/>
					<polygon class="st5" points="1991.59,1035.54 1943.79,1074.98 1975.66,1086.45 2023.46,1047 					"/>
				</g>
				
					<rect x="1793.55" y="1173.82" transform="matrix(0.7713 -0.6365 0.6365 0.7713 -344.7784 1415.8342)" class="st5" width="8.41" height="27.72"/>
				
					<rect x="1800.04" y="1168.46" transform="matrix(0.7713 -0.6364 0.6364 0.7713 -339.8949 1418.6644)" class="st2" width="8.41" height="27.72"/>
			</g>
		</g>
		<g>
			<path class="st1" d="M1686.82,1447.01c-0.85,0-1.67-0.5-2.03-1.34l-79.58-186.35c-0.48-1.12,0.04-2.42,1.16-2.89
				c1.11-0.48,2.42,0.04,2.89,1.16l79.58,186.35c0.48,1.12-0.04,2.42-1.16,2.89C1687.4,1446.95,1687.11,1447.01,1686.82,1447.01z"/>
			<path class="st1" d="M1754.26,1446.92c-0.29,0-0.58-0.06-0.86-0.17c-1.12-0.48-1.65-1.77-1.17-2.89l79.1-186.56
				c0.48-1.12,1.77-1.64,2.89-1.17c1.12,0.48,1.65,1.77,1.17,2.89l-79.1,186.56C1755.94,1446.42,1755.12,1446.92,1754.26,1446.92z"
				/>
		</g>
	</g>
	<g>
		<g>
			<g>
				<rect x="1166.08" y="1953.49" class="st10" width="263.01" height="210.53"/>
			</g>
			<g>
				<rect x="1530.77" y="1842.04" class="st10" width="263.01" height="321.98"/>
			</g>
			<path class="st11" d="M1386.87,2154.06c-1.22,0-2.2-0.99-2.2-2.2v-185.67c0-1.22,0.99-2.2,2.2-2.2c1.22,0,2.2,0.99,2.2,2.2
				v185.67C1389.08,2153.07,1388.09,2154.06,1386.87,2154.06z"/>
			<g>
				<rect x="1895.46" y="1708.47" class="st10" width="263.01" height="455.55"/>
			</g>
			<path class="st11" d="M2116.25,2154.06c-1.22,0-2.2-0.99-2.2-2.2v-430.7c0-1.22,0.99-2.2,2.2-2.2s2.2,0.99,2.2,2.2v430.7
				C2118.46,2153.07,2117.47,2154.06,2116.25,2154.06z"/>
			<path class="st11" d="M1750.19,2154.06c-1.22,0-2.2-0.99-2.2-2.2V1854.1c0-1.22,0.99-2.2,2.2-2.2s2.2,0.99,2.2,2.2v297.75
				C1752.4,2153.07,1751.41,2154.06,1750.19,2154.06z"/>
		</g>
		<g>
			<path class="st1" d="M1243.21,2128.75c-73.95,0-147.28-9.27-218.96-27.73c-98.3-25.31-190.93-67.18-275.32-124.44
				c-1.01-0.68-1.27-2.05-0.59-3.06c0.68-1.01,2.06-1.27,3.06-0.59c171.08,116.08,378.7,168.12,584.61,146.54
				c442.23-46.34,780.73-416.17,787.4-860.24c0.02-1.22,1.09-2.14,2.24-2.17c1.22,0.02,2.19,1.02,2.17,2.24
				c-6.7,446.31-346.9,817.99-791.34,864.56C1305.33,2127.12,1274.22,2128.75,1243.21,2128.75z"/>
			<path class="st1" d="M2150.47,1298.72c-0.85,0-1.67-0.5-2.03-1.34l-22.94-53.77l-28.39,50.56c-0.6,1.06-1.95,1.44-3,0.84
				c-1.06-0.6-1.44-1.94-0.84-3l30.58-54.47c0.41-0.73,1.2-1.2,2.04-1.12c0.84,0.05,1.58,0.56,1.91,1.33l24.7,57.89
				c0.48,1.12-0.04,2.42-1.16,2.89C2151.05,1298.66,2150.75,1298.72,2150.47,1298.72z"/>
		</g>
	</g>
	<g>
		<path class="st4" d="M1333.58,1730.18c-0.08,0-0.17,0-0.25,0l-60.58-0.47c-8.3-0.06-16.08-3.36-21.9-9.28
			c-5.82-5.92-8.99-13.75-8.92-22.05l0.22-26.78c0.14-17.06,14.06-30.84,31.08-30.84c0.08,0,0.17,0,0.25,0l60.58,0.47
			c8.3,0.06,16.08,3.36,21.9,9.28c5.82,5.92,8.99,13.75,8.92,22.05l-0.22,26.78C1364.53,1716.39,1350.61,1730.18,1333.58,1730.18z
			 M1273.22,1645.16c-14.61,0-26.56,11.83-26.68,26.47l-0.22,26.78c-0.06,7.12,2.66,13.84,7.66,18.92s11.67,7.9,18.79,7.96
			l60.58,0.47l0,0c0.07,0,0.14,0,0.21,0c14.61,0,26.55-11.83,26.67-26.47l0.22-26.78c0.06-7.13-2.66-13.85-7.66-18.92
			c-5-5.08-11.67-7.9-18.79-7.96l-60.58-0.47C1273.37,1645.16,1273.29,1645.16,1273.22,1645.16z"/>
		
			<rect x="1177.77" y="1649.55" transform="matrix(7.784284e-03 -1 1 7.784284e-03 -532.5324 3117.1506)" class="st12" width="253.45" height="354.75"/>
		<path class="st3" d="M1303.71,1845.25c-0.48,0-0.96-0.16-1.36-0.47l-154.96-121.02c-0.96-0.75-1.13-2.14-0.38-3.09
			c0.75-0.96,2.13-1.13,3.09-0.38l153.61,119.97l153.9-117.68c0.97-0.74,2.35-0.56,3.09,0.41c0.74,0.97,0.56,2.35-0.41,3.09
			l-155.25,118.71C1304.66,1845.1,1304.19,1845.25,1303.71,1845.25z"/>
		
			<rect x="1291.19" y="1815.22" transform="matrix(7.784916e-03 -1 1 7.784916e-03 -545.9354 3130.2341)" class="st3" width="26.38" height="49.99"/>
	</g>
</g>
</svg>
