<?xml version="1.0" encoding="utf-8"?>
<!-- Generator: Adobe Illustrator 24.0.2, SVG Export Plug-In . SVG Version: 6.00 Build 0)  -->
<!DOCTYPE svg PUBLIC "-//W3C//DTD SVG 1.1//EN" "http://www.w3.org/Graphics/SVG/1.1/DTD/svg11.dtd" [
	<!ENTITY ns_extend "http://ns.adobe.com/Extensibility/1.0/">
	<!ENTITY ns_ai "http://ns.adobe.com/AdobeIllustrator/10.0/">
	<!ENTITY ns_graphs "http://ns.adobe.com/Graphs/1.0/">
	<!ENTITY ns_vars "http://ns.adobe.com/Variables/1.0/">
	<!ENTITY ns_imrep "http://ns.adobe.com/ImageReplacement/1.0/">
	<!ENTITY ns_sfw "http://ns.adobe.com/SaveForWeb/1.0/">
	<!ENTITY ns_custom "http://ns.adobe.com/GenericCustomNamespace/1.0/">
	<!ENTITY ns_adobe_xpath "http://ns.adobe.com/XPath/1.0/">
]>
<svg version="1.1" id="Capa_1" xmlns:x="&ns_extend;" xmlns:i="&ns_ai;" xmlns:graph="&ns_graphs;"
	 xmlns="http://www.w3.org/2000/svg" xmlns:xlink="http://www.w3.org/1999/xlink" x="0px" y="0px" viewBox="0 0 447.4 334"
	 style="enable-background:new 0 0 447.4 334;" xml:space="preserve">
<style type="text/css">
	.st0{fill:#DBE8EC;}
	.st1{fill:none;stroke:#B9D4DB;stroke-width:3;stroke-linecap:round;stroke-miterlimit:10;}
	.st2{fill:#9C9C9C;}
	.st3{fill:#BCBCBC;}
	.st4{fill:#7E7E7E;}
	.st5{fill:#F2F2F2;}
	.st6{fill:#D2D2D2;}
	.st7{fill:#E59413;}
	.st8{fill:#E0E0E0;}
	.st9{fill:#A9A9A9;}
	.st10{fill:#9B9B9B;}
	.st11{fill:#B9D4DB;}
	.st12{fill:#B4B4B4;}
	.st13{opacity:0.76;fill:#FFFFFF;enable-background:new    ;}
	.st14{fill:none;stroke:#DBE8EC;stroke-width:10;stroke-miterlimit:10;}
	.st15{fill:#ADADAD;}
	.st16{fill:#808080;}
	.st17{fill:#409CB5;}
	.st18{fill:#E8EEEF;}
	.st19{fill:#BAD5DB;}
</style>
<metadata>
	<sfw  xmlns="&ns_sfw;">
		<slices></slices>
		<sliceSourceBounds  bottomLeftOrigin="true" height="414.3" width="534.4" x="0" y="97.7"></sliceSourceBounds>
		<optimizationSettings>
			<targetSettings  fileFormat="PNG24Format" targetSettingsID="0">
				<PNG24Format  filtered="false" interlaced="false" matteColor="#FFFFFF" noMatteColor="false" transparency="true">
					</PNG24Format>
			</targetSettings>
		</optimizationSettings>
	</sfw>
</metadata>
<circle class="st0" cx="227.2" cy="172.3" r="157.4"/>
<path class="st0" d="M432.9,141.6v-15.8c0-6.3-5.1-11.4-11.4-11.4h-40.2c-6.3,0-11.4-5.1-11.4-11.4l0,0V87.2
	c0-6.3,5.1-11.4,11.4-11.4l0,0h1.3c6.3,0,11.4-5.1,11.4-11.4v0V48.6c0-6.3-5.1-11.4-11.4-11.4c0,0,0,0,0,0H90.8
	c-6.3,0-11.4,5.1-11.4,11.4l0,0v15.8c0,6.3,5.1,11.4,11.4,11.4l0,0l0,0c6.3,0,11.4,5.1,11.4,11.4v0V103c0,6.3-5.1,11.4-11.4,11.4h0
	h-44c-6.3,0-11.4,5.1-11.4,11.4l0,0v15.8c0,6.3,5.1,11.4,11.4,11.4H64c6.3,0,11.4,5.1,11.4,11.4v0v15.8c0,6.3-5.1,11.4-11.4,11.4h0
	h0c-6.3,0-11.4,5.1-11.4,11.4v15.8c0,6.3,5.1,11.4,11.4,11.4l0,0h2.5c6.3,0,11.4,5.1,11.4,11.4l0,0v15.8c0,6.3-5.1,11.4-11.4,11.4h0
	h-41c-6.3,0-11.4,5.1-11.4,11.4l0,0v15.8c0,6.3,5.1,11.4,11.4,11.4c0,0,0,0,0,0h363.2c6.3,0,11.4-5.1,11.4-11.4c0,0,0,0,0,0v-15.8
	c0-6.3-5.1-11.4-11.4-11.4l0,0h-9.9c-6.3,0-11.4-5.1-11.4-11.4v0v-15.8c0-6.3,5.1-11.4,11.4-11.4l0,0h23.3c6.3,0,11.4-5.1,11.4-11.4
	v-15.8c0-6.3-5.1-11.4-11.4-11.4l0,0h-7.1c-6.3,0-11.4-5.1-11.4-11.4l0,0v-15.8c0-6.3,5.1-11.4,11.4-11.4l0,0h26.4
	C427.8,153,432.9,147.9,432.9,141.6z"/>
<line class="st1" x1="291.7" y1="32.9" x2="322" y2="32.9"/>
<line class="st1" x1="291.7" y1="41.7" x2="322" y2="41.7"/>
<line class="st1" x1="291.7" y1="50.4" x2="322" y2="50.4"/>
<line class="st1" x1="312.7" y1="276.2" x2="343" y2="276.2"/>
<line class="st1" x1="312.7" y1="284.9" x2="343" y2="284.9"/>
<line class="st1" x1="312.7" y1="293.6" x2="343" y2="293.6"/>
<line class="st1" x1="61" y1="131.6" x2="91.4" y2="131.6"/>
<line class="st1" x1="61" y1="140.4" x2="91.4" y2="140.4"/>
<line class="st1" x1="61" y1="149.1" x2="91.4" y2="149.1"/>
<path class="st2" d="M393.8,247.3l-117.5,11.8l-117.5-11.8c-1-0.1-1.8-1-1.8-2l-2.8-8.1l2.8-132.7l119.3,12l119.3-12l2.6,133.7
	l-2.6,7C395.6,246.3,394.8,247.2,393.8,247.3z"/>
<path class="st3" d="M398.2,238.3L276.3,250l-122-12.8L157,97.7c0-1.1,0.9-2,2-2c0.1,0,0.1,0,0.2,0l117.1,11.8l117.1-11.8
	c1.1-0.1,2.1,0.7,2.2,1.8c0,0.1,0,0.1,0,0.2L398.2,238.3z"/>
<polygon class="st4" points="275.4,240.7 392.6,229.3 387.7,96.3 284.1,106.7 "/>
<polygon class="st4" points="275.4,91.9 377.8,80.4 382.6,230.3 275.4,240.7 "/>
<polygon class="st4" points="281.1,90.9 173.4,89 179.1,234.9 275.4,240.7 "/>
<polygon class="st5" points="276.3,84 378.8,72.4 386,222.7 276.3,232.8 "/>
<polygon class="st6" points="276.3,227.8 276.3,232.8 386,222.7 385.8,217.7 "/>
<polygon class="st5" points="276.3,84 168.6,82 174.3,228 276.3,232.8 "/>
<polygon class="st6" points="174.3,228 276.3,232.8 276.3,227.6 174.3,222.8 "/>
<path class="st7" d="M-101.5-84.6"/>
<path class="st8" d="M276.3,84c0,0,57.4-14.9,74.6-36l4.8,97.7c1.9,39.1-24.3,74-62.3,83l-17.1,4.1V84z"/>
<path class="st6" d="M291.6,84l-15.2,148.8c0,0,19.4-1.5,20.9-1.9c17.1-15.6,26.8-41.9,24.4-65.3l-9.3-93.8
	c-6.2,2.5-12.2,4.7-17.6,6.5C292.9,81.7,291.6,84,291.6,84z"/>
<path class="st7" d="M-101.5-84.6"/>
<path class="st7" d="M-101.5-84.6"/>
<path class="st7" d="M-101.5-84.6"/>
<path class="st9" d="M309.6,132.4c-1.1,0.2-1.8,1.3-1.6,2.3l0.8,16.8c0.2,1.1,1.3,1.8,2.3,1.6l9.2-1.5l-2.1-21L309.6,132.4z"/>
<path class="st10" d="M343.6,190.7l-23.3,3.9c-1.1,0.2-2.1-0.5-2.3-1.6l0,0l-0.8-16.8c-0.2-1.1,0.5-2.1,1.6-2.3l0,0l23.6-4.8
	c1.1-0.2,2.1,0.5,2.3,1.6c0,0,0,0,0,0l0.5,17.7C345.4,189.4,344.7,190.5,343.6,190.7L343.6,190.7z"/>
<path class="st10" d="M318.8,173.9c-1.1,0.2-1.8,1.3-1.6,2.3l0.8,16.8c0.1,0.6,0.5,1.1,1,1.4c2-6.9,3-14,3.1-21.2L318.8,173.9z"/>
<circle class="st11" cx="210.6" cy="300.9" r="13"/>
<circle class="st11" cx="193.3" cy="269.9" r="6.7"/>
<circle class="st11" cx="237.2" cy="276.7" r="9.6"/>
<circle class="st11" cx="72.6" cy="226.3" r="15.4"/>
<circle class="st11" cx="43.2" cy="215.3" r="8"/>
<circle class="st11" cx="50.6" cy="188" r="4.6"/>
<circle class="st11" cx="76.2" cy="191.3" r="11.1"/>
<ellipse transform="matrix(0.1602 -0.9871 0.9871 0.1602 90.5487 211.7162)" class="st11" cx="169.7" cy="52.6" rx="15.4" ry="15.4"/>
<circle class="st11" cx="170.3" cy="21.2" r="8"/>
<circle class="st11" cx="223.8" cy="25.9" r="7"/>
<circle class="st11" cx="198.5" cy="19.1" r="4.6"/>
<circle class="st11" cx="203.9" cy="44.4" r="11.1"/>
<rect x="130.7" y="214.9" transform="matrix(0.4954 -0.8686 0.8686 0.4954 -124.0006 234.4807)" class="st0" width="18.2" height="18.2"/>
<path class="st12" d="M212.5,216.5c27.7-20.9,33.2-60.3,12.3-88s-60.3-33.2-88-12.3c-27.7,20.9-33.2,60.3-12.3,88
	C145.4,231.9,184.8,237.4,212.5,216.5C212.5,216.5,212.5,216.5,212.5,216.5z M134.3,196.8c-16.8-22.3-12.4-54,9.9-70.8
	s54-12.4,70.8,9.9c16.8,22.3,12.4,54-9.9,70.8c0,0,0,0,0,0C182.8,223.6,151.1,219.1,134.3,196.8z"/>
<ellipse transform="matrix(8.248056e-02 -0.9966 0.9966 8.248056e-02 -5.5034 326.7434)" class="st13" cx="174.7" cy="166.4" rx="50.6" ry="50.6"/>
<path class="st14" d="M210.8,168.6c-1.2,19.9-18.4,35.1-38.3,33.9c-12.4-0.8-23.6-7.9-29.5-18.8"/>
<path class="st15" d="M122.7,224.6l25.3,14.4c1,0.5,1.3,1.8,0.7,2.7l-37,64.9c-0.5,1-1.8,1.3-2.7,0.7L83.7,293
	c-1-0.5-1.3-1.8-0.7-2.7l37-64.9C120.5,224.4,121.8,224.1,122.7,224.6z"/>
<path class="st16" d="M111.8,306.6l37-64.9c0.5-1,0.2-2.2-0.7-2.7c0,0,0,0,0,0l-6.3-3.6c1,0.5,1.3,1.8,0.7,2.7l-37,64.9
	c-0.5,1-1.8,1.3-2.7,0.7c0,0,0,0,0,0l6.3,3.6C110,307.9,111.2,307.6,111.8,306.6C111.8,306.6,111.8,306.6,111.8,306.6z"/>
<path class="st12" d="M89.1,293.7l37-64.9c0.5-1,1.8-1.3,2.7-0.7c0,0,0,0,0,0l7,4l-13.1-7.5c-1-0.5-2.2-0.2-2.7,0.7l-37,64.9
	c-0.5,1-0.2,2.2,0.7,2.7l6.1,3.5C88.9,295.9,88.5,294.7,89.1,293.7C89.1,293.7,89.1,293.7,89.1,293.7z"/>
<polygon class="st17" points="96.8,300.4 109,307.4 109,307.4 "/>
<path class="st0" d="M83.6,286.7l30.8,17.6c1,0.5,1.3,1.8,0.7,2.7l-2.9,5.2c-3.6,6.3-11.7,8.5-18,4.9l0,0l-11.4-6.5
	c-6.3-3.6-8.5-11.7-4.9-18l0,0l2.9-5.2C81.4,286.5,82.6,286.2,83.6,286.7L83.6,286.7z"/>
<path class="st18" d="M83.9,296.1l2.9-5.2c0.5-1,1.8-1.3,2.7-0.7l25.2,14.4c-0.1-0.1-0.2-0.2-0.3-0.2l-30.8-17.6
	c-1-0.5-2.2-0.2-2.7,0.7l-2.9,5.2c-3.6,6.3-1.4,14.4,4.9,18l5.3,3C82.3,309.9,80.5,302.2,83.9,296.1z"/>
<path class="st19" d="M112.2,312.2l2.9-5.2c0.5-1,0.2-2.2-0.7-2.7l-6.3-3.6c1,0.5,1.3,1.8,0.7,2.7l-2.9,5.2
	c-3.6,6.3-11.7,8.5-18,4.9l-5.1-2.9l0,0l11.4,6.5C100.6,320.7,108.6,318.5,112.2,312.2C112.2,312.2,112.2,312.2,112.2,312.2z"/>
</svg>
