<svg xmlns="http://www.w3.org/2000/svg" viewBox="0 0 71.67 44.22"><title>Recurso 2</title><g id="Capa_2" data-name="Capa 2"><g id="Capa_1-2" data-name="Capa 1"><path d="M0,43.74V.45H4.32l25.15,39-1.76-1.19V.45H32V43.74H27.63L2,4.41l2.32,1.7V43.74Z"/><path d="M55.76,44.22a28.24,28.24,0,0,1-5.95-.6,21.89,21.89,0,0,1-9.76-4.76l2.59-3.4a19.17,19.17,0,0,0,6,3.58,20.68,20.68,0,0,0,7.11,1.19q5.6,0,8.64-2.21a7.22,7.22,0,0,0,3-6.19v0A5.61,5.61,0,0,0,66,27.62a9.45,9.45,0,0,0-3.89-2.2,45.47,45.47,0,0,0-5.2-1.28q-2.59-.51-5.2-1.12a20.41,20.41,0,0,1-4.77-1.73,8.88,8.88,0,0,1-3.47-3.16,9.91,9.91,0,0,1-1.31-5.41v0q0-6,4-9.37T57.48,0a21,21,0,0,1,6.78,1.12A24.7,24.7,0,0,1,70.8,4.53L68.27,7.9A23.19,23.19,0,0,0,62.79,5a15.71,15.71,0,0,0-5.31-1q-5.29,0-8.22,2.22a7.44,7.44,0,0,0-2.92,6.3v0A5.08,5.08,0,0,0,48,16.63a11,11,0,0,0,4.3,2.11c1.75.48,3.62.92,5.58,1.31q2.51.51,5,1.2a18.06,18.06,0,0,1,4.46,1.87,9,9,0,0,1,3.19,3.24,10.37,10.37,0,0,1,1.19,5.26v.06a11.09,11.09,0,0,1-4.17,9.26Q63.33,44.23,55.76,44.22Z"/></g></g></svg>